<svg width="140" height="32" viewBox="0 0 140 32" version="1.1" xmlns="http://www.w3.org/2000/svg" xmlns:xlink="http://www.w3.org/1999/xlink" xmlns:figma="http://www.figma.com/figma/ns">
<title>logo</title>
<desc>Created using Figma</desc>
<g id="Canvas" transform="translate(3686 -1122)" figma:type="canvas">
<g id="logo" style="mix-blend-mode:normal;" figma:type="frame">
<g id="Fill 1" style="mix-blend-mode:normal;" figma:type="vector">
<use xlink:href="#path0_fill" transform="translate(-3685.52 1122.65)" fill="#E24522" style="mix-blend-mode:normal;"/>
</g>
<g id="Fill 2" style="mix-blend-mode:normal;" figma:type="vector-operation">
<use xlink:href="#path1_fill" transform="translate(-3662.8 1122)" fill="#E24522" style="mix-blend-mode:normal;"/>
</g>
<g id="Fill 4" style="mix-blend-mode:normal;" figma:type="vector">
<use xlink:href="#path2_fill" transform="translate(-3655.21 1129.09)" fill="#E24522" style="mix-blend-mode:normal;"/>
</g>
<g id="Fill 5" style="mix-blend-mode:normal;" figma:type="vector">
<use xlink:href="#path3_fill" transform="translate(-3641.77 1129.09)" fill="#E24522" style="mix-blend-mode:normal;"/>
</g>
<g id="Fill 6" style="mix-blend-mode:normal;" figma:type="vector-operation">
<use xlink:href="#path4_fill" transform="translate(-3626.46 1129.09)" fill="#E24522" style="mix-blend-mode:normal;"/>
</g>
<g id="Fill 7" style="mix-blend-mode:normal;" figma:type="vector">
<use xlink:href="#path5_fill" transform="translate(-3608.71 1129.19)" fill="#E24522" style="mix-blend-mode:normal;"/>
</g>
<g id="Fill 8" style="mix-blend-mode:normal;" figma:type="vector-operation">
<use xlink:href="#path6_fill" transform="translate(-3591.47 1129.09)" fill="#E24522" style="mix-blend-mode:normal;"/>
</g>
<g id="Fill 9" style="mix-blend-mode:normal;" figma:type="vector">
<use xlink:href="#path7_fill" transform="translate(-3573.33 1129.09)" fill="#E24522" style="mix-blend-mode:normal;"/>
</g>
<g id="Fill 10" style="mix-blend-mode:normal;" figma:type="vector">
<use xlink:href="#path8_fill" transform="translate(-3563.69 1129.19)" fill="#E24522" style="mix-blend-mode:normal;"/>
</g>
<g id="Fill 11" style="mix-blend-mode:normal;" figma:type="vector">
<use xlink:href="#path9_fill" transform="translate(-3612.2 1142.57)" fill="#E24522" style="mix-blend-mode:normal;"/>
</g>
</g>
</g>
<defs>
<path id="path0_fill" fill-rule="evenodd" d="M 10.6437 17.7483L 4.70528 0L 0 0.686072L 8.24259 23.1746L 12.0066 23.1746L 20.9961 0.490296L 16.972 0L 10.6437 17.7483Z"/>
<path id="path1_fill" fill-rule="evenodd" d="M 4.18604 4.20035C 4.66162 3.71005 4.89941 3.12729 4.89941 2.45206C 4.89941 1.75458 4.67236 1.17181 4.21826 0.703766C 3.76465 0.234589 3.19043 0 2.49805 0C 1.74121 0 1.13477 0.234589 0.680664 0.703766C 0.226562 1.17181 0 1.78766 0 2.55023C 0 3.20319 0.242188 3.76483 0.72998 4.23343C 1.2168 4.70148 1.79541 4.93549 2.46533 4.93549C 3.13574 4.93549 3.70996 4.69119 4.18604 4.20035ZM 4.6084 23.8287L 0.324219 23.8287L 0.324219 7.48572L 4.6084 7.48572L 4.6084 23.8287Z"/>
<path id="path2_fill" fill-rule="evenodd" d="M 11.4886 12.2249C 11.4886 13.6626 10.9146 14.8396 9.7687 15.7545C 8.62114 16.6701 7.16077 17.1278 5.38758 17.1278C 3.39621 17.1278 1.60092 16.4965 0 15.2317L 1.39634 12.944C 2.67254 14.0331 3.82973 14.5782 4.86848 14.5782C 5.56042 14.5782 6.11748 14.3989 6.5391 14.0394C 6.96129 13.6792 7.17267 13.1946 7.17267 12.5845C 7.17267 12.0611 6.99926 11.593 6.65301 11.1786C 6.30619 10.7654 5.54965 10.1335 4.38113 9.28252C 3.21317 8.43263 2.42319 7.77967 2.01177 7.3219C 1.2762 6.47202 0.909547 5.53538 0.909547 4.51084C 0.909547 3.18207 1.42807 2.0976 2.46683 1.25856C 3.50558 0.420091 4.83505 0 6.45863 0C 8.14569 0 9.69276 0.447488 11.0987 1.34018L 9.84011 3.39954C 8.97873 2.78995 8.07542 2.48401 7.1296 2.48401C 6.54817 2.48401 6.06875 2.63698 5.69246 2.94178C 5.31561 3.24714 5.12746 3.62842 5.12746 4.08561C 5.12746 4.73915 5.86983 5.62214 7.35571 6.73344C 9.0133 7.97601 10.1167 8.9509 10.6652 9.65923C 11.2138 10.367 11.4886 11.2226 11.4886 12.2249Z"/>
<path id="path3_fill" fill-rule="evenodd" d="M 14.1821 15.5588C 12.4945 16.605 10.6221 17.1278 8.56731 17.1278C 6.10105 17.1278 4.05698 16.3379 2.43339 14.7574C 0.811508 13.1781 0 11.1358 0 8.62955C 0 6.14554 0.848343 4.08561 2.54786 2.45205C 4.24569 0.817921 6.40366 0 9.02123 0C 10.8607 0 12.5047 0.447488 13.9555 1.34018L 12.6934 3.62842C 11.636 3.12728 10.6017 2.87671 9.58849 2.87671C 8.07938 2.87671 6.86609 3.38298 5.94974 4.39668C 5.03396 5.40981 4.57607 6.7557 4.57607 8.43263C 4.57607 10.1769 5.03963 11.5822 5.96617 12.6495C 6.89272 13.7174 8.11168 14.2517 9.62136 14.2517C 10.6567 14.2517 11.7884 13.9138 13.0176 13.238L 14.1821 15.5588Z"/>
<path id="path4_fill" fill-rule="evenodd" d="M 14.5713 14.6758C 16.1499 13.0422 16.9404 10.9612 16.9404 8.43262C 16.9404 6.0365 16.1455 4.03137 14.5552 2.41895C 12.9663 0.806488 10.9692 0 8.56787 0C 6.05811 0 4.00195 0.790527 2.40186 2.36984C 0.800293 3.95032 0 5.98172 0 8.46573C 0 11.0154 0.79541 13.0964 2.38525 14.7089C 3.97607 16.3219 6.01465 17.1273 8.50244 17.1273C 10.9692 17.1273 12.9922 16.3099 14.5713 14.6758ZM 11.4229 3.98801C 12.1372 5.05591 12.4951 6.54849 12.4951 8.46573C 12.4951 10.4263 12.1421 11.9623 11.4395 13.0742C 10.7363 14.1855 9.75732 14.742 8.50244 14.742C 7.22607 14.742 6.23145 14.1855 5.51709 13.0742C 4.80273 11.9623 4.44629 10.4263 4.44629 8.46573C 4.44629 6.61356 4.80859 5.13696 5.53271 4.03708C 6.25781 2.93719 7.22607 2.38583 8.43848 2.38583C 9.71436 2.38583 10.709 2.92007 11.4229 3.98801Z"/>
<path id="path5_fill" fill-rule="evenodd" d="M 16.4223 0.653538L 9.44455 16.6375L 6.4915 16.6375L 0 0.784816L 4.25192 0L 8.4704 11.44L 12.949 0L 16.4223 0.653538Z"/>
<path id="path6_fill" fill-rule="evenodd" d="M 14.7017 8.69461C 14.9824 8.5639 15.1235 8.47717 15.1235 8.43265C 15.1006 6.49429 14.7988 4.88184 14.2144 3.59531C 13.1318 1.19864 11.1201 0 8.17822 0C 5.84229 0 3.9165 0.741455 2.40186 2.2226C 0.799805 3.79166 0 5.81848 0 8.30249C 0 11.0051 0.897461 13.2055 2.69336 14.9047C 4.25195 16.3875 6.22021 17.1278 8.6001 17.1278C 10.6768 17.1278 12.7856 16.5182 14.9277 15.2974L 13.7271 13.0422C 12.3003 13.9138 10.8931 14.3493 9.50928 14.3493C 8.0376 14.3493 6.84229 13.8704 5.92236 12.9104C 5.00293 11.9526 4.53223 10.6455 4.51074 8.98914L 14.2798 8.98914C 14.2798 8.92407 14.4199 8.82535 14.7017 8.69461ZM 11.2607 6.01425C 11.2827 6.34131 11.2935 6.6033 11.2935 6.79852L 4.51074 6.79852C 4.6416 3.81393 5.84326 2.32077 8.11572 2.32077C 10.0366 2.32077 11.0869 3.55252 11.2607 6.01425Z"/>
<path id="path7_fill" fill-rule="evenodd" d="M 10.8721 1.50399L 9.28078 4.60901C 8.3293 4.15125 7.64756 3.92294 7.23727 3.92294C 6.02568 3.92294 5.18187 4.57591 4.70641 5.88412C 4.42476 6.66837 4.28479 7.9646 4.28479 9.77338L 4.28479 16.7357L 0 16.7357L 0 0.392693L 4.28479 0.392693L 4.28479 3.26883L 4.89965 2.2226C 5.765 0.741437 6.75048 0 7.8544 0C 8.78378 0 9.78967 0.501141 10.8721 1.50399Z"/>
<path id="path8_fill" fill-rule="evenodd" d="M 16.8433 0.686643L 8.95719 18.6963C 7.94054 21.0285 6.97716 22.5747 6.06931 23.3379C 4.90078 24.319 3.21317 24.8087 1.00589 24.8087L 0 24.8087L 0 21.8995L 0.84381 21.8995C 1.83893 21.8995 2.61813 21.7631 3.1803 21.4914C 3.74303 21.2186 4.26779 20.7066 4.75401 19.9549C 5.24194 19.2032 5.92764 17.7374 6.81452 15.5582L 0.51966 0.81735L 4.73814 0L 8.89202 11.5057L 13.4675 0L 16.8433 0.686643Z"/>
<path id="path9_fill" fill-rule="evenodd" d="M 8.31513 5.89896L 2.45776 0C 1.84063 1.0371 1.00192 1.92294 0 2.58504L 5.80353 8.42978C 6.37646 9.00683 7.31321 9.00683 7.88614 8.42807L 8.31513 7.9977C 8.88749 7.42122 8.88749 6.47659 8.31513 5.89896Z"/>
</defs>
</svg>
