<?xml version="1.0" encoding="UTF-8"?>
<svg width="65px" height="430px" viewBox="0 0 65 430" version="1.1" xmlns="http://www.w3.org/2000/svg" xmlns:xlink="http://www.w3.org/1999/xlink">
    <!-- Generator: Sketch 42 (36781) - http://www.bohemiancoding.com/sketch -->
    <title>icon-awards</title>
    <desc>Created with Sketch.</desc>
    <defs></defs>
    <g id="pc" stroke="none" stroke-width="1" fill="none" fill-rule="evenodd">
        <g id="5.0-關於我們" transform="translate(-600.000000, -1864.000000)" fill="#F02314">
            <path d="M417.66,2110.5 L444.66,2047.05 L457.44,2047.05 L484.44,2110.5 L469.95,2110.5 L464.19,2096.37 L437.55,2096.37 L431.79,2110.5 L417.66,2110.5 Z M442.5,2084.13 L459.24,2084.13 L450.87,2063.7 L442.5,2084.13 Z M510.81,2110.95 L522.87,2110.95 L537.09,2069.73 L551.31,2110.95 L563.37,2110.95 L584.88,2047.5 L570.39,2047.5 L557.34,2090.16 L543.21,2047.32 L531.33,2047.32 L517.2,2090.16 L504.15,2047.5 L489.3,2047.5 L510.81,2110.95 Z M589.74,2110.5 L616.74,2047.05 L629.52,2047.05 L656.52,2110.5 L642.03,2110.5 L636.27,2096.37 L609.63,2096.37 L603.87,2110.5 L589.74,2110.5 Z M614.58,2084.13 L631.32,2084.13 L622.95,2063.7 L614.58,2084.13 Z M666.24,2110.5 L666.24,2047.5 L695.04,2047.5 C703.05,2047.5 709.26,2049.75 713.4,2053.89 C716.91,2057.4 718.8,2062.35 718.8,2068.29 L718.8,2068.47 C718.8,2078.64 713.31,2085.03 705.3,2088 L720.69,2110.5 L704.49,2110.5 L690.99,2090.34 L680.1,2090.34 L680.1,2110.5 L666.24,2110.5 Z M680.1,2078.1 L694.14,2078.1 C700.89,2078.1 704.76,2074.5 704.76,2069.19 L704.76,2069.01 C704.76,2063.07 700.62,2060.01 693.87,2060.01 L680.1,2060.01 L680.1,2078.1 Z M731.31,2110.5 L731.31,2047.5 L755.88,2047.5 C775.68,2047.5 789.36,2061.09 789.36,2078.82 L789.36,2079 C789.36,2096.73 775.68,2110.5 755.88,2110.5 L731.31,2110.5 Z M755.88,2060.01 L745.17,2060.01 L745.17,2097.99 L755.88,2097.99 C767.22,2097.99 774.87,2090.34 774.87,2079.18 L774.87,2079 C774.87,2067.84 767.22,2060.01 755.88,2060.01 Z M824.1,2111.4 C837.69,2111.4 847.23,2104.38 847.23,2091.87 L847.23,2091.69 C847.23,2080.71 840.03,2076.12 827.25,2072.79 C816.36,2070 813.66,2068.65 813.66,2064.51 L813.66,2064.33 C813.66,2061.27 816.45,2058.84 821.76,2058.84 C827.07,2058.84 832.56,2061.18 838.14,2065.05 L845.34,2054.61 C838.95,2049.48 831.12,2046.6 821.94,2046.6 C809.07,2046.6 799.89,2054.16 799.89,2065.59 L799.89,2065.77 C799.89,2078.28 808.08,2081.79 820.77,2085.03 C831.3,2087.73 833.46,2089.53 833.46,2093.04 L833.46,2093.22 C833.46,2096.91 830.04,2099.16 824.37,2099.16 C817.17,2099.16 811.23,2096.19 805.56,2091.51 L797.37,2101.32 C804.93,2108.07 814.56,2111.4 824.1,2111.4 Z" id="icon-awards" transform="translate(632.445000, 2079.000000) rotate(90.000000) translate(-632.445000, -2079.000000) "></path>
        </g>
    </g>
</svg>