<?xml version="1.0" encoding="UTF-8"?>
<svg width="25px" height="20px" viewBox="0 0 25 20" version="1.1" xmlns="http://www.w3.org/2000/svg" xmlns:xlink="http://www.w3.org/1999/xlink">
    <!-- Generator: Sketch 42 (36781) - http://www.bohemiancoding.com/sketch -->
    <title>icon-wb</title>
    <desc>Created with Sketch.</desc>
    <defs></defs>
    <g id="Symbols" stroke="none" stroke-width="1" fill="none" fill-rule="evenodd">
        <g id="footer" transform="translate(-144.000000, -245.000000)">
            <g id="Footer">
                <g>
                    <g id="soc" transform="translate(51.000000, 242.000000)">
                        <g id="icon-wb" transform="translate(92.000000, 0.000000)">
                            <rect id="bound" fill="#000000" opacity="0" x="0" y="0" width="26" height="26"></rect>
                            <g id="Group-10" transform="translate(1.000000, 3.000000)" fill="#FFFFFF">
                                <path d="M18.4019818,9.55323636 C18.0570727,9.45032727 17.8203455,9.3796 18.0010727,8.92669091 C18.3919818,7.94232727 18.4327091,7.09323636 18.0085273,6.4876 C17.2134364,5.35178182 15.0376182,5.41287273 12.5434364,6.45705455 C12.5434364,6.45578182 11.7603455,6.79996364 11.9605273,6.17850909 C12.3441636,4.94523636 12.2863455,3.91232727 11.6894364,3.31596364 C10.3365273,1.96196364 6.73834545,3.36723636 3.65234545,6.45178182 C1.34161818,8.76269091 -1.81818182e-05,11.2119636 -1.81818182e-05,13.3297818 C-1.81818182e-05,17.3808727 5.19489091,19.8436 10.2770727,19.8436 C16.9392545,19.8436 21.3710727,15.9726909 21.3710727,12.8997818 C21.3710727,11.0430545 19.8072545,9.98923636 18.4019818,9.55323636 M10.2907091,18.3919636 C6.23543636,18.7916 2.73489091,16.9592364 2.47125455,14.2963273 C2.20798182,11.6343273 5.28307273,9.15141818 9.33761818,8.75050909 C13.3934364,8.34905455 16.8941636,10.1825091 17.1572545,12.8439636 C17.4201636,15.5074182 14.3463455,17.9910545 10.2907091,18.3919636 Z M22.826,2.13998182 C24.4358182,3.92198182 24.8692727,6.35089091 24.1825455,8.48270909 C24.1823636,8.4838 24.1823636,8.48543636 24.1823636,8.48616364 C24.0227273,8.97816364 23.494,9.24816364 23.0016364,9.08870909 C22.5074545,8.92925455 22.2376364,8.40143636 22.3972727,7.90761818 L22.3970909,7.90707273 C22.8863636,6.39234545 22.5761818,4.66398182 21.4336364,3.39707273 C20.2892727,2.13052727 18.6029091,1.64598182 17.0447273,1.97689091 C16.538,2.08525455 16.0394545,1.76143636 15.9318182,1.25543636 C15.8227273,0.749254545 16.1463636,0.250527273 16.6527273,0.142345455 L16.6534545,0.142345455 C18.8441818,-0.323290909 21.2172727,0.356345455 22.826,2.13998182 Z M20.3551091,4.36974545 L20.3551091,4.36956364 C21.1398364,5.23810909 21.3496545,6.42083636 21.0140182,7.45974545 C20.8771091,7.88410909 20.4222,8.11574545 19.9974727,7.97974545 C19.5731091,7.84210909 19.3412909,7.38665455 19.4780182,6.96301818 L19.4774727,6.96301818 C19.6422,6.4552 19.5391091,5.87629091 19.1558364,5.4512 C18.7727455,5.02756364 18.2071091,4.86665455 17.6852909,4.97738182 L17.6852909,4.97647273 C17.2503818,5.0712 16.8212909,4.79156364 16.7280182,4.3572 C16.6342,3.92029091 16.9122,3.49101818 17.3487455,3.39810909 C18.4162,3.1712 19.5720182,3.50138182 20.3551091,4.36974545 Z" id="Combined-Shape"></path>
                                <path d="M10.6961091,10.7994182 C12.6930182,11.3156 13.7122909,13.1996 12.8961091,15.0297818 C12.0681091,16.9014182 9.68792727,17.8994182 7.66810909,17.2483273 C5.71865455,16.6188727 4.8932,14.6937818 5.74683636,12.9596 C6.58501818,11.2588727 8.76629091,10.2970545 10.6961091,10.7994182 Z M10.5144727,13.5696 C10.6499273,13.3257818 10.5621091,13.0512364 10.3172,12.9614182 C10.0762909,12.8659636 9.77483636,12.9817818 9.63338182,13.2188727 C9.49610909,13.4572364 9.57174545,13.7285091 9.81356364,13.8277818 C10.0590182,13.9290545 10.3726545,13.8125091 10.5144727,13.5696 Z M9.22229091,15.2283273 C9.60774545,14.5961455 9.40465455,13.8739636 8.76956364,13.6034182 C8.14138182,13.3399636 7.32974545,13.6110545 6.94229091,14.2185091 C6.54992727,14.8285091 6.73392727,15.5557818 7.3572,15.8396 C7.99010909,16.1283273 8.83010909,15.8541455 9.22229091,15.2283273 Z" id="Combined-Shape"></path>
                            </g>
                        </g>
                    </g>
                </g>
            </g>
        </g>
    </g>
</svg>