<?xml version="1.0" encoding="UTF-8"?>
<svg width="155px" height="67px" viewBox="0 0 155 67" version="1.1" xmlns="http://www.w3.org/2000/svg" xmlns:xlink="http://www.w3.org/1999/xlink">
    <!-- Generator: Sketch 42 (36781) - http://www.bohemiancoding.com/sketch -->
    <title>icon-vds-white</title>
    <desc>Created with Sketch.</desc>
    <defs></defs>
    <g id="pc" stroke="none" stroke-width="1" fill="none" fill-rule="evenodd">
        <g id="2.0-核心技術-" transform="translate(-70.000000, -258.000000)" fill="#FFFFFF">
            <g id="Group-4" transform="translate(0.000000, 90.000000)">
                <g id="Group-15">
                    <g id="icon-vds-white" transform="translate(70.000000, 168.000000)">
                        <path d="M29.5957,66.4512 C31.6517,66.1552 33.2657,65.7272 34.4407,65.1642 C35.6157,64.6012 36.4377,63.6982 36.9077,62.4542 L49.9457,21.5612 L51.4347,16.9382 C54.1407,8.6032 55.4937,4.0212 55.4937,3.1922 C55.4937,2.2472 55.0967,1.4782 54.3027,0.8872 C53.5087,0.2962 52.6407,0.0002 51.6997,0.0002 L46.2417,0.0002 C43.2507,0.0002 41.4317,1.0012 40.7867,3.0002 L27.6267,49.5922 L14.4797,3.2202 C13.7797,1.0742 11.9977,0.0002 9.1367,0.0002 L3.7057,0.0002 C2.8237,0.0002 1.9857,0.2972 1.1917,0.8882 C0.3967,1.4802 -0.0003,2.2512 -0.0003,3.1982 C-0.0003,4.2052 1.3237,8.7942 3.9707,16.9672 C4.3487,18.1492 5.0777,20.4272 6.1587,23.8032 C7.2387,27.1782 8.1207,29.9352 8.8047,32.0732 L18.5827,62.3652 C19.3467,64.5562 21.6967,65.9192 25.6307,66.4512 C26.3357,66.5702 27.6567,66.5702 29.5957,66.4512" id="Fill-1"></path>
                        <path d="M101.6582,61.5156 C104.4222,58.5266 105.8042,55.0466 105.8042,51.0776 L105.8042,14.9236 C105.8042,10.9566 104.4222,7.4766 101.6582,4.4866 C98.8922,1.4956 95.1852,-0.0004 90.5392,-0.0004 L63.9782,-0.0004 C63.0962,-0.0004 62.3152,0.2666 61.6402,0.7996 C60.9632,1.3316 60.6262,2.0136 60.6262,2.8426 L60.6262,63.1606 C60.6262,63.9296 60.9342,64.5966 61.5522,65.1586 C62.1702,65.7216 62.9772,66.0016 63.9782,66.0016 L90.5392,66.0016 C95.1852,66.0016 98.8922,64.5066 101.6582,61.5156 M90.4512,52.8546 C89.9222,53.5656 89.1562,53.9206 88.1572,53.9206 L75.1852,53.9206 L75.1852,11.9926 L88.1572,11.9926 C89.1562,11.9926 89.9222,12.3476 90.4512,13.0586 C90.9802,13.7696 91.2452,14.5386 91.2452,15.3676 L91.2452,50.5456 C91.2452,51.3746 90.9802,52.1446 90.4512,52.8546" id="Fill-4"></path>
                        <path d="M150.7646,63.2041 C153.1176,61.3391 154.2936,58.6591 154.2936,55.1641 L154.2936,45.6581 C154.2936,44.1791 154.2346,42.9351 154.1186,41.9271 C153.9986,40.9211 153.7046,39.7071 153.2356,38.2851 C152.7636,36.8631 151.9406,35.6061 150.7646,34.5101 C149.5866,33.4141 148.0866,32.4821 146.2636,31.7111 L125.8806,23.4511 C125.4676,23.3341 125.2626,22.5941 125.2626,21.2301 L125.2626,13.5021 C125.2626,12.5561 125.5846,12.0811 126.2336,12.0811 L149.6176,12.0811 C150.4406,12.0811 151.1906,11.8141 151.8676,11.2811 C152.5426,10.7481 152.8826,10.0681 152.8826,9.2381 L152.8826,2.9321 C152.8826,2.1621 152.5736,1.4801 151.9556,0.8891 C151.3376,0.2971 150.5576,0.0001 149.6176,0.0001 L122.7036,0.0001 C119.5846,0.0001 116.8656,0.9471 114.5406,2.8431 C112.2166,4.7381 111.0556,7.4621 111.0556,11.0161 L111.0556,21.2301 C111.0556,28.3371 113.9676,33.0761 119.7906,35.4431 L139.0286,43.5271 C139.6746,43.8241 139.9986,44.6531 139.9986,46.0151 L139.9986,52.8541 C139.9986,53.5651 139.7626,53.9211 139.2926,53.9211 L114.9386,53.9211 C114.0556,53.9211 113.2756,54.1871 112.5996,54.7211 C111.9226,55.2531 111.5846,55.9351 111.5846,56.7641 L111.5846,63.0701 C111.5846,63.8411 111.8946,64.5221 112.5116,65.1131 C113.1296,65.7061 113.9376,66.0021 114.9386,66.0021 L142.5576,66.0021 C145.6756,66.0021 148.4106,65.0701 150.7646,63.2041" id="Fill-7"></path>
                    </g>
                </g>
            </g>
        </g>
    </g>
</svg>