<?xml version="1.0" encoding="UTF-8"?>
<svg width="26px" height="26px" viewBox="0 0 26 26" version="1.1" xmlns="http://www.w3.org/2000/svg" xmlns:xlink="http://www.w3.org/1999/xlink">
    <!-- Generator: Sketch 42 (36781) - http://www.bohemiancoding.com/sketch -->
    <title>icon-linkedin</title>
    <desc>Created with Sketch.</desc>
    <defs></defs>
    <g id="Symbols" stroke="none" stroke-width="1" fill="none" fill-rule="evenodd">
        <g id="footer" transform="translate(-189.000000, -242.000000)">
            <g id="Footer">
                <g>
                    <g id="soc" transform="translate(51.000000, 242.000000)">
                        <g id="icon-linkedin" transform="translate(138.000000, 0.000000)">
                            <rect id="bound" fill="#000000" opacity="0.01" x="0" y="0" width="26" height="26"></rect>
                            <path d="M21.4228571,3 L4.48571429,3 C4.07428366,3 3.72381097,3.14095097 3.43428571,3.42285714 C3.14476046,3.70476331 3,4.04380754 3,4.44 L3,21.5828571 C3,21.9790496 3.14476046,22.3142843 3.43428571,22.5885714 C3.72381097,22.8628585 4.06666469,23 4.46285714,23 L21.4228571,23 C21.8190496,23 22.1619033,22.8628585 22.4514286,22.5885714 C22.7409538,22.3142843 22.8857143,21.9790496 22.8857143,21.5828571 L22.8857143,4.44 C22.8857143,4.04380754 22.7409538,3.70476331 22.4514286,3.42285714 C22.1619033,3.14095097 21.8114306,3 21.4,3 L21.4228571,3 Z M9.03428571,19.7542857 L6.04,19.7542857 L6.04,10.7257143 L9.03428571,10.7257143 L9.03428571,19.7542857 Z M7.52571429,9.49142857 L7.50285714,9.49142857 C7.01523566,9.49142857 6.61904914,9.34285863 6.31428571,9.04571429 C6.00952229,8.74856994 5.85714286,8.37524034 5.85714286,7.92571429 C5.85714286,7.47618823 6.01333177,7.10285863 6.32571429,6.80571429 C6.6380968,6.50856994 7.04571177,6.36 7.54857143,6.36 C8.05143109,6.36 8.45523657,6.50856994 8.76,6.80571429 C9.06476343,7.10285863 9.21714286,7.47618823 9.21714286,7.92571429 C9.21714286,8.37524034 9.06476343,8.74856994 8.76,9.04571429 C8.45523657,9.34285863 8.04381211,9.49142857 7.52571429,9.49142857 L7.52571429,9.49142857 Z M19.8457143,19.7542857 L16.8514286,19.7542857 L16.8514286,14.9085714 C16.8514286,14.2838064 16.737144,13.7961922 16.5085714,13.4457143 C16.2495225,13.06476 15.860955,12.8742857 15.3428571,12.8742857 C14.9466647,12.8742857 14.6114299,12.9885703 14.3371429,13.2171429 C14.0933321,13.4152391 13.9104768,13.6666651 13.7885714,13.9714286 C13.7276187,14.1390485 13.6971429,14.3828555 13.6971429,14.7028571 L13.6971429,19.7542857 L10.7028571,19.7542857 L10.7028571,15.5485714 C10.7180953,12.6837952 10.7180953,11.0761922 10.7028571,10.7257143 L13.6971429,10.7257143 L13.6971429,12.0057143 C13.9714299,11.5790455 14.2685698,11.2514297 14.5885714,11.0228571 C15.0914311,10.6876174 15.6933298,10.52 16.3942857,10.52 C17.4304814,10.52 18.2533303,10.8476158 18.8628571,11.5028571 C19.5180985,12.2190512 19.8457143,13.2399934 19.8457143,14.5657143 L19.8457143,19.7542857 Z" id="linkedin" fill="#FFFFFF"></path>
                        </g>
                    </g>
                </g>
            </g>
        </g>
    </g>
</svg>