<?xml version="1.0" encoding="UTF-8"?>
<svg width="140px" height="33px" viewBox="0 0 140 33" version="1.1" xmlns="http://www.w3.org/2000/svg" xmlns:xlink="http://www.w3.org/1999/xlink">
    <!-- Generator: Sketch 46.1 (44463) - http://www.bohemiancoding.com/sketch -->
    <title>logo / Default</title>
    <desc>Created with Sketch.</desc>
    <defs></defs>
    <g id="Symbols" stroke="none" stroke-width="1" fill="none" fill-rule="evenodd">
        <g id="logo-/-Default" fill-rule="nonzero" fill="#E24522">
            <g id="logo">
                <g id="Fill-1">
                    <g id="path0_fill-link" transform="translate(0.480000, 0.650000)">
                        <polygon id="path0_fill" points="10.6437 17.7483 4.70528 0 0 0.686072 8.24259 23.1746 12.0066 23.1746 20.9961 0.490296 16.972 0"></polygon>
                    </g>
                </g>
                <g id="Fill-2" transform="translate(23.000000, 0.000000)">
                    <g id="path1_fill-link" transform="translate(0.200000, 0.000000)">
                        <path d="M4.18604,4.20035 C4.66162,3.71005 4.89941,3.12729 4.89941,2.45206 C4.89941,1.75458 4.67236,1.17181 4.21826,0.703766 C3.76465,0.234589 3.19043,0 2.49805,0 C1.74121,0 1.13477,0.234589 0.680664,0.703766 C0.226562,1.17181 0,1.78766 0,2.55023 C0,3.20319 0.242188,3.76483 0.72998,4.23343 C1.2168,4.70148 1.79541,4.93549 2.46533,4.93549 C3.13574,4.93549 3.70996,4.69119 4.18604,4.20035 Z M4.6084,23.8287 L0.324219,23.8287 L0.324219,7.48572 L4.6084,7.48572 L4.6084,23.8287 Z" id="path1_fill"></path>
                    </g>
                </g>
                <g id="Fill-4" transform="translate(30.000000, 7.000000)">
                    <g id="path2_fill-link" transform="translate(0.790000, 0.090000)">
                        <path d="M11.4886,12.2249 C11.4886,13.6626 10.9146,14.8396 9.7687,15.7545 C8.62114,16.6701 7.16077,17.1278 5.38758,17.1278 C3.39621,17.1278 1.60092,16.4965 0,15.2317 L1.39634,12.944 C2.67254,14.0331 3.82973,14.5782 4.86848,14.5782 C5.56042,14.5782 6.11748,14.3989 6.5391,14.0394 C6.96129,13.6792 7.17267,13.1946 7.17267,12.5845 C7.17267,12.0611 6.99926,11.593 6.65301,11.1786 C6.30619,10.7654 5.54965,10.1335 4.38113,9.28252 C3.21317,8.43263 2.42319,7.77967 2.01177,7.3219 C1.2762,6.47202 0.909547,5.53538 0.909547,4.51084 C0.909547,3.18207 1.42807,2.0976 2.46683,1.25856 C3.50558,0.420091 4.83505,0 6.45863,0 C8.14569,0 9.69276,0.447488 11.0987,1.34018 L9.84011,3.39954 C8.97873,2.78995 8.07542,2.48401 7.1296,2.48401 C6.54817,2.48401 6.06875,2.63698 5.69246,2.94178 C5.31561,3.24714 5.12746,3.62842 5.12746,4.08561 C5.12746,4.73915 5.86983,5.62214 7.35571,6.73344 C9.0133,7.97601 10.1167,8.9509 10.6652,9.65923 C11.2138,10.367 11.4886,11.2226 11.4886,12.2249 Z" id="path2_fill"></path>
                    </g>
                </g>
                <g id="Fill-5" transform="translate(44.000000, 7.000000)">
                    <g id="path3_fill-link" transform="translate(0.230000, 0.090000)">
                        <path d="M14.1821,15.5588 C12.4945,16.605 10.6221,17.1278 8.56731,17.1278 C6.10105,17.1278 4.05698,16.3379 2.43339,14.7574 C0.811508,13.1781 0,11.1358 0,8.62955 C0,6.14554 0.848343,4.08561 2.54786,2.45205 C4.24569,0.817921 6.40366,0 9.02123,0 C10.8607,0 12.5047,0.447488 13.9555,1.34018 L12.6934,3.62842 C11.636,3.12728 10.6017,2.87671 9.58849,2.87671 C8.07938,2.87671 6.86609,3.38298 5.94974,4.39668 C5.03396,5.40981 4.57607,6.7557 4.57607,8.43263 C4.57607,10.1769 5.03963,11.5822 5.96617,12.6495 C6.89272,13.7174 8.11168,14.2517 9.62136,14.2517 C10.6567,14.2517 11.7884,13.9138 13.0176,13.238 L14.1821,15.5588 Z" id="path3_fill"></path>
                    </g>
                </g>
                <g id="Fill-6" transform="translate(59.000000, 7.000000)">
                    <g id="path4_fill-link" transform="translate(0.540000, 0.090000)">
                        <path d="M14.5713,14.6758 C16.1499,13.0422 16.9404,10.9612 16.9404,8.43262 C16.9404,6.0365 16.1455,4.03137 14.5552,2.41895 C12.9663,0.806488 10.9692,0 8.56787,0 C6.05811,0 4.00195,0.790527 2.40186,2.36984 C0.800293,3.95032 0,5.98172 0,8.46573 C0,11.0154 0.79541,13.0964 2.38525,14.7089 C3.97607,16.3219 6.01465,17.1273 8.50244,17.1273 C10.9692,17.1273 12.9922,16.3099 14.5713,14.6758 Z M11.4229,3.98801 C12.1372,5.05591 12.4951,6.54849 12.4951,8.46573 C12.4951,10.4263 12.1421,11.9623 11.4395,13.0742 C10.7363,14.1855 9.75732,14.742 8.50244,14.742 C7.22607,14.742 6.23145,14.1855 5.51709,13.0742 C4.80273,11.9623 4.44629,10.4263 4.44629,8.46573 C4.44629,6.61356 4.80859,5.13696 5.53271,4.03708 C6.25781,2.93719 7.22607,2.38583 8.43848,2.38583 C9.71436,2.38583 10.709,2.92007 11.4229,3.98801 Z" id="path4_fill"></path>
                    </g>
                </g>
                <g id="Fill-7" transform="translate(77.000000, 7.000000)">
                    <g id="path5_fill-link" transform="translate(0.290000, 0.190000)">
                        <polygon id="path5_fill" points="16.4223 0.653538 9.44455 16.6375 6.4915 16.6375 0 0.784816 4.25192 0 8.4704 11.44 12.949 0"></polygon>
                    </g>
                </g>
                <g id="Fill-8" transform="translate(94.000000, 7.000000)">
                    <g id="path6_fill-link" transform="translate(0.530000, 0.090000)">
                        <path d="M14.7017,8.69461 C14.9824,8.5639 15.1235,8.47717 15.1235,8.43265 C15.1006,6.49429 14.7988,4.88184 14.2144,3.59531 C13.1318,1.19864 11.1201,0 8.17822,0 C5.84229,0 3.9165,0.741455 2.40186,2.2226 C0.799805,3.79166 0,5.81848 0,8.30249 C0,11.0051 0.897461,13.2055 2.69336,14.9047 C4.25195,16.3875 6.22021,17.1278 8.6001,17.1278 C10.6768,17.1278 12.7856,16.5182 14.9277,15.2974 L13.7271,13.0422 C12.3003,13.9138 10.8931,14.3493 9.50928,14.3493 C8.0376,14.3493 6.84229,13.8704 5.92236,12.9104 C5.00293,11.9526 4.53223,10.6455 4.51074,8.98914 L14.2798,8.98914 C14.2798,8.92407 14.4199,8.82535 14.7017,8.69461 Z M11.2607,6.01425 C11.2827,6.34131 11.2935,6.6033 11.2935,6.79852 L4.51074,6.79852 C4.6416,3.81393 5.84326,2.32077 8.11572,2.32077 C10.0366,2.32077 11.0869,3.55252 11.2607,6.01425 Z" id="path6_fill"></path>
                    </g>
                </g>
                <g id="Fill-9" transform="translate(112.000000, 7.000000)">
                    <g id="path7_fill-link" transform="translate(0.670000, 0.090000)">
                        <path d="M10.8721,1.50399 L9.28078,4.60901 C8.3293,4.15125 7.64756,3.92294 7.23727,3.92294 C6.02568,3.92294 5.18187,4.57591 4.70641,5.88412 C4.42476,6.66837 4.28479,7.9646 4.28479,9.77338 L4.28479,16.7357 L0,16.7357 L0,0.392693 L4.28479,0.392693 L4.28479,3.26883 L4.89965,2.2226 C5.765,0.741437 6.75048,0 7.8544,0 C8.78378,0 9.78967,0.501141 10.8721,1.50399 Z" id="path7_fill"></path>
                    </g>
                </g>
                <g id="Fill-10" transform="translate(122.000000, 7.000000)">
                    <g id="path8_fill-link" transform="translate(0.310000, 0.190000)">
                        <path d="M16.8433,0.686643 L8.95719,18.6963 C7.94054,21.0285 6.97716,22.5747 6.06931,23.3379 C4.90078,24.319 3.21317,24.8087 1.00589,24.8087 L0,24.8087 L0,21.8995 L0.84381,21.8995 C1.83893,21.8995 2.61813,21.7631 3.1803,21.4914 C3.74303,21.2186 4.26779,20.7066 4.75401,19.9549 C5.24194,19.2032 5.92764,17.7374 6.81452,15.5582 L0.51966,0.81735 L4.73814,0 L8.89202,11.5057 L13.4675,0 L16.8433,0.686643 Z" id="path8_fill"></path>
                    </g>
                </g>
                <g id="Fill-11" transform="translate(73.000000, 20.000000)">
                    <g id="path9_fill-link" transform="translate(0.800000, 0.570000)">
                        <path d="M8.31513,5.89896 L2.45776,0 C1.84063,1.0371 1.00192,1.92294 0,2.58504 L5.80353,8.42978 C6.37646,9.00683 7.31321,9.00683 7.88614,8.42807 L8.31513,7.9977 C8.88749,7.42122 8.88749,6.47659 8.31513,5.89896 Z" id="path9_fill"></path>
                    </g>
                </g>
            </g>
        </g>
    </g>
</svg>