<?xml version="1.0" encoding="UTF-8"?>
<svg width="107px" height="30px" viewBox="0 0 107 30" version="1.1" xmlns="http://www.w3.org/2000/svg" xmlns:xlink="http://www.w3.org/1999/xlink">
    <!-- Generator: Sketch 45 (43475) - http://www.bohemiancoding.com/sketch -->
    <title>🔸logo</title>
    <desc>Created with Sketch.</desc>
    <defs>
        <linearGradient x1="-0.0304802956%" y1="50.0166667%" x2="99.9243227%" y2="50.0166667%" id="linearGradient-1">
            <stop stop-color="#44A3D9" offset="0%"></stop>
            <stop stop-color="#2A2FBF" offset="100%"></stop>
        </linearGradient>
        <linearGradient x1="78.0181051%" y1="72.4092054%" x2="6.20186171%" y2="-18.8505814%" id="linearGradient-2">
            <stop stop-color="#44A3D9" offset="0%"></stop>
            <stop stop-color="#2A2FBF" offset="100%"></stop>
        </linearGradient>
    </defs>
    <g id="Page-1" stroke="none" stroke-width="1" fill="none" fill-rule="evenodd">
        <g id="03_pc_video_list" transform="translate(-47.000000, -15.000000)">
            <g id="logo" transform="translate(47.000000, 15.000000)">
                <g id="Group-3" stroke-width="1">
                    <path d="M18.8233852,10.9529003 L9.06094631,10.9529003 L3.48797718,29.4945958 L13.9908805,29.4945958 L15.5302671,24.6831432 L20.4017436,24.6831432 C31.3528228,24.6831432 33.1065544,19.7934556 34.6849128,13.0652454 L34.8602859,12.3415716 C34.9772014,11.8721616 35.055145,11.4027516 35.1330886,10.9529003 L18.8233852,10.9529003 Z" id="Shape" fill="url(#linearGradient-1)" fill-rule="nonzero"></path>
                    <path d="M16.3097034,10.1705503 L25.0004175,12.1264253 C31.9374,13.4955379 33.1455262,18.1505205 31.8789423,20.5366881 C32.5999208,19.1675755 32.5999208,19.9499256 33.9639342,14.0823004 L34.2367369,12.9087754 C34.4121101,11.9699553 34.431596,11.0506941 34.3926242,10.1705503 L16.3097034,10.1705503 Z" id="Shape" fill-opacity="0.18" fill="#000000" fill-rule="nonzero"></path>
                    <path d="M24.8250443,0.156470004 L1.77321745,0.156470004 L4.81301879,5.55468516 L0,10.9529003 L24.4158403,10.9529003 C33.0286108,11.2853991 33.5742161,17.8180218 32.0932873,20.3411006 C33.2624416,18.3852255 34.1977651,15.6274417 34.8018282,13.0652454 L34.9772014,12.3415716 C36.5360738,5.67203766 34.7238846,0.234705007 24.8250443,0.156470004 Z" id="Shape" fill="url(#linearGradient-2)" fill-rule="nonzero"></path>
                    <polygon id="Shape" fill="#FFFFFF" fill-rule="nonzero" points="28.3909651 11.6765741 20.0120255 6.20012393 16.9527383 16.0381755"></polygon>
                </g>
                <path d="M38.2569832,19.4016 L42.5035084,19.4016 C44.9710838,19.4016 46.2192179,20.4528 46.2192179,22.5552 C46.2192179,24.672 44.9710838,25.7376 42.4748156,25.7376 L39.9355084,25.7376 L39.9355084,29.6832 L38.2569832,29.6832 L38.2569832,19.4016 Z M39.9355084,20.8416 L39.9355084,24.2976 L42.3743911,24.2976 C43.1204022,24.2976 43.6655642,24.1536 44.0098771,23.8944 C44.3541899,23.6208 44.5263464,23.1744 44.5263464,22.5552 C44.5263464,21.936 44.3398436,21.504 43.9955307,21.2448 C43.6512179,20.9712 43.1060559,20.8416 42.3743911,20.8416 L39.9355084,20.8416 Z M48.8015642,19.2 C48.4859441,19.2 48.2277095,19.3008 48.012514,19.5024 C47.7973184,19.704 47.6968939,19.9632 47.6968939,20.28 C47.6968939,20.5968 47.7973184,20.856 48.012514,21.072 C48.2277095,21.2736 48.4859441,21.3744 48.8015642,21.3744 C49.1171844,21.3744 49.375419,21.2736 49.5906145,21.072 C49.8058101,20.8704 49.920581,20.5968 49.920581,20.28 C49.920581,19.9632 49.8058101,19.704 49.6049609,19.5024 C49.3897654,19.3008 49.1171844,19.2 48.8015642,19.2 Z M47.9838212,22.2384 L47.9838212,29.6832 L49.6193073,29.6832 L49.6193073,22.2384 L47.9838212,22.2384 Z M55.6591285,22.0368 C55.2143911,22.0368 54.8126927,22.1232 54.4396872,22.3104 C54.0810279,22.4832 53.7510615,22.7568 53.4641341,23.1024 L53.4641341,22.2384 L51.828648,22.2384 L51.828648,29.6832 L53.4641341,29.6832 L53.4641341,25.2048 C53.5215196,24.6144 53.7223687,24.1536 54.0666816,23.8368 C54.3679553,23.5488 54.7266145,23.4048 55.1283128,23.4048 C56.2473296,23.4048 56.806838,24.0096 56.806838,25.2336 L56.806838,29.6832 L58.442324,29.6832 L58.442324,25.0896 C58.442324,23.0448 57.5098101,22.0368 55.6591285,22.0368 Z M63.147933,22.0368 C62.2297654,22.0368 61.4981006,22.224 60.9385922,22.6272 C60.3647374,23.0016 60.0921564,23.5344 60.0921564,24.2256 C60.0921564,24.8736 60.3790838,25.3776 60.9529385,25.7376 C61.3115978,25.968 61.9284916,26.184 62.8036201,26.3856 C63.5496313,26.5584 64.0374078,26.688 64.2669497,26.8032 C64.6973408,27.0048 64.9125363,27.2784 64.9125363,27.624 C64.9125363,28.2288 64.3386816,28.5456 63.1909721,28.5456 C62.6458101,28.5456 62.2584581,28.4448 62.0145698,28.272 C61.7706816,28.0704 61.5985251,27.7392 61.5124469,27.264 L59.92,27.264 C60.0778101,29.0064 61.1824804,29.8848 63.2483575,29.8848 C65.4720447,29.8848 66.5910615,29.0928 66.5910615,27.5088 C66.5910615,26.8464 66.2897877,26.3136 65.7015866,25.9392 C65.2998883,25.6656 64.668648,25.4352 63.8365587,25.2336 C63.0905475,25.0464 62.6027709,24.9024 62.3588827,24.8016 C61.9571844,24.6288 61.7706816,24.4128 61.7706816,24.1824 C61.7706816,23.8944 61.8854525,23.6928 62.1436872,23.5632 C62.3588827,23.4336 62.6888492,23.376 63.1192402,23.376 C63.6213631,23.376 63.9943687,23.448 64.238257,23.6064 C64.4677989,23.7504 64.6399553,24.024 64.7547263,24.3984 L66.3471732,24.3984 C66.1750168,22.8144 65.0990391,22.0368 63.147933,22.0368 Z M70.3928492,19.8336 L68.7573631,20.5104 L68.7573631,22.2384 L67.4231508,22.2384 L67.4231508,23.592 L68.7573631,23.592 L68.7573631,27.7968 C68.7573631,28.4016 68.9008268,28.848 69.1877542,29.1648 C69.4890279,29.5104 69.9624581,29.6832 70.6080447,29.6832 L71.8561788,29.6832 L71.8561788,28.3296 L70.8806257,28.3296 C70.7084693,28.3296 70.5936983,28.2864 70.5076201,28.2 C70.4215419,28.0992 70.3928492,27.9696 70.3928492,27.7968 L70.3928492,23.592 L72.0426816,23.592 L72.0426816,22.2384 L70.3928492,22.2384 L70.3928492,19.8336 Z M76.9491397,22.0368 C76.4900559,22.0368 76.1027039,22.1664 75.7727374,22.44 C75.5001564,22.6416 75.2706145,22.9296 75.0697654,23.304 L75.0697654,22.2384 L73.4486257,22.2384 L73.4486257,29.6832 L75.0697654,29.6832 L75.0697654,25.7376 C75.0697654,25.104 75.2562682,24.6 75.6579665,24.2112 C76.0022793,23.8656 76.3896313,23.7072 76.8200223,23.7072 C77.1643352,23.7072 77.508648,23.7504 77.8816536,23.8656 L77.8816536,22.224 C77.623419,22.0944 77.3077989,22.0368 76.9491397,22.0368 Z M82.1568715,22.0368 C83.3763128,22.0368 84.3088268,22.44 84.9544134,23.2752 C85.5426145,24.024 85.8438883,25.0752 85.8438883,26.4144 L80.2918436,26.4144 C80.3492291,27.1056 80.5357318,27.6384 80.851352,27.9984 C81.1669721,28.3584 81.6260559,28.5456 82.214257,28.5456 C82.7163799,28.5456 83.1180782,28.4304 83.4336983,28.2 C83.6775866,28.0128 83.8927821,27.7104 84.0936313,27.2928 L85.7291173,27.2928 C85.5569609,27.984 85.212648,28.5744 84.6961788,29.0352 C84.0362458,29.5968 83.2185028,29.8848 82.2286034,29.8848 C81.123933,29.8848 80.2488045,29.5392 79.6032179,28.8624 C78.9145922,28.1568 78.5702793,27.192 78.5702793,25.9536 C78.5702793,24.8448 78.8858994,23.9232 79.5458324,23.1744 C80.1770726,22.4112 81.0522011,22.0368 82.1568715,22.0368 Z M82.1999106,23.376 C81.6547486,23.376 81.2387039,23.52 80.9230838,23.8368 C80.6218101,24.1392 80.4209609,24.5856 80.3205363,25.176 L84.1366704,25.176 C83.9932067,23.9664 83.3476201,23.376 82.1999106,23.376 Z M90.6929609,22.0368 C91.7832849,22.0368 92.6010279,22.3104 93.1174972,22.8576 C93.576581,23.3328 93.8061229,24.024 93.8061229,24.9312 L93.8061229,29.6832 L92.2854078,29.6832 L92.2854078,28.704 C91.9984804,29.0784 91.6398212,29.352 91.2237765,29.5536 C90.7503464,29.7696 90.190838,29.8848 89.5452514,29.8848 C88.7705475,29.8848 88.168,29.6832 87.7232626,29.2944 C87.2641788,28.8912 87.0346369,28.3872 87.0346369,27.768 C87.0346369,26.9328 87.350257,26.2848 88.0101899,25.8384 C88.6127374,25.4064 89.4591732,25.176 90.5494972,25.1472 L92.1706369,25.104 L92.1706369,24.816 C92.1706369,23.8368 91.6398212,23.3616 90.5781899,23.3616 C90.1191061,23.3616 89.7604469,23.4336 89.4878659,23.6064 C89.1722458,23.7936 88.9570503,24.0816 88.8709721,24.4704 L87.2498324,24.3408 C87.4076425,23.52 87.8093408,22.9152 88.4549274,22.5408 C89.0000894,22.1952 89.7461006,22.0368 90.6929609,22.0368 Z M92.1706369,26.2848 L90.6642682,26.328 C89.3587486,26.3568 88.713162,26.8176 88.713162,27.7104 C88.713162,27.9696 88.8135866,28.1856 89.0431285,28.3584 C89.2726704,28.5312 89.5595978,28.632 89.918257,28.632 C90.5494972,28.632 91.0803128,28.4448 91.5107039,28.0848 C91.941095,27.7104 92.1706369,27.2352 92.1706369,26.6592 L92.1706369,26.2848 Z M99.3581676,22.0368 C98.6408492,22.0368 97.9665698,22.3536 97.349676,23.0016 L97.349676,22.2384 L95.7141899,22.2384 L95.7141899,29.6832 L97.349676,29.6832 L97.349676,25.2192 C97.349676,24.7296 97.4931397,24.2976 97.780067,23.952 C98.0669944,23.5776 98.44,23.4048 98.9134302,23.4048 C99.8889832,23.4048 100.37676,23.9664 100.37676,25.104 L100.37676,29.6832 L102.012246,29.6832 L102.012246,25.1328 C102.012246,24.5856 102.141363,24.168 102.428291,23.8656 C102.700872,23.5488 103.030838,23.4048 103.432536,23.4048 C104.006391,23.4048 104.408089,23.5344 104.666324,23.808 C104.910212,24.0672 105.03933,24.4992 105.03933,25.0896 L105.03933,29.6832 L106.674816,29.6832 L106.674816,24.8016 C106.674816,23.9808 106.416581,23.3184 105.928804,22.8 C105.412335,22.2816 104.781095,22.0368 104.020737,22.0368 C103.518615,22.0368 103.10257,22.1232 102.772603,22.296 C102.399598,22.4688 102.040939,22.7856 101.696626,23.2464 C101.223196,22.44 100.448492,22.0368 99.3581676,22.0368 Z" id="Pinstream" fill="#9B9B9B"></path>
            </g>
        </g>
    </g>
</svg>