<?xml version="1.0" encoding="UTF-8"?>
<svg width="97px" height="42px" viewBox="0 0 97 42" version="1.1" xmlns="http://www.w3.org/2000/svg" xmlns:xlink="http://www.w3.org/1999/xlink">
    <!-- Generator: Sketch 42 (36781) - http://www.bohemiancoding.com/sketch -->
    <title>VDS</title>
    <desc>Created with Sketch.</desc>
    <defs></defs>
    <g id="pc" stroke="none" stroke-width="1" fill="none" fill-rule="evenodd">
        <g id="1.0-首頁" transform="translate(-215.000000, -1045.000000)" fill="#FFFFFF">
            <g id="五大解决方案" transform="translate(0.000000, 788.000000)">
                <g id="解決方案圓餅圖" transform="translate(214.000000, 80.000000)">
                    <g id="Group-44" transform="translate(0.000000, 138.000000)">
                        <g id="Group-43" transform="translate(0.362573, 38.339181)">
                            <g id="正中" transform="translate(0.628055, 0.743666)">
                                <g id="VDS">
                                    <path d="M18.5282667,41.255087 C19.8154041,41.07132 20.8258319,40.8056027 21.5614284,40.4560728 C22.2970249,40.1065428 22.8116294,39.5459291 23.105868,38.7736107 L31.2681717,13.3858171 L32.2003446,10.5156982 C33.8944077,5.34104098 34.7414392,2.49637635 34.7414392,1.98170438 C34.7414392,1.39501558 34.4929015,0.917593695 33.9958261,0.550680384 C33.4987507,0.183767073 32.9553484,0 32.3662451,0 L28.9493212,0 C27.0768369,0 25.9380709,0.621455541 25.5342754,1.86250412 L17.2955949,30.7884347 L9.06505279,1.99908775 C8.6268251,0.666776474 7.51122261,0 5.72012344,0 L2.3201026,0 C1.76793571,0 1.24331456,0.184387908 0.746239153,0.551301219 C0.248537704,0.918835365 0,1.39749892 0,1.98542939 C0,2.61060994 0.828876374,5.4596204 2.48600308,10.5337025 C2.72264604,11.2675291 3.17902887,12.6817905 3.85577764,14.7777285 C4.53190036,16.8730456 5.08406725,18.5846869 5.5122783,19.9120315 L11.6336931,38.7183564 C12.1119873,40.0786053 13.5831803,40.924803 16.0460199,41.255087 C16.4873778,41.3289664 17.314376,41.3289664 18.5282667,41.255087" id="Fill-1"></path>
                                    <path d="M65.2832151,31.7109951 L65.2832151,9.26533715 C65.2832151,6.80248587 64.4180285,4.6419811 62.6876551,2.78568533 C60.9560297,0.92876872 58.6353011,0 55.7267213,0 L39.0984846,0 C38.5463177,0 38.0573808,0.165762866 37.6348041,0.496667765 C37.2109753,0.826951828 37,1.2503611 37,1.76503307 L37,39.2125409 C37,39.6899627 37.1928202,40.1040595 37.5797126,40.4529686 C37.9666051,40.8024985 38.471819,40.9763323 39.0984846,40.9763323 L55.7267213,40.9763323 C58.6353011,40.9763323 60.9560297,40.0481844 62.6876551,38.1912678 C64.4180285,36.3355928 65.2832151,34.1750881 65.2832151,31.7109951 Z M55.6716298,32.8142184 C55.3404549,33.2556319 54.8609086,33.4760282 54.2354951,33.4760282 L46.1145099,33.4760282 L46.1145099,7.44567063 L54.2354951,7.44567063 C54.8609086,7.44567063 55.3404549,7.66606695 55.6716298,8.10748042 C56.0028047,8.5488939 56.1687052,9.02631579 56.1687052,9.54098776 L56.1687052,31.380711 C56.1687052,31.895383 56.0028047,32.3734257 55.6716298,32.8142184" id="Fill-4"></path>
                                    <path d="M93.8594048,39.2392368 C95.3324759,38.08138 96.0686984,36.417543 96.0686984,34.2477257 L96.0686984,28.346071 C96.0686984,27.4278565 96.0317621,26.6555381 95.9591415,26.0297367 C95.8840167,25.405177 95.6999611,24.6514837 95.4063485,23.7686567 C95.1108579,22.8858298 94.5956273,22.1054405 93.8594048,21.4250057 C93.1219302,20.7445709 92.1828709,20.1659529 91.0416007,19.6872894 L78.2810364,14.5591947 C78.0224821,14.486557 77.894144,14.0271393 77.894144,13.1803208 L77.894144,8.3825102 C77.894144,7.79520057 78.0957287,7.50030408 78.5020284,7.50030408 L93.1413374,7.50030408 C93.656568,7.50030408 94.1260976,7.33454122 94.5499264,7.00363632 C94.9725031,6.67273142 95.1853566,6.25056382 95.1853566,5.73527101 L95.1853566,1.82028736 C95.1853566,1.34224463 94.9919104,0.918835365 94.6050179,0.551922054 C94.2181255,0.184387908 93.7298146,0 93.1413374,0 L76.2921088,0 C74.3394914,0 72.6372898,0.587930467 71.1817479,1.76503307 C69.7268319,2.94151484 69,4.63266858 69,6.83911512 L69,13.1803208 C69,17.5925931 70.8230272,20.5347287 74.4684555,22.0042445 L86.5122045,27.0230722 C86.9166261,27.2074602 87.1194629,27.7221321 87.1194629,28.567709 L87.1194629,32.8135975 C87.1194629,33.255011 86.9717176,33.4760282 86.677479,33.4760282 L71.4309116,33.4760282 C70.8781187,33.4760282 70.3898078,33.6411702 69.9666051,33.9726959 C69.5427763,34.30298 69.3311749,34.7263893 69.3311749,35.2410612 L69.3311749,39.1560449 C69.3311749,39.6347085 69.5252472,40.0574969 69.9115136,40.4244102 C70.298406,40.7925652 70.804246,40.9763323 71.4309116,40.9763323 L88.7214981,40.9763323 C90.6734895,40.9763323 92.3857077,40.3977143 93.8594048,39.2392368" id="Fill-7"></path>
                                </g>
                            </g>
                        </g>
                    </g>
                </g>
            </g>
        </g>
    </g>
</svg>