<?xml version="1.0" encoding="UTF-8"?>
<svg width="540px" height="540px" viewBox="0 0 540 540" version="1.1" xmlns="http://www.w3.org/2000/svg" xmlns:xlink="http://www.w3.org/1999/xlink">
    <!-- Generator: Sketch 43 (38999) - http://www.bohemiancoding.com/sketch -->
    <title>ills-vds-fitamos</title>
    <desc>Created with Sketch.</desc>
    <defs>
        <path d="M132.646501,265.198585 C59.3878616,265.198585 0,205.831859 0,132.599292 C0,59.3667254 59.3878616,0 132.646501,0 C205.905141,0 265.293003,59.3667254 265.293003,132.599292 C265.293003,205.831859 205.905141,265.198585 132.646501,265.198585 Z M91.9626879,15.664768 C91.9626879,15.664768 81.1365952,18.0700626 78.3422872,23.0350135 C75.5479792,27.9999644 75.7996996,37.8569144 73.6061361,40.4969234 C71.4125726,43.1369324 63.5098211,42.5120845 58.770497,46.1385286 C54.031173,49.7649727 56.8519222,54.0078066 53.4748497,57.3477299 C50.0977772,60.6876532 45.9253529,63.9377083 35.253677,63.9377083 C24.5820011,63.9377083 19.4164445,82.0931889 28.7914431,97.7492776 C38.1664417,113.405366 16.9637571,116.892251 16.9637571,116.892251 C16.9637571,116.892251 2.72040131,120.98178 11.6406109,131.743755 C20.5608205,142.50573 31.1870175,139.331799 32.6106128,150.198444 C34.034208,161.065089 29.5582384,161.447821 33.4948071,165.854532 C37.4313758,170.261243 42.1622386,171.714993 38.7079578,180.131938 C35.253677,188.548883 33.4683659,189.288974 36.6793875,200.077381 C39.8904091,210.865788 43.6291975,223.801515 62.5304384,223.801515 C81.4316792,223.801515 76.3581382,225.035351 85.1197004,230.469731 C93.8812627,235.904111 94.9833327,243.320876 107.451954,243.320876 C119.920575,243.320876 116.50437,252.62593 130.646191,248.78486 C144.788013,244.943789 154.077342,222.620541 178.677194,229.270784 C203.277046,235.921027 206.677387,233.885778 208.236361,220.538772 C209.795336,207.191766 215.674805,202.99228 228.767439,200.294121 C241.860073,197.595962 237.888602,192.641584 237.888602,192.641584 C237.888602,192.641584 249.591485,191.804225 244.924081,182.99186 C240.256677,174.179495 229.849414,164.985455 245.318584,152.026468 C260.787755,139.06748 258.638613,126.95854 249.043623,119.341951 C239.448634,111.725361 242.048334,111.930471 243.683459,99.4345697 C245.318584,86.938668 234.603545,90.4583276 234.603545,81.7834081 C234.603545,73.1084886 242.389955,63.3350631 231.839909,55.5355651 C221.289862,47.7360671 223.698128,44.8497136 207.747728,47.4231145 C191.797327,49.9965153 192.854975,43.8601067 188.643418,35.685277 C184.431861,27.5104473 179.014584,33.1626252 173.076944,34.4239511 C167.139304,35.685277 160.109112,41.237014 147.424731,25.6676216 C134.740349,10.0982292 127.140085,27.0864811 121.999912,27.0864811 C116.85974,27.0864811 114.381669,25.5661235 110.916811,19.8610819 C107.451954,14.1560404 91.9626879,15.664768 91.9626879,15.664768 Z" id="path-1"></path>
        <path d="M132.646501,265.198585 C59.3878616,265.198585 -6.25277607e-13,205.831859 -6.25277607e-13,132.599292 C-6.25277607e-13,59.3667254 59.3878616,-4.54747351e-13 132.646501,-4.54747351e-13 C205.905141,-4.54747351e-13 265.293003,59.3667254 265.293003,132.599292 C265.293003,205.831859 205.905141,265.198585 132.646501,265.198585 Z M91.929428,15.5691715 C91.929428,15.5691715 81.0944848,17.9764324 78.2978923,22.9454423 C75.5012999,27.9144521 75.7532261,37.7794604 73.5578693,40.4216277 C71.3625125,43.063795 63.4533003,42.4384362 58.7101018,46.067845 C53.9669032,49.6972538 56.7899585,53.9435563 53.4101252,57.2862101 C50.0302919,60.6288638 45.8544565,63.881576 35.1740562,63.881576 C24.493656,63.881576 19.3238765,82.051899 28.7065393,97.720787 C38.0892021,113.389675 16.8691839,116.87941 16.8691839,116.87941 C16.8691839,116.87941 2.61418387,120.972282 11.5416859,131.743056 C20.469188,142.513829 31.1040722,139.337303 32.5288312,150.212831 C33.9535903,161.08836 29.4739615,161.471406 33.4137484,165.881719 C37.3535353,170.292033 42.0882658,171.746971 38.631161,180.170797 C35.1740562,188.594623 33.3872856,189.335319 36.6009323,200.132545 C39.814579,210.929772 43.5564239,223.876074 62.4731169,223.876074 C81.38981,223.876074 76.3121212,225.11092 85.0808462,230.549742 C93.8495713,235.988565 94.9525423,243.411394 107.431357,243.411394 C119.910171,243.411394 116.491173,252.724055 130.644556,248.879844 C144.797938,245.035634 154.094862,222.694136 178.714825,229.349815 C203.334788,236.005495 206.737909,233.968582 208.298158,220.610665 C209.858406,207.252747 215.742682,203.049828 228.84602,200.349463 C241.949357,197.649099 237.974639,192.69067 237.974639,192.69067 C237.974639,192.69067 249.68709,191.852626 245.015871,183.033057 C240.344651,174.213487 229.928879,165.011931 245.410696,152.04235 C260.892513,139.072768 258.741614,126.953929 249.13878,119.331112 C239.535947,111.708296 242.137773,111.913574 243.774234,99.4074568 C245.410696,86.9013394 234.686897,90.4238764 234.686897,81.741865 C234.686897,73.0598535 242.479673,63.2784381 231.921001,55.4725638 C221.36233,47.6666895 223.772565,44.7779764 207.809124,47.3534811 C191.845684,49.9289857 192.904197,43.7875605 188.689197,35.6060477 C184.474196,27.4245349 179.052491,33.0813335 173.109997,34.3436906 C167.167502,35.6060477 160.131564,41.1623234 147.436812,25.5802026 C134.742061,9.99808189 127.135584,27.000222 121.991209,27.000222 C116.846834,27.000222 114.366737,25.4786215 110.899047,19.768916 C107.431357,14.0592105 91.929428,15.5691715 91.929428,15.5691715 Z" id="path-3"></path>
        <path d="M17.3583997,4.5185956 C17.3583997,6.5940244 15.6759892,8.2764349 13.6005604,8.2764349 C11.5252266,8.2764349 9.8427211,6.5940244 9.8427211,4.5185956 C9.8427211,2.4431669 11.5252266,0.7607563 13.6005604,0.7607563 C15.6759892,0.7607563 17.3583997,2.4431669 17.3583997,4.5185956 Z M26.0385031,20.7405742 C27.8983818,24.6762741 34.8621166,26.7694769 38.8018895,24.4652069 C41.6446486,22.8038763 44.3418078,26.7341485 41.5234756,28.4079352 C39.6809429,29.5022018 37.1917166,30.284003 34.8165068,30.3529893 C31.2213614,30.4574077 26.1479879,28.9134005 24.1147039,26.3331667 C20.8548382,27.3125465 14.4805473,32.1015364 14.3241566,32.1896546 C13.1689356,34.5740665 10.986346,37.7827692 9.2024743,41.0967677 C7.4186026,44.4107661 3.1989154,41.5376648 4.5036904,38.8405665 C5.7183532,36.3292948 8.8021954,31.2512567 10.0168582,28.7398901 C10.261462,28.2345402 16.7016568,23.9416406 18.8019637,22.8677009 C17.380869,20.1156237 16.6232665,18.4385804 15.0652469,15.7628469 C10.1002462,17.2839291 4.674478,15.6357009 1.3131703,10.9277431 C-0.4262132,8.4914857 3.5930369,6.1821831 5.3130496,8.5903338 C7.9475726,12.2806602 11.4752413,12.7078622 15.2712525,10.4542031 C15.5296247,10.3009459 16.6761099,9.6693061 16.9300193,9.5185177 C23.0364725,5.8932354 29.136184,7.3149948 33.2268401,13.0437176 C34.9655589,15.4798799 30.9449794,17.7891825 29.2262961,15.3810319 C27.1127905,12.4212883 24.4250926,11.5650802 21.4860493,12.5026647 C22.6803455,15.4694764 25.960925,20.4272231 26.0385031,20.7405742 Z" id="path-5"></path>
        <path d="M26.4577296,46.0629435 L25.0485128,51.4563594 C24.5192041,53.2828184 21.983955,55.5103238 19.9539493,55.8436458 L11.6756225,57.2029269 C5.57092326,58.2053036 0.34379466,64.0900222 -2.27373675e-13,70.3559995 L69.0516274,70.3559995 C67.3337823,64.4420162 61.0143974,58.7288263 54.9347294,57.5948304 L45.9696008,55.9226306 C43.9439844,55.5448072 41.5478148,53.4963781 40.892681,51.4563594 L39.4834641,46.0629435 C42.4395849,44.154448 45.0803768,39.7309995 45.8260996,35.5262471 C47.0018196,35.8048811 50.6373828,31.3692736 51.2802709,28.3067596 C51.9231591,25.2442457 48.5275412,23.1413752 48.1429081,23.1287617 L48.8358589,14.2649007 C48.8358589,-4.93188128 17.1053348,-4.57722587 17.1053348,14.2649007 L17.7978853,23.1228169 C17.4363066,23.1413752 14.0498981,25.2442457 14.6927862,28.3067596 C15.3356744,31.3692736 18.9712375,35.8048811 19.9794212,35.5878952 C20.8825485,39.7384284 22.9412822,43.5785684 26.4577296,46.0629435 Z" id="path-7"></path>
        <rect id="path-9" x="0" y="0" width="35.2432432" height="28.2980695"></rect>
        <rect id="path-11" x="0" y="0" width="35.2432432" height="28.2980695"></rect>
        <rect id="path-13" x="1" y="1" width="33.2432432" height="26.2980695" rx="1.9"></rect>
        <rect id="path-15" x="1" y="1" width="33.2432432" height="26.2980695" rx="1.9"></rect>
        <rect id="path-17" x="0" y="0" width="33.2432432" height="26.2980695" rx="1.9"></rect>
        <polygon id="path-19" points="20.2731257 27.689305 28.4686288 35.8848082 46.1376442 18.2157927 28.269401 0.3475495 18.6279406 9.9890099 14.337806 5.6988754 0.53061501 19.5060664 14.4934896 33.468941"></polygon>
        <rect id="path-21" x="0" y="0" width="33.2432432" height="26.2980695" rx="1.9"></rect>
        <rect id="path-23" x="0" y="0" width="3.39758926" height="3.40240964"></rect>
        <ellipse id="path-25" cx="1.6987946" cy="1.70120482" rx="1" ry="1"></ellipse>
        <rect id="path-27" x="0" y="0" width="60" height="79" rx="2"></rect>
        <rect id="path-29" x="0" y="0" width="68" height="97" rx="4"></rect>
        <rect id="path-31" x="0" y="0" width="35" height="68" rx="4"></rect>
        <rect id="path-33" x="0" y="0" width="29" height="49" rx="0.648"></rect>
    </defs>
    <g id="Page-1" stroke="none" stroke-width="1" fill="none" fill-rule="evenodd">
        <g id="ills-vds-fitamos">
            <polygon id="Shape" fill="#FFFFFF" fill-rule="nonzero" points="0 0 540 0 540 540 0 540"></polygon>
            <g id="fitamos-center-ball" transform="translate(39.000000, 57.000000)">
                <g id="基底" transform="translate(44.000000, 47.000000)">
                    <g id="Page-1" opacity="0.366904438" transform="translate(47.714590, 45.899755)" stroke="#616161" stroke-width="0.74844">
                        <path d="M141.376342,282.765158 L141.376342,0" id="Stroke-1"></path>
                        <path d="M151.241995,282.420043 L131.510689,0.34483211" id="Stroke-3"></path>
                        <path d="M161.059561,281.388657 L121.693123,1.37621802" id="Stroke-5"></path>
                        <path d="M170.781659,279.675241 L111.971024,3.08991626" id="Stroke-8"></path>
                        <path d="M180.360062,277.287997 L102.390925,5.47716111" id="Stroke-9"></path>
                        <path d="M189.749369,274.238092 L93.0021834,8.52650057" id="Stroke-10"></path>
                        <path d="M198.901069,270.540513 L83.8482208,12.2232309" id="Stroke-11"></path>
                        <path d="M207.773721,266.214772 L74.9752854,16.5486895" id="Stroke-12"></path>
                        <path d="M216.321926,261.280237 L66.4270801,21.4826587" id="Stroke-13"></path>
                        <path d="M224.505376,255.761651 L58.2410844,27.0018104" id="Stroke-14"></path>
                        <path d="M232.284187,249.686583 L50.4608597,33.0771612" id="Stroke-15"></path>
                        <path d="M239.619746,243.084158 L43.1241687,39.6798691" id="Stroke-16"></path>
                        <path d="M246.475848,235.986045 L36.2669352,46.7793953" id="Stroke-17"></path>
                        <path d="M252.820953,228.426743 L29.9212646,54.3395459" id="Stroke-18"></path>
                        <path d="M258.62338,220.443576 L24.1177064,62.3227132" id="Stroke-19"></path>
                        <path d="M263.855266,212.075282 L18.8863857,70.6927033" id="Stroke-20"></path>
                        <path d="M268.490447,203.361732 L14.2520534,79.4059702" id="Stroke-21"></path>
                        <path d="M272.505586,194.346472 L10.2366315,88.4212304" id="Stroke-22"></path>
                        <path d="M275.881166,185.073754 L6.86020354,97.6936654" id="Stroke-23"></path>
                        <path d="M278.602193,175.588397 L4.13889283,107.180436" id="Stroke-24"></path>
                        <path d="M280.654526,165.936067 L2.08684266,116.832484" id="Stroke-25"></path>
                        <path d="M282.02883,156.164269 L0.713104758,126.605413" id="Stroke-27"></path>
                        <path d="M282.718033,146.320648 L0.0247507601,136.449317" id="Stroke-29"></path>
                        <path d="M282.718033,136.452144 L0.0247507601,146.317821" id="Stroke-31"></path>
                        <path d="M282.02883,126.607817 L0.714519087,156.162431" id="Stroke-33"></path>
                        <path d="M280.655941,116.836018 L2.08825699,165.93536" id="Stroke-35"></path>
                        <path d="M278.603466,107.18284 L4.14016572,175.587973" id="Stroke-38"></path>
                        <path d="M275.88258,97.6969172 L6.86161787,185.074179" id="Stroke-39"></path>
                        <path d="M272.505586,88.4241994 L10.2380459,194.346614" id="Stroke-40"></path>
                        <path d="M268.490447,79.4096462 L14.2534677,203.362581" id="Stroke-41"></path>
                        <path d="M263.855266,70.6960964 L18.8892144,212.077261" id="Stroke-42"></path>
                        <path d="M258.624794,62.3270961 L24.1205351,220.445131" id="Stroke-43"></path>
                        <path d="M252.822367,54.3439287 L29.922679,228.429712" id="Stroke-44"></path>
                        <path d="M246.477263,46.7846264 L36.2683496,235.988449" id="Stroke-45"></path>
                        <path d="M239.619746,39.686514 L43.125583,243.086561" id="Stroke-46"></path>
                        <path d="M232.282914,33.084089 L50.4624155,249.690683" id="Stroke-47"></path>
                        <path d="M224.504103,27.009021 L58.2412258,255.767447" id="Stroke-48"></path>
                        <path d="M216.320512,21.4904348 L66.4256657,261.283771" id="Stroke-49"></path>
                        <path d="M207.771034,16.5564655 L74.9740126,266.218306" id="Stroke-50"></path>
                        <path d="M198.898381,12.2308655 L83.8469479,270.54532" id="Stroke-51"></path>
                        <path d="M189.745267,8.53399384 L93.0009105,274.241343" id="Stroke-52"></path>
                        <path d="M180.35596,5.48408885 L102.389652,277.290683" id="Stroke-53"></path>
                        <path d="M170.777416,3.09684401 L111.968196,279.677928" id="Stroke-54"></path>
                        <path d="M161.056732,1.38342853 L121.68888,281.39304" id="Stroke-55"></path>
                        <path d="M151.239308,0.352042621 L131.506587,282.42584" id="Stroke-57"></path>
                    </g>
                    <g id="Group-22">
                        <g id="Group-21" transform="translate(56.217570, 54.399710)">
                            <path d="M265.770709,133.137623 C265.770709,206.367792 206.38487,265.736915 133.124207,265.736915 C59.8635447,265.736915 0.477705968,206.367792 0.477705968,133.137623 C0.477705968,59.9059803 59.8635447,0.538330461 133.124207,0.538330461 C206.38487,0.538330461 265.770709,59.9059803 265.770709,133.137623" id="Fill-59" stroke="#D0D0D0" stroke-width="0.74844" fill="#FFFFFF" fill-rule="nonzero"></path>
                            <g id="Group-25" opacity="0.281363225" transform="translate(0.477706, 0.538330)">
                                <g id="Group-24-Clipped">
                                    <mask id="mask-2" fill="white">
                                        <use xlink:href="#path-1"></use>
                                    </mask>
                                    <g id="path-1"></g>
                                    <g id="Group-24" mask="url(#mask-2)" stroke="#BFBFBF" stroke-width="0.74844">
                                        <path d="M132.644858,265.198585 L132.644858,0" id="Stroke-1"></path>
                                        <path d="M137.274447,265.117779 L128.015835,0.0812595664" id="Stroke-3"></path>
                                        <path d="M141.897915,264.875417 L123.392027,0.323394941" id="Stroke-5"></path>
                                        <path d="M146.510328,264.472009 L118.77984,0.726916121" id="Stroke-7"></path>
                                        <path d="M151.106189,263.908122 L114.183979,1.29125644" id="Stroke-10"></path>
                                        <path d="M155.679263,263.184266 L109.610679,2.01522591" id="Stroke-11"></path>
                                        <path d="M160.224163,262.301064 L105.065893,2.89831453" id="Stroke-12"></path>
                                        <path d="M164.735844,261.259592 L100.554211,3.93989898" id="Stroke-13"></path>
                                        <path d="M169.208185,260.061552 L96.0819832,5.13771258" id="Stroke-14"></path>
                                        <path d="M173.636311,258.708529 L91.6545377,6.49107536" id="Stroke-15"></path>
                                        <path d="M178.013986,257.201657 L87.2769764,7.99828732" id="Stroke-16"></path>
                                        <path d="M182.336334,255.543146 L82.9546278,9.65702513" id="Stroke-17"></path>
                                        <path d="M186.598369,253.734696 L78.6932739,11.4655888" id="Stroke-18"></path>
                                        <path d="M190.794476,251.779083 L74.4969395,13.421655" id="Stroke-19"></path>
                                        <path d="M194.919782,249.677894 L70.3715199,15.5228438" id="Stroke-20"></path>
                                        <path d="M198.969185,247.433906 L66.322117,17.7668319" id="Stroke-21"></path>
                                        <path d="M202.93781,245.050462 L62.3534924,20.1507291" id="Stroke-22"></path>
                                        <path d="M206.821178,242.529829 L58.4702377,22.6717023" id="Stroke-23"></path>
                                        <path d="M210.613734,239.875237 L54.6770013,25.3267482" id="Stroke-24"></path>
                                        <path d="M214.311114,237.090085 L50.9796218,28.1119" id="Stroke-25"></path>
                                        <path d="M217.909348,234.177094 L47.3815004,31.0247778" id="Stroke-26"></path>
                                        <path d="M221.403563,231.140683 L43.8873988,34.0613016" id="Stroke-27"></path>
                                        <path d="M224.789791,227.984707 L40.5012851,37.2185247" id="Stroke-28"></path>
                                        <path d="M228.063665,224.711998 L37.2278642,40.4907806" id="Stroke-29"></path>
                                        <path d="M231.221275,221.327542 L34.0700272,43.8762559" id="Stroke-30"></path>
                                        <path d="M234.258767,217.834571 L31.0324223,47.3691139" id="Stroke-31"></path>
                                        <path d="M237.172852,214.237617 L28.119131,50.9659547" id="Stroke-32"></path>
                                        <path d="M239.959562,210.540986 L25.3329876,54.662585" id="Stroke-33"></path>
                                        <path d="M242.61561,206.749213 L22.6775066,58.4539047" id="Stroke-34"></path>
                                        <path d="M245.137197,202.867227 L20.1556926,62.3357774" id="Stroke-35"></path>
                                        <path d="M247.522,198.900072 L17.7714568,66.3030462" id="Stroke-36"></path>
                                        <path d="M249.76622,194.852054 L15.5266698,70.3515179" id="Stroke-37"></path>
                                        <path d="M251.868157,190.727706 L13.4247329,74.4749592" id="Stroke-38"></path>
                                        <path d="M253.825033,186.533035 L11.4679703,78.6697435" id="Stroke-39"></path>
                                        <path d="M255.634127,182.272574 L9.65876271,82.9302041" id="Stroke-40"></path>
                                        <path d="M257.293795,177.951764 L8.0000012,87.2510144" id="Stroke-41"></path>
                                        <path d="M258.801204,173.57559 L6.49225264,91.626961" id="Stroke-42"></path>
                                        <path d="M260.154652,169.149664 L5.1389182,96.0534541" id="Stroke-43"></path>
                                        <path d="M261.353175,164.679141 L3.94016796,100.52375" id="Stroke-44"></path>
                                        <path d="M262.39445,160.169349 L2.89877955,105.033543" id="Stroke-45"></path>
                                        <path d="M263.277967,155.626066 L2.01537652,109.577279" id="Stroke-46"></path>
                                        <path d="M264.00208,151.054621 L1.29171617,114.148951" id="Stroke-47"></path>
                                        <path d="M264.566168,146.460678 L0.726608058,118.742326" id="Stroke-48"></path>
                                        <path d="M264.96972,141.849906 L0.323510079,123.352872" id="Stroke-50"></path>
                                        <path d="M265.211601,137.228084 L0.0807216317,127.975034" id="Stroke-52"></path>
                                        <path d="M265.292436,132.600426 L0,132.602692" id="Stroke-54"></path>
                                        <path d="M265.211601,127.97271 L0.0807216317,137.230294" id="Stroke-56"></path>
                                        <path d="M264.969153,123.350605 L0.323510079,141.852173" id="Stroke-58"></path>
                                        <path d="M264.565601,118.739833 L0.726608058,146.463285" id="Stroke-60"></path>
                                        <path d="M264.001514,114.145948 L1.2911493,151.056717" id="Stroke-63"></path>
                                        <path d="M263.276889,109.574729 L2.01486635,155.62805" id="Stroke-64"></path>
                                        <path d="M262.393373,105.031446 L2.89883624,160.171219" id="Stroke-65"></path>
                                        <path d="M261.351531,100.521937 L3.94022465,164.681295" id="Stroke-66"></path>
                                        <path d="M260.153008,96.0514141 L5.13840802,169.151591" id="Stroke-67"></path>
                                        <path d="M258.799503,91.6252044 L6.49168577,173.5778" id="Stroke-68"></path>
                                        <path d="M257.292095,87.2490311 L7.99943434,177.954314" id="Stroke-69"></path>
                                        <path d="M255.63305,82.9282208 L9.65825253,182.275124" id="Stroke-70"></path>
                                        <path d="M253.824522,78.6677602 L11.4674601,186.535585" id="Stroke-71"></path>
                                        <path d="M251.868157,74.4730892 L13.4241661,190.730369" id="Stroke-72"></path>
                                        <path d="M249.76622,70.3493079 L15.5261029,194.854377" id="Stroke-73"></path>
                                        <path d="M247.521433,66.3012895 L17.7708899,198.902282" id="Stroke-74"></path>
                                        <path d="M245.13663,62.334134 L20.1551257,202.869551" id="Stroke-75"></path>
                                        <path d="M242.615043,58.4526581 L22.6775066,206.751367" id="Stroke-76"></path>
                                        <path d="M239.959562,54.6614516 L25.3335544,210.542686" id="Stroke-77"></path>
                                        <path d="M237.173362,50.9651614 L28.120208,214.238523" id="Stroke-78"></path>
                                        <path d="M234.2599,47.3684339 L31.0341229,217.835591" id="Stroke-79"></path>
                                        <path d="M231.222409,43.8754625 L34.0722946,221.328449" id="Stroke-80"></path>
                                        <path d="M228.064799,40.4904406 L37.2301316,224.713358" id="Stroke-81"></path>
                                        <path d="M224.790924,37.2177314 L40.5035525,227.985613" id="Stroke-82"></path>
                                        <path d="M221.40464,34.0612449 L43.8901764,231.142327" id="Stroke-83"></path>
                                        <path d="M217.910482,31.0248344 L47.3849016,234.179417" id="Stroke-84"></path>
                                        <path d="M214.312191,28.11241 L50.9829663,237.091728" id="Stroke-85"></path>
                                        <path d="M210.614301,25.3269182 L54.6809693,239.877107" id="Stroke-86"></path>
                                        <path d="M206.821745,22.672099 L58.4742058,242.531926" id="Stroke-87"></path>
                                        <path d="M202.938377,20.1514091 L62.3568936,245.052842" id="Stroke-88"></path>
                                        <path d="M198.969752,17.7677385 L66.3255182,247.435946" id="Stroke-89"></path>
                                        <path d="M194.920293,15.5240338 L70.3748644,249.680218" id="Stroke-90"></path>
                                        <path d="M190.795043,13.422845 L74.5003407,251.781406" id="Stroke-91"></path>
                                        <path d="M186.598935,11.4666655 L78.6961082,253.737473" id="Stroke-92"></path>
                                        <path d="M182.336901,9.65815846 L82.9585959,255.54598" id="Stroke-93"></path>
                                        <path d="M178.014553,7.99970398 L87.2809445,257.204207" id="Stroke-94"></path>
                                        <path d="M173.636821,6.49283202 L91.6590159,258.711419" id="Stroke-95"></path>
                                        <path d="M169.209319,5.13980924 L96.0865181,260.064216" id="Stroke-96"></path>
                                        <path d="M164.737488,3.94199563 L100.558689,261.262256" id="Stroke-97"></path>
                                        <path d="M160.226373,2.90080785 L105.069804,262.30299" id="Stroke-98"></path>
                                        <path d="M155.68204,2.01788923 L109.614591,263.186362" id="Stroke-99"></path>
                                        <path d="M151.109477,1.29380643 L114.187834,263.910105" id="Stroke-100"></path>
                                        <path d="M146.51424,0.729636106 L118.783185,264.474162" id="Stroke-101"></path>
                                        <path d="M141.902336,0.326228259 L123.395882,264.877683" id="Stroke-103"></path>
                                        <path d="M137.278869,0.0838095528 L128.019123,265.119762" id="Stroke-105"></path>
                                    </g>
                                </g>
                            </g>
                        </g>
                        <g id="Group-21" transform="translate(189.040946, 188.115807) rotate(50.000000) translate(-189.040946, -188.115807) translate(55.540946, 54.615807)">
                            <path d="M265.770709,133.137623 C265.770709,206.367792 206.38487,265.736915 133.124207,265.736915 C59.8635447,265.736915 0.477705968,206.367792 0.477705968,133.137623 C0.477705968,59.9059803 59.8635447,0.538330461 133.124207,0.538330461 C206.38487,0.538330461 265.770709,59.9059803 265.770709,133.137623" id="Fill-59"></path>
                            <g id="Group-25" opacity="0.25147192" transform="translate(0.477706, 0.538330)">
                                <g id="Group-24-Clipped">
                                    <mask id="mask-4" fill="white">
                                        <use xlink:href="#path-3"></use>
                                    </mask>
                                    <g id="path-3"></g>
                                    <g id="Group-24" mask="url(#mask-4)" stroke="#BFBFBF" stroke-width="0.74844">
                                        <path d="M132.644858,265.198585 L132.644858,-6.25277607e-13" id="Stroke-1"></path>
                                        <path d="M137.274447,265.117779 L128.015835,0.0812595664" id="Stroke-3"></path>
                                        <path d="M141.897915,264.875417 L123.392027,0.323394941" id="Stroke-5"></path>
                                        <path d="M146.510328,264.472009 L118.77984,0.726916121" id="Stroke-7"></path>
                                        <path d="M151.106189,263.908122 L114.183979,1.29125644" id="Stroke-10"></path>
                                        <path d="M155.679263,263.184266 L109.610679,2.01522591" id="Stroke-11"></path>
                                        <path d="M160.224163,262.301064 L105.065893,2.89831453" id="Stroke-12"></path>
                                        <path d="M164.735844,261.259592 L100.554211,3.93989898" id="Stroke-13"></path>
                                        <path d="M169.208185,260.061552 L96.0819832,5.13771258" id="Stroke-14"></path>
                                        <path d="M173.636311,258.708529 L91.6545377,6.49107536" id="Stroke-15"></path>
                                        <path d="M178.013986,257.201657 L87.2769764,7.99828732" id="Stroke-16"></path>
                                        <path d="M182.336334,255.543146 L82.9546278,9.65702513" id="Stroke-17"></path>
                                        <path d="M186.598369,253.734696 L78.6932739,11.4655888" id="Stroke-18"></path>
                                        <path d="M190.794476,251.779083 L74.4969395,13.421655" id="Stroke-19"></path>
                                        <path d="M194.919782,249.677894 L70.3715199,15.5228438" id="Stroke-20"></path>
                                        <path d="M198.969185,247.433906 L66.322117,17.7668319" id="Stroke-21"></path>
                                        <path d="M202.93781,245.050462 L62.3534924,20.1507291" id="Stroke-22"></path>
                                        <path d="M206.821178,242.529829 L58.4702377,22.6717023" id="Stroke-23"></path>
                                        <path d="M210.613734,239.875237 L54.6770013,25.3267482" id="Stroke-24"></path>
                                        <path d="M214.311114,237.090085 L50.9796218,28.1119" id="Stroke-25"></path>
                                        <path d="M217.909348,234.177094 L47.3815004,31.0247778" id="Stroke-26"></path>
                                        <path d="M221.403563,231.140683 L43.8873988,34.0613016" id="Stroke-27"></path>
                                        <path d="M224.789791,227.984707 L40.5012851,37.2185247" id="Stroke-28"></path>
                                        <path d="M228.063665,224.711998 L37.2278642,40.4907806" id="Stroke-29"></path>
                                        <path d="M231.221275,221.327542 L34.0700272,43.8762559" id="Stroke-30"></path>
                                        <path d="M234.258767,217.834571 L31.0324223,47.3691139" id="Stroke-31"></path>
                                        <path d="M237.172852,214.237617 L28.119131,50.9659547" id="Stroke-32"></path>
                                        <path d="M239.959562,210.540986 L25.3329876,54.662585" id="Stroke-33"></path>
                                        <path d="M242.61561,206.749213 L22.6775066,58.4539047" id="Stroke-34"></path>
                                        <path d="M245.137197,202.867227 L20.1556926,62.3357774" id="Stroke-35"></path>
                                        <path d="M247.522,198.900072 L17.7714568,66.3030462" id="Stroke-36"></path>
                                        <path d="M249.76622,194.852054 L15.5266698,70.3515179" id="Stroke-37"></path>
                                        <path d="M251.868157,190.727706 L13.4247329,74.4749592" id="Stroke-38"></path>
                                        <path d="M253.825033,186.533035 L11.4679703,78.6697435" id="Stroke-39"></path>
                                        <path d="M255.634127,182.272574 L9.65876271,82.9302041" id="Stroke-40"></path>
                                        <path d="M257.293795,177.951764 L8.0000012,87.2510144" id="Stroke-41"></path>
                                        <path d="M258.801204,173.57559 L6.49225264,91.626961" id="Stroke-42"></path>
                                        <path d="M260.154652,169.149664 L5.1389182,96.0534541" id="Stroke-43"></path>
                                        <path d="M261.353175,164.679141 L3.94016796,100.52375" id="Stroke-44"></path>
                                        <path d="M262.39445,160.169349 L2.89877955,105.033543" id="Stroke-45"></path>
                                        <path d="M263.277967,155.626066 L2.01537652,109.577279" id="Stroke-46"></path>
                                        <path d="M264.00208,151.054621 L1.29171617,114.148951" id="Stroke-47"></path>
                                        <path d="M264.566168,146.460678 L0.726608058,118.742326" id="Stroke-48"></path>
                                        <path d="M264.96972,141.849906 L0.323510079,123.352872" id="Stroke-50"></path>
                                        <path d="M265.211601,137.228084 L0.0807216317,127.975034" id="Stroke-52"></path>
                                        <path d="M265.292436,132.600426 L-3.97903932e-13,132.602692" id="Stroke-54"></path>
                                        <path d="M265.211601,127.97271 L0.0807216317,137.230294" id="Stroke-56"></path>
                                        <path d="M264.969153,123.350605 L0.323510079,141.852173" id="Stroke-58"></path>
                                        <path d="M264.565601,118.739833 L0.726608058,146.463285" id="Stroke-60"></path>
                                        <path d="M264.001514,114.145948 L1.2911493,151.056717" id="Stroke-63"></path>
                                        <path d="M263.276889,109.574729 L2.01486635,155.62805" id="Stroke-64"></path>
                                        <path d="M262.393373,105.031446 L2.89883624,160.171219" id="Stroke-65"></path>
                                        <path d="M261.351531,100.521937 L3.94022465,164.681295" id="Stroke-66"></path>
                                        <path d="M260.153008,96.0514141 L5.13840802,169.151591" id="Stroke-67"></path>
                                        <path d="M258.799503,91.6252044 L6.49168577,173.5778" id="Stroke-68"></path>
                                        <path d="M257.292095,87.2490311 L7.99943434,177.954314" id="Stroke-69"></path>
                                        <path d="M255.63305,82.9282208 L9.65825253,182.275124" id="Stroke-70"></path>
                                        <path d="M253.824522,78.6677602 L11.4674601,186.535585" id="Stroke-71"></path>
                                        <path d="M251.868157,74.4730892 L13.4241661,190.730369" id="Stroke-72"></path>
                                        <path d="M249.76622,70.3493079 L15.5261029,194.854377" id="Stroke-73"></path>
                                        <path d="M247.521433,66.3012895 L17.7708899,198.902282" id="Stroke-74"></path>
                                        <path d="M245.13663,62.334134 L20.1551257,202.869551" id="Stroke-75"></path>
                                        <path d="M242.615043,58.4526581 L22.6775066,206.751367" id="Stroke-76"></path>
                                        <path d="M239.959562,54.6614516 L25.3335544,210.542686" id="Stroke-77"></path>
                                        <path d="M237.173362,50.9651614 L28.120208,214.238523" id="Stroke-78"></path>
                                        <path d="M234.2599,47.3684339 L31.0341229,217.835591" id="Stroke-79"></path>
                                        <path d="M231.222409,43.8754625 L34.0722946,221.328449" id="Stroke-80"></path>
                                        <path d="M228.064799,40.4904406 L37.2301316,224.713358" id="Stroke-81"></path>
                                        <path d="M224.790924,37.2177314 L40.5035525,227.985613" id="Stroke-82"></path>
                                        <path d="M221.40464,34.0612449 L43.8901764,231.142327" id="Stroke-83"></path>
                                        <path d="M217.910482,31.0248344 L47.3849016,234.179417" id="Stroke-84"></path>
                                        <path d="M214.312191,28.11241 L50.9829663,237.091728" id="Stroke-85"></path>
                                        <path d="M210.614301,25.3269182 L54.6809693,239.877107" id="Stroke-86"></path>
                                        <path d="M206.821745,22.672099 L58.4742058,242.531926" id="Stroke-87"></path>
                                        <path d="M202.938377,20.1514091 L62.3568936,245.052842" id="Stroke-88"></path>
                                        <path d="M198.969752,17.7677385 L66.3255182,247.435946" id="Stroke-89"></path>
                                        <path d="M194.920293,15.5240338 L70.3748644,249.680218" id="Stroke-90"></path>
                                        <path d="M190.795043,13.422845 L74.5003407,251.781406" id="Stroke-91"></path>
                                        <path d="M186.598935,11.4666655 L78.6961082,253.737473" id="Stroke-92"></path>
                                        <path d="M182.336901,9.65815846 L82.9585959,255.54598" id="Stroke-93"></path>
                                        <path d="M178.014553,7.99970398 L87.2809445,257.204207" id="Stroke-94"></path>
                                        <path d="M173.636821,6.49283202 L91.6590159,258.711419" id="Stroke-95"></path>
                                        <path d="M169.209319,5.13980924 L96.0865181,260.064216" id="Stroke-96"></path>
                                        <path d="M164.737488,3.94199563 L100.558689,261.262256" id="Stroke-97"></path>
                                        <path d="M160.226373,2.90080785 L105.069804,262.30299" id="Stroke-98"></path>
                                        <path d="M155.68204,2.01788923 L109.614591,263.186362" id="Stroke-99"></path>
                                        <path d="M151.109477,1.29380643 L114.187834,263.910105" id="Stroke-100"></path>
                                        <path d="M146.51424,0.729636106 L118.783185,264.474162" id="Stroke-101"></path>
                                        <path d="M141.902336,0.326228259 L123.395882,264.877683" id="Stroke-103"></path>
                                        <path d="M137.278869,0.0838095528 L128.019123,265.119762" id="Stroke-105"></path>
                                    </g>
                                </g>
                            </g>
                        </g>
                    </g>
                </g>
                <path d="M233,429 C124.7492,429 37,341.244267 37,233 C37,124.753556 124.7492,37 233,37 C341.2508,37 429,124.753556 429,233 C429,341.244267 341.2508,429 233,429 Z" id="Fill-59" stroke="#D0D0D0" stroke-width="0.8316" transform="translate(233.000000, 233.000000) rotate(-12.000000) translate(-233.000000, -233.000000) "></path>
                <g id="FITAMOS" transform="translate(156.000000, 211.000000)" fill="#F02314">
                    <path d="M0.321995,24 L5.403995,24 L5.403995,15.057 L16.425995,15.057 L16.425995,10.437 L5.403995,10.437 L5.403995,5.52 L17.910995,5.52 L17.910995,0.9 L0.321995,0.9 L0.321995,24 Z M22.200995,24 L27.282995,24 L27.282995,0.9 L22.200995,0.9 L22.200995,24 Z M38.436995,24 L38.436995,5.586 L31.407995,5.586 L31.407995,0.9 L50.547995,0.9 L50.547995,5.586 L43.518995,5.586 L43.518995,24 L38.436995,24 Z M49.491995,24 L59.391995,0.735 L64.077995,0.735 L73.977995,24 L68.664995,24 L66.552995,18.819 L56.784995,18.819 L54.672995,24 L49.491995,24 Z M58.599995,14.331 L64.737995,14.331 L61.668995,6.84 L58.599995,14.331 Z M77.541995,24 L82.524995,24 L82.524995,9.018 L88.959995,18.786 L89.091995,18.786 L95.592995,8.919 L95.592995,24 L100.641995,24 L100.641995,0.9 L95.163995,0.9 L89.091995,10.668 L83.019995,0.9 L77.541995,0.9 L77.541995,24 Z M117.405995,24.396 C110.277995,24.396 105.162995,19.083 105.162995,12.516 L105.162995,12.45 C105.162995,5.883 110.343995,0.504 117.471995,0.504 C124.599995,0.504 129.714995,5.817 129.714995,12.384 L129.714995,12.45 C129.714995,19.017 124.533995,24.396 117.405995,24.396 Z M117.471995,19.71 C121.563995,19.71 124.401995,16.476 124.401995,12.516 L124.401995,12.45 C124.401995,8.49 121.497995,5.19 117.405995,5.19 C113.313995,5.19 110.475995,8.424 110.475995,12.384 L110.475995,12.45 C110.475995,16.41 113.379995,19.71 117.471995,19.71 Z M142.287995,24.33 C147.270995,24.33 150.768995,21.756 150.768995,17.169 L150.768995,17.103 C150.768995,13.077 148.128995,11.394 143.442995,10.173 C139.449995,9.15 138.459995,8.655 138.459995,7.137 L138.459995,7.071 C138.459995,5.949 139.482995,5.058 141.429995,5.058 C143.376995,5.058 145.389995,5.916 147.435995,7.335 L150.075995,3.507 C147.732995,1.626 144.861995,0.57 141.495995,0.57 C136.776995,0.57 133.410995,3.342 133.410995,7.533 L133.410995,7.599 C133.410995,12.186 136.413995,13.473 141.066995,14.661 C144.927995,15.651 145.719995,16.311 145.719995,17.598 L145.719995,17.664 C145.719995,19.017 144.465995,19.842 142.386995,19.842 C139.746995,19.842 137.568995,18.753 135.489995,17.037 L132.486995,20.634 C135.258995,23.109 138.789995,24.33 142.287995,24.33 Z"></path>
                </g>
                <g id="7大识别技术" transform="translate(172.000000, 242.000000)" fill="#000000">
                    <polygon id="7" points="9.450549 4.184 0.980549 4.184 0.980549 2.6 11.430549 2.6 11.430549 3.898 4.434549 18 2.498549 18"></polygon>
                    <path d="M14.048549,6.208 L14.048549,6.956 L22.738549,6.956 C21.638549,12.83 18.624549,16.988 13.652549,19.452 L14.114549,20.068 C19.196549,17.428 22.320549,13.094 23.464549,7.066 C25.004549,12.698 28.194549,17.01 33.034549,19.98 L33.474549,19.364 C28.744549,16.504 25.620549,12.368 24.102549,6.956 L33.144549,6.956 L33.144549,6.208 L23.618549,6.208 C23.838549,4.756 23.970549,3.216 23.970549,1.566 L23.970549,0.18 L23.222549,0.18 L23.222549,1.742 C23.200549,3.282 23.090549,4.778 22.870549,6.208 L14.048549,6.208 Z M44.562549,1.742 L53.956549,1.742 L53.956549,11.224 L44.562549,11.224 L44.562549,1.742 Z M53.208549,10.476 L53.208549,2.468 L45.310549,2.468 L45.310549,10.476 L53.208549,10.476 Z M37.852549,0.422 L37.324549,0.928 C38.908549,2.16 40.184549,3.348 41.152549,4.47 L41.658549,3.964 C40.646549,2.776 39.370549,1.588 37.852549,0.422 Z M35.696549,7.132 L35.696549,7.88 L39.150549,7.88 L39.150549,17.758 C39.150549,17.934 39.040549,18.132 38.842549,18.33 L39.150549,19.012 C40.470549,18.044 41.724549,16.944 42.890549,15.712 L42.692549,14.92 C41.680549,15.976 40.734549,16.856 39.876549,17.56 L39.876549,7.132 L35.696549,7.132 Z M46.982549,13.05 C45.860549,15.624 44.518549,17.846 42.978549,19.694 L43.594549,20.156 C45.156549,18.242 46.520549,15.976 47.664549,13.38 L46.982549,13.05 Z M51.426549,13.006 L50.810549,13.402 C52.570549,15.822 53.934549,18.066 54.946549,20.09 L55.562549,19.628 C54.594549,17.758 53.230549,15.558 51.426549,13.006 Z M62.646549,7.594 L58.994549,7.594 L58.994549,1.214 L67.816549,1.214 L67.816549,7.594 L63.394549,7.594 C63.350549,8.826 63.262549,9.948 63.130549,10.96 L67.970549,10.96 C67.970549,14.656 67.860549,16.944 67.640549,17.824 C67.442549,19.1 66.430549,19.76 64.626549,19.76 C64.340549,19.76 63.856549,19.738 63.196549,19.738 L63.020549,19.034 C63.636549,19.056 64.142549,19.078 64.582549,19.078 C65.924549,19.078 66.694549,18.616 66.914549,17.692 C67.090549,16.966 67.178549,14.964 67.222549,11.686 L63.042549,11.686 C62.822549,13.204 62.492549,14.436 62.096549,15.382 C61.282549,17.208 59.940549,18.748 58.092549,20.024 L57.630549,19.43 C59.390549,18.242 60.644549,16.79 61.414549,15.118 C61.810549,14.216 62.096549,13.072 62.316549,11.686 L57.982549,11.686 L57.982549,10.96 L62.404549,10.96 C62.514549,9.926 62.602549,8.804 62.646549,7.594 Z M70.918549,2.072 L71.666549,2.072 L71.666549,15.976 L70.918549,15.976 L70.918549,2.072 Z M74.636549,19.892 L71.556549,19.892 L71.402549,19.166 C72.458549,19.21 73.448549,19.232 74.372549,19.232 C75.164549,19.232 75.560549,18.792 75.560549,17.912 L75.560549,0.202 L76.308549,0.202 L76.308549,18.11 C76.308549,19.298 75.736549,19.892 74.636549,19.892 Z M67.090549,6.868 L67.090549,1.918 L59.720549,1.918 L59.720549,6.868 L67.090549,6.868 Z M82.006549,19.848 C83.062549,19.848 83.590549,19.298 83.590549,18.22 L83.590549,11.488 C84.514549,11.048 85.416549,10.586 86.296549,10.08 L86.296549,9.354 C85.416549,9.86 84.514549,10.322 83.590549,10.762 L83.590549,5.196 L86.208549,5.196 L86.208549,4.47 L83.590549,4.47 L83.590549,0.158 L82.842549,0.158 L82.842549,4.47 L79.894549,4.47 L79.894549,5.196 L82.842549,5.196 L82.842549,11.092 C81.764549,11.532 80.642549,11.928 79.498549,12.258 L79.674549,13.006 C80.752549,12.654 81.808549,12.258 82.842549,11.818 L82.842549,18.044 C82.842549,18.792 82.468549,19.188 81.742549,19.188 C81.214549,19.188 80.642549,19.166 80.048549,19.122 L80.202549,19.848 L82.006549,19.848 Z M87.264549,3.612 L92.786549,3.612 L92.786549,0.18 L93.534549,0.18 L93.534549,3.612 L99.078549,3.612 L99.078549,4.338 L93.534549,4.338 L93.534549,8.65 L98.176549,8.65 L98.176549,9.354 C97.296549,11.972 95.866549,14.172 93.930549,15.976 C95.514549,17.34 97.450549,18.506 99.738549,19.474 L99.342549,20.09 C96.966549,19.034 94.986549,17.802 93.424549,16.438 C91.620549,17.978 89.420549,19.21 86.824549,20.134 L86.450549,19.474 C89.024549,18.594 91.180549,17.406 92.896549,15.954 C90.872549,14.062 89.530549,11.862 88.848549,9.398 L87.660549,9.398 L87.660549,8.65 L92.786549,8.65 L92.786549,4.338 L87.264549,4.338 L87.264549,3.612 Z M89.574549,9.398 C90.234549,11.73 91.510549,13.754 93.402549,15.514 C95.228549,13.798 96.570549,11.774 97.406549,9.398 L89.574549,9.398 Z M102.378549,5.636 L111.222549,5.636 L111.222549,0.092 L111.970549,0.092 L111.970549,5.636 L120.836549,5.636 L120.836549,6.362 L113.048549,6.362 C114.588549,10.41 117.382549,13.996 121.452549,17.12 L120.968549,17.736 C116.744549,14.37 113.862549,10.586 112.322549,6.362 L111.970549,6.362 L111.970549,20.046 L111.222549,20.046 L111.222549,6.362 L110.892549,6.362 C109.220549,11.114 106.272549,14.986 102.048549,17.978 L101.652549,17.318 C105.656549,14.546 108.494549,10.894 110.144549,6.362 L102.378549,6.362 L102.378549,5.636 Z M115.468549,0.158 C116.898549,1.588 117.976549,2.864 118.724549,3.964 L118.130549,4.382 C117.338549,3.194 116.260549,1.918 114.874549,0.532 L115.468549,0.158 Z" id="大识别技术"></path>
                </g>
            </g>
            <g id="Group-30" transform="translate(317.000000, 431.000000)">
                <path d="M35.6034089,70.5691536 C16.2729089,70.5691536 0.603408884,54.8984869 0.603408884,35.5691536 C0.603408884,16.2394313 16.2729089,0.569153561 35.6034089,0.569153561 C54.9339089,0.569153561 70.6034089,16.2394313 70.6034089,35.5691536 C70.6034089,54.8984869 54.9339089,70.5691536 35.6034089,70.5691536 Z" id="Fill-59" stroke="#D0D0D0" stroke-width="0.8316" fill="#FFFFFF" fill-rule="nonzero"></path>
                <g id="Combined-Shape" transform="translate(38.470521, 33.566321) rotate(-12.000000) translate(-38.470521, -33.566321) translate(16.970521, 12.066321)">
                    <g id="path-5-Clipped">
                        <mask id="mask-6" fill="white">
                            <use xlink:href="#path-5"></use>
                        </mask>
                        <g id="path-5"></g>
                        <path d="M17.3583997,4.5185956 C17.3583997,6.5940244 15.6759892,8.2764349 13.6005604,8.2764349 C11.5252266,8.2764349 9.8427211,6.5940244 9.8427211,4.5185956 C9.8427211,2.4431669 11.5252266,0.7607563 13.6005604,0.7607563 C15.6759892,0.7607563 17.3583997,2.4431669 17.3583997,4.5185956 Z M26.0385031,20.7405742 C27.8983818,24.6762741 34.8621166,26.7694769 38.8018895,24.4652069 C41.6446486,22.8038763 44.3418078,26.7341485 41.5234756,28.4079352 C39.6809429,29.5022018 37.1917166,30.284003 34.8165068,30.3529893 C31.2213614,30.4574077 26.1479879,28.9134005 24.1147039,26.3331667 C20.8548382,27.3125465 14.4805473,32.1015364 14.3241566,32.1896546 C13.1689356,34.5740665 10.986346,37.7827692 9.2024743,41.0967677 C7.4186026,44.4107661 3.1989154,41.5376648 4.5036904,38.8405665 C5.7183532,36.3292948 8.8021954,31.2512567 10.0168582,28.7398901 C10.261462,28.2345402 16.7016568,23.9416406 18.8019637,22.8677009 C17.380869,20.1156237 16.6232665,18.4385804 15.0652469,15.7628469 C10.1002462,17.2839291 4.674478,15.6357009 1.3131703,10.9277431 C-0.4262132,8.4914857 3.5930369,6.1821831 5.3130496,8.5903338 C7.9475726,12.2806602 11.4752413,12.7078622 15.2712525,10.4542031 C15.5296247,10.3009459 16.6761099,9.6693061 16.9300193,9.5185177 C23.0364725,5.8932354 29.136184,7.3149948 33.2268401,13.0437176 C34.9655589,15.4798799 30.9449794,17.7891825 29.2262961,15.3810319 C27.1127905,12.4212883 24.4250926,11.5650802 21.4860493,12.5026647 C22.6803455,15.4694764 25.960925,20.4272231 26.0385031,20.7405742 Z" id="path-5" stroke="#DC3122" stroke-width="2" mask="url(#mask-6)"></path>
                    </g>
                </g>
            </g>
            <g id="Group-27" transform="translate(189.000000, 445.000000)">
                <path d="M35.437102,70.2826337 C16.106602,70.2826337 0.437102031,54.611967 0.437102031,35.2826337 C0.437102031,15.9529114 16.106602,0.282633658 35.437102,0.282633658 C54.767602,0.282633658 70.437102,15.9529114 70.437102,35.2826337 C70.437102,54.611967 54.767602,70.2826337 35.437102,70.2826337 Z" id="Fill-59" stroke="#D0D0D0" stroke-width="0.8316" fill="#FFFFFF" fill-rule="nonzero"></path>
                <g id="icon-audio" stroke-linecap="round" stroke-linejoin="round" transform="translate(16.375000, 20.000000)" stroke="#DC3122">
                    <polyline id="Layer-1" points="4.92788462 20.9210526 0.196887707 20.9210526 0.196887707 9.07894737 4.92788462 9.07894737"></polyline>
                    <polygon id="Layer-2" points="18.2331731 0.0905400476 18.2331731 29.8084875 4.92788462 20.9245182 4.92788462 8.97450938"></polygon>
                    <path d="M27.7932692,29.6593312 C33.9394915,27.6437277 38.3787871,21.8540637 38.3787871,15.0262157 C38.3787871,8.20021485 33.9418931,2.41183639 27.7982571,0.394736842" id="Layer-3"></path>
                    <path d="M25.4278846,24.2618669 C29.5027253,23.2060854 32.5122452,19.4997957 32.5122452,15.0896926 C32.5122452,10.6844969 29.5094193,6.9815491 25.4414837,5.92105263" id="Layer-4"></path>
                    <path d="M22.6682692,18.9473684 L22.6682692,18.9473684 C22.9478728,18.9473684 23.2206778,18.9182232 23.4838194,18.8628013 C25.2697647,18.4866523 26.6105769,16.9001089 26.6105769,15 C26.6105769,13.0718706 25.2299277,11.466623 23.4045209,11.1213503 C23.1660014,11.0762347 22.9198882,11.0526316 22.6682692,11.0526316" id="Layer-5"></path>
                </g>
            </g>
            <g id="Group-28" transform="translate(70.000000, 102.000000)">
                <path d="M71.0745183,142.282323 C31.9132508,142.282323 0.168728788,110.557795 0.168728788,71.4264674 C0.168728788,32.2943527 31.9132508,0.570611497 71.0745183,0.570611497 C110.235786,0.570611497 141.980308,32.2943527 141.980308,71.4264674 C141.980308,110.557795 110.235786,142.282323 71.0745183,142.282323 Z" id="Fill-59" stroke="#D0D0D0" stroke-width="0.91476" fill="#FFFFFF" fill-rule="nonzero"></path>
                <g id="icon-face" stroke-linejoin="round" transform="translate(37.575110, 31.483784)">
                    <g id="Face-+-circle">
                        <g id="path-7-Clipped">
                            <mask id="mask-8" fill="white">
                                <use xlink:href="#path-7"></use>
                            </mask>
                            <g id="path-7"></g>
                            <path d="M26.4577296,46.0629435 L25.0485128,51.4563594 C24.5192041,53.2828184 21.983955,55.5103238 19.9539493,55.8436458 L11.6756225,57.2029269 C5.57092326,58.2053036 0.34379466,64.0900222 -2.27373675e-13,70.3559995 L69.0516274,70.3559995 C67.3337823,64.4420162 61.0143974,58.7288263 54.9347294,57.5948304 L45.9696008,55.9226306 C43.9439844,55.5448072 41.5478148,53.4963781 40.892681,51.4563594 L39.4834641,46.0629435 C42.4395849,44.154448 45.0803768,39.7309995 45.8260996,35.5262471 C47.0018196,35.8048811 50.6373828,31.3692736 51.2802709,28.3067596 C51.9231591,25.2442457 48.5275412,23.1413752 48.1429081,23.1287617 L48.8358589,14.2649007 C48.8358589,-4.93188128 17.1053348,-4.57722587 17.1053348,14.2649007 L17.7978853,23.1228169 C17.4363066,23.1413752 14.0498981,25.2442457 14.6927862,28.3067596 C15.3356744,31.3692736 18.9712375,35.8048811 19.9794212,35.5878952 C20.8825485,39.7384284 22.9412822,43.5785684 26.4577296,46.0629435 Z" id="path-7" stroke="#DC3122" stroke-width="2" mask="url(#mask-8)"></path>
                        </g>
                    </g>
                </g>
            </g>
            <g id="Group-40" transform="translate(39.000000, 278.000000)">
                <path d="M35.3563177,70.3326554 C16.0258177,70.3326554 0.356317747,54.6619888 0.356317747,35.3326554 C0.356317747,16.0029332 16.0258177,0.33265545 35.3563177,0.33265545 C54.6868177,0.33265545 70.3563177,16.0029332 70.3563177,35.3326554 C70.3563177,54.6619888 54.6868177,70.3326554 35.3563177,70.3326554 Z" id="Fill-59" stroke="#D0D0D0" stroke-width="0.79002" fill="#FFFFFF" fill-rule="nonzero"></path>
                <g id="icon-image" transform="translate(18.378378, 21.432432)">
                    <g id="Rectangle-14-Clipped">
                        <mask id="mask-10" fill="white">
                            <use xlink:href="#path-9"></use>
                        </mask>
                        <g id="Rectangle-path"></g>
                        <g id="Rectangle-14" mask="url(#mask-10)">
                            <g id="path-9-Clipped">
                                <mask id="mask-12" fill="white">
                                    <use xlink:href="#path-11"></use>
                                </mask>
                                <g id="Rectangle-path"></g>
                                <rect id="path-9" stroke="#DC3122" stroke-width="2" mask="url(#mask-12)" x="1" y="1" width="33.2432432" height="26.2980695" rx="1.9"></rect>
                                <mask id="mask-14" fill="white">
                                    <use xlink:href="#path-13"></use>
                                </mask>
                                <g id="path-9"></g>
                            </g>
                        </g>
                        <mask id="mask-16" fill="white">
                            <use xlink:href="#path-15"></use>
                        </mask>
                        <g id="path-9"></g>
                    </g>
                    <g id="Combined-Shape-Clipped" transform="translate(1.000000, 1.000000)">
                        <mask id="mask-18" fill="white">
                            <use xlink:href="#path-17"></use>
                        </mask>
                        <g id="path-9"></g>
                        <g id="Combined-Shape" mask="url(#mask-18)">
                            <g transform="translate(-7.000000, 10.000000)" id="path-13-Clipped">
                                <g>
                                    <mask id="mask-20" fill="white">
                                        <use xlink:href="#path-19"></use>
                                    </mask>
                                    <g id="path-13"></g>
                                    <polygon id="path-13" stroke="#DC3122" stroke-width="2" mask="url(#mask-20)" points="20.2731257 27.689305 28.4686288 35.8848082 46.1376442 18.2157927 28.269401 0.3475495 18.6279406 9.9890099 14.337806 5.6988754 0.53061501 19.5060664 14.4934896 33.468941"></polygon>
                                </g>
                            </g>
                        </g>
                    </g>
                    <g id="Oval-2-Clipped" transform="translate(1.000000, 1.000000)">
                        <mask id="mask-22" fill="white">
                            <use xlink:href="#path-21"></use>
                        </mask>
                        <g id="path-9"></g>
                        <ellipse id="Oval-2" stroke="#DC3122" mask="url(#mask-22)" cx="7.47972973" cy="8.21814672" rx="3.32432432" ry="3.28725869"></ellipse>
                    </g>
                </g>
            </g>
            <g id="Group-8" transform="translate(84.000000, 384.000000)">
                <path d="M35.7809086,70.3198921 C16.4504086,70.3198921 0.780908552,54.6492254 0.780908552,35.3198921 C0.780908552,15.9901699 16.4504086,0.319892099 35.7809086,0.319892099 C55.1114086,0.319892099 70.7809086,15.9901699 70.7809086,35.3198921 C70.7809086,54.6492254 55.1114086,70.3198921 35.7809086,70.3198921 Z" id="Fill-59" stroke="#D0D0D0" stroke-width="0.8316" fill="#FFFFFF" fill-rule="nonzero"></path>
                <g id="icon-text" transform="translate(21.681818, 22.727273)" stroke="#DC3122" stroke-width="3">
                    <path d="M9.20454545,26.0795455 L18.4090909,26.0795455" id="Line" stroke-linecap="round"></path>
                    <polyline id="Rectangle-16" stroke-linecap="round" points="0 5.91720779 0 0 27.6136364 0 27.6136364 5.91720779"></polyline>
                    <path d="M13.8068182,0.493100649 L13.8068182,25.1116071" id="Line" stroke-linecap="square"></path>
                </g>
            </g>
            <path d="M272,102 C267.5816,102 264,98.4181333 264,94 C264,89.5817778 267.5816,86 272,86 C276.4184,86 280,89.5817778 280,94 C280,98.4181333 276.4184,102 272,102 Z" id="Fill-59" fill="#00B280" fill-rule="nonzero"></path>
            <g id="Group-38" transform="translate(319.000000, 100.000000)">
                <path d="M68.6979174,125.897119 C37.033562,125.897119 11.3661133,100.275535 11.3661133,68.6720214 C11.3661133,37.0678717 37.033562,11.4469238 68.6979174,11.4469238 C100.362273,11.4469238 126.029721,37.0678717 126.029721,68.6720214 C126.029721,100.275535 100.362273,125.897119 68.6979174,125.897119 Z" id="Fill-59" stroke="#D0D0D0" stroke-width="0.7072758" fill="#FFFFFF" fill-rule="nonzero" transform="translate(68.697917, 68.672021) rotate(-12.000000) translate(-68.697917, -68.672021) "></path>
                <g id="Group-44" stroke-linecap="round" stroke-linejoin="round" transform="translate(33.000000, 69.000000)" stroke="#DC3122">
                    <g id="Group-26">
                        <g id="Group-18">
                            <g id="Group-41">
                                <path d="M0.326091283,0.0335708234 C3.59784253,-0.153684669 6.13333333,4.61280991 6.13333333,4.61280991 C6.13333333,4.61280991 11.2652832,-5.3783076 16.8666667,4.61280991" id="Path-7" transform="translate(8.596379, 2.320502) scale(-1, 1) rotate(-180.000000) translate(-8.596379, -2.320502) "></path>
                                <path d="M16.8666667,4.61280991 C22.1128307,-5.70257477 27.6,4.61280991 27.6,4.61280991 C27.6,4.61280991 30.0105787,-0.0802161961 33.3307428,0.182984211 C34.8549799,0.303815531 36.5709202,1.4692157 38.3333333,4.61280991" id="Path-7" transform="translate(27.600000, 2.320502) scale(-1, 1) rotate(-180.000000) translate(-27.600000, -2.320502) "></path>
                                <path d="M38.3333333,4.61280991 C40.1032013,1.13276823 43.4338326,0.000809630748 45.0386159,0.0286952871" id="Path-7" transform="translate(41.685975, 2.320502) scale(-1, 1) rotate(-180.000000) translate(-41.685975, -2.320502) "></path>
                            </g>
                        </g>
                    </g>
                    <g id="Group-26" transform="translate(0.000000, 7.692308)">
                        <g id="Group-18">
                            <g id="Group-41">
                                <path d="M0.326091283,0.0335708234 C3.59784253,-0.153684669 6.13333333,4.61280991 6.13333333,4.61280991 C6.13333333,4.61280991 11.2652832,-5.3783076 16.8666667,4.61280991" id="Path-7" transform="translate(8.596379, 2.320502) scale(-1, 1) rotate(-180.000000) translate(-8.596379, -2.320502) "></path>
                                <path d="M16.8666667,4.61280991 C22.1128307,-5.70257477 27.6,4.61280991 27.6,4.61280991 C27.6,4.61280991 30.0105787,-0.0802161961 33.3307428,0.182984211 C34.8549799,0.303815531 36.5709202,1.4692157 38.3333333,4.61280991" id="Path-7" transform="translate(27.600000, 2.320502) scale(-1, 1) rotate(-180.000000) translate(-27.600000, -2.320502) "></path>
                                <path d="M38.3333333,4.61280991 C40.1032013,1.13276823 43.4338326,0.000809630748 45.0386159,0.0286952871" id="Path-7" transform="translate(41.685975, 2.320502) scale(-1, 1) rotate(-180.000000) translate(-41.685975, -2.320502) "></path>
                            </g>
                        </g>
                    </g>
                    <g id="Group-26" transform="translate(0.000000, 15.384615)">
                        <g id="Group-18">
                            <g id="Group-41">
                                <path d="M0.326091283,0.0335708234 C3.59784253,-0.153684669 6.13333333,4.61280991 6.13333333,4.61280991 C6.13333333,4.61280991 11.2652832,-5.3783076 16.8666667,4.61280991" id="Path-7" transform="translate(8.596379, 2.320502) scale(-1, 1) rotate(-180.000000) translate(-8.596379, -2.320502) "></path>
                                <path d="M16.8666667,4.61280991 C22.1128307,-5.70257477 27.6,4.61280991 27.6,4.61280991 C27.6,4.61280991 30.0105787,-0.0802161961 33.3307428,0.182984211 C34.8549799,0.303815531 36.5709202,1.4692157 38.3333333,4.61280991" id="Path-7" transform="translate(27.600000, 2.320502) scale(-1, 1) rotate(-180.000000) translate(-27.600000, -2.320502) "></path>
                                <path d="M38.3333333,4.61280991 C40.1032013,1.13276823 43.4338326,0.000809630748 45.0386159,0.0286952871" id="Path-7" transform="translate(41.685975, 2.320502) scale(-1, 1) rotate(-180.000000) translate(-41.685975, -2.320502) "></path>
                            </g>
                        </g>
                    </g>
                </g>
                <g id="icon-scene" transform="translate(87.486719, 73.258736) rotate(30.000000) translate(-87.486719, -73.258736) translate(64.486719, 51.758736)" stroke="#DC3122">
                    <path d="M23.2068906,0.258785967 L23.2068906,42.3097002" id="Line" stroke-linecap="square"></path>
                    <path d="M0.38852818,19.0714792 L0.38852818,19.0714792 C2.9084461,8.24147989 12.0942543,0.213667182 23.0402629,0.213667182 C33.9862715,0.213667182 43.1720796,8.24147989 45.6919975,19.0714792" id="Combined-Shape" stroke-linecap="round"></path>
                    <path d="M0.378584806,19.5147815 C6.6642809,14.9526279 11.8421861,19.6704036 11.8421861,19.6704036 C11.8421861,19.6704036 17.1465632,14.7857138 22.7472593,19.6218648" id="Path-7" stroke-linecap="round" stroke-linejoin="round"></path>
                    <path d="M23.0233182,19.6704036 C28.9368058,15.237422 34.5666292,19.6704036 34.5666292,19.6704036 C34.5666292,19.6704036 39.7166689,15.4068126 45.7084047,19.6218648" id="Path-7" stroke-linecap="round" stroke-linejoin="round"></path>
                    <path d="M34.6963888,0.33453305 C34.6963888,0.33453305 22.8377955,5.17007487 22.8377955,19.1923451" id="Path-12" stroke-linecap="round" transform="translate(28.767092, 9.763439) scale(-1, 1) translate(-28.767092, -9.763439) "></path>
                    <path d="M23.2692873,0.33453305 C23.2692873,0.33453305 11.410694,5.17007487 11.410694,19.1923451" id="Path-12" stroke-linecap="round"></path>
                </g>
                <g id="Group-46" transform="translate(32.000000, 41.000000)" stroke="#DC3122">
                    <g id="Group-47" stroke-linecap="round">
                        <g id="Group-45" transform="translate(11.120000, 0.000000)">
                            <path d="M0.38,0.46 L0.38,2.3" id="Line"></path>
                            <path d="M0.38,19.78 L0.38,21.62" id="Line"></path>
                        </g>
                        <g id="Group-45" transform="translate(11.966690, 11.450122) rotate(45.000000) translate(-11.966690, -11.450122) translate(10.966690, 0.450122)">
                            <path d="M0.38,0.46 L0.38,2.3" id="Line"></path>
                            <path d="M0.38,19.78 L0.38,21.62" id="Line"></path>
                        </g>
                        <g id="Group-45" transform="translate(11.540000, 11.660000) rotate(90.000000) translate(-11.540000, -11.660000) translate(10.540000, 0.660000)">
                            <path d="M0.38,0.46 L0.38,2.3" id="Line"></path>
                            <path d="M0.38,19.78 L0.38,21.62" id="Line"></path>
                        </g>
                        <g id="Group-45" transform="translate(11.089878, 11.506690) rotate(135.000000) translate(-11.089878, -11.506690) translate(10.089878, 0.506690)">
                            <path d="M0.38,0.46 L0.38,2.3" id="Line"></path>
                            <path d="M0.38,19.78 L0.38,21.62" id="Line"></path>
                        </g>
                    </g>
                    <ellipse id="Oval-4" cx="11.5958451" cy="11.02081" rx="5.65416676" ry="5.65416676"></ellipse>
                </g>
            </g>
            <g id="VDS" transform="translate(207.000000, 17.000000)" fill-rule="nonzero" fill="#00B280">
                <path d="M28.8454268,54.577554 C29.8295351,54.1060195 30.5179921,53.3497219 30.9116353,52.3078235 L41.8314678,18.0583442 L43.0785633,14.1864018 C45.3449436,7.20551487 46.4781338,3.36791152 46.4781338,2.67359175 C46.4781338,1.88211747 46.1456308,1.23805004 45.4806249,0.743064533 C44.815619,0.248079029 44.0886352,0.000167507785 43.3005111,0.000167507785 L38.7292237,0.000167507785 C36.2241447,0.000167507785 34.7006614,0.838543971 34.1604488,2.51278428 L23.1384366,41.5353978 L12.1273124,2.69704284 C11.5410351,0.899684312 10.0485407,0.000167507785 7.65234189,0.000167507785 L3.10366799,0.000167507785 C2.36495866,0.000167507785 1.66310104,0.248916568 0.998095136,0.743902072 C0.332251691,1.23972512 -0.000251261677,1.88546763 -0.000251261677,2.67861699 C-0.000251261677,3.52201868 1.10865027,7.36548481 3.32561581,14.2106904 C3.64220552,15.2006614 4.25277139,17.1085751 5.15815097,19.9361065 C6.06269301,22.7628004 6.80140234,25.0718952 7.37427896,26.8625534 L15.5637346,52.2332825 C16.2036143,54.0683303 18.1718308,55.2098958 21.4667089,55.6554666 C22.0571738,55.7551337 23.1635628,55.7551337 24.7875507,55.6554666 C26.5095308,55.407555 27.8613186,55.0490884 28.8454268,54.577554 Z" id="Fill-1"></path>
                <path d="M85.1426995,51.5217094 C87.457657,49.0183056 88.6151358,46.1036701 88.6151358,42.7794781 L88.6151358,12.4990959 C88.6151358,9.17657898 87.457657,6.26194352 85.1426995,3.75770214 C82.8260668,1.25262321 79.72131,-0.00033501557 75.8301042,-0.00033501557 L53.5842328,-0.00033501557 C52.8455235,-0.00033501557 52.1914056,0.223287877 51.6260668,0.669696124 C51.0590529,1.11526683 50.7768023,1.68646838 50.7768023,2.38078815 L50.7768023,52.899461 C50.7768023,53.5435284 51.0347643,54.1021669 51.5523634,54.5728637 C52.0699624,55.0443982 52.7458563,55.2789091 53.5842328,55.2789091 L75.8301042,55.2789091 C79.72131,55.2789091 82.8260668,54.0267884 85.1426995,51.5217094 M75.7564007,44.2677848 C75.3133426,44.863275 74.6717878,45.1606013 73.8350864,45.1606013 L62.9705315,45.1606013 L62.9705315,10.0442693 L73.8350864,10.0442693 C74.6717878,10.0442693 75.3133426,10.3415956 75.7564007,10.9370858 C76.1994588,11.532576 76.4214066,12.1766434 76.4214066,12.8709632 L76.4214066,42.3339074 C76.4214066,43.0282272 76.1994588,43.6731322 75.7564007,44.2677848" id="Fill-4"></path>
                <path d="M126.271221,52.9358939 C128.24195,51.3738838 129.226896,49.1292795 129.226896,46.202081 L129.226896,38.2404359 C129.226896,37.0017159 129.177481,35.9598175 129.080326,35.1155782 C128.979822,34.2730141 128.733585,33.2562418 128.34078,32.0652615 C127.945461,30.8742811 127.256167,29.8214947 126.271221,28.903552 C125.2846,27.9856094 124.028292,27.2050231 122.501458,26.5592806 L105.429902,19.6412091 C105.083999,19.543217 104.912303,18.9234382 104.912303,17.7810351 L104.912303,11.3085343 C104.912303,10.5162225 105.181991,10.1183915 105.725554,10.1183915 L125.310564,10.1183915 C125.999858,10.1183915 126.628012,9.8947686 127.195026,9.44836036 C127.760365,9.00195211 128.045128,8.43242564 128.045128,7.73726833 L128.045128,2.45574788 C128.045128,1.81084291 127.786329,1.23964136 127.26873,0.744655857 C126.751131,0.248832814 126.09785,8.37538923e-05 125.310564,8.37538923e-05 L102.769041,8.37538923e-05 C100.156757,8.37538923e-05 97.8794889,0.793233115 95.9322109,2.38120692 C93.9857704,3.96834318 93.0133877,6.24979921 93.0133877,9.22641254 L93.0133877,17.7810351 C93.0133877,23.7334242 95.4523011,27.7025212 100.32929,29.6849758 L116.441864,36.4556405 C116.982914,36.7043896 117.254277,37.3987093 117.254277,38.5394373 L117.254277,44.267366 C117.254277,44.8628562 117.056618,45.1610201 116.662974,45.1610201 L96.2655514,45.1610201 C95.5260045,45.1610201 94.8727241,45.3838054 94.3065478,45.8310512 C93.739534,46.2766219 93.4564458,46.8478235 93.4564458,47.5421432 L93.4564458,52.8236637 C93.4564458,53.4694062 93.7160829,54.0397702 94.2328444,54.5347557 C94.7504435,55.0314163 95.4271749,55.2793278 96.2655514,55.2793278 L119.397539,55.2793278 C122.008985,55.2793278 124.299654,54.4987415 126.271221,52.9358939" id="Fill-7"></path>
            </g>
            <g id="Group-27" transform="translate(353.000000, 237.000000)">
                <path d="M95.4341684,175.568927 C51.0103771,175.568927 14.9999999,139.622897 14.9999999,95.2844635 C14.9999999,50.9451384 51.0103771,14.9999999 95.4341684,14.9999999 C139.85796,14.9999999 175.868337,50.9451384 175.868337,95.2844635 C175.868337,139.622897 139.85796,175.568927 95.4341684,175.568927 Z" id="Fill-59" stroke="#D0D0D0" stroke-width="0.8316" fill="#FFFFFF" fill-rule="nonzero" transform="translate(95.434168, 95.284463) rotate(-12.000000) translate(-95.434168, -95.284463) "></path>
                <g id="Group-42" transform="translate(52.000000, 47.000000)">
                    <g id="iPad-(Original)" transform="translate(16.722222, 0.000000)">
                        <circle id="Homescreen-Button" stroke="#DC3122" cx="34.5" cy="91.5" r="2.5"></circle>
                        <g id="Camera" transform="translate(32.000000, 3.000000)">
                            <g id="path-15-Clipped">
                                <mask id="mask-24" fill="white">
                                    <use xlink:href="#path-23"></use>
                                </mask>
                                <g id="Rectangle-path"></g>
                                <ellipse id="path-15" stroke="#DC3122" stroke-width="2" mask="url(#mask-24)" cx="1.6987946" cy="1.70120482" rx="1" ry="1"></ellipse>
                                <mask id="mask-26" fill="white">
                                    <use xlink:href="#path-25"></use>
                                </mask>
                                <g id="path-15"></g>
                            </g>
                        </g>
                        <g id="Screen" transform="translate(4.000000, 8.000000)">
                            <g id="path-17-Clipped">
                                <mask id="mask-28" fill="white">
                                    <use xlink:href="#path-27"></use>
                                </mask>
                                <g id="path-17"></g>
                                <rect id="path-17" stroke="#DC3122" stroke-width="2" mask="url(#mask-28)" x="0" y="0" width="60" height="79" rx="2"></rect>
                            </g>
                        </g>
                        <g id="Outer-edge">
                            <g id="path-19-Clipped">
                                <mask id="mask-30" fill="white">
                                    <use xlink:href="#path-29"></use>
                                </mask>
                                <g id="path-19"></g>
                                <rect id="path-19" stroke="#DC3122" stroke-width="2" mask="url(#mask-30)" x="0" y="0" width="68" height="97" rx="4"></rect>
                            </g>
                        </g>
                    </g>
                    <g id="iPhone-3GS" transform="translate(0.000000, 29.000000)">
                        <g id="Outer-edge">
                            <g id="path-21-Clipped">
                                <mask id="mask-32" fill="white">
                                    <use xlink:href="#path-31"></use>
                                </mask>
                                <g id="path-21"></g>
                                <rect id="path-21" stroke="#DC3122" stroke-width="2" fill="#FFFFFF" fill-rule="nonzero" mask="url(#mask-32)" x="0" y="0" width="35" height="68" rx="4"></rect>
                            </g>
                        </g>
                        <ellipse id="Homescreen-Button" stroke="#DC3122" cx="17.5" cy="62.4988435" rx="2.5" ry="2.49884354"></ellipse>
                        <rect id="Speaker" stroke="#DC3122" x="14" y="4" width="8" height="2" rx="1"></rect>
                        <path d="M11,6 C11.5522847,6 12,5.55228475 12,5 C12,4.44771525 11.5522847,4 11,4 C10.4477153,4 10,4.44771525 10,5 C10,5.55228475 10.4477153,6 11,6 Z" id="Camera" stroke="#DC3122"></path>
                        <g id="Screen" transform="translate(3.000000, 9.000000)">
                            <g id="path-23-Clipped">
                                <mask id="mask-34" fill="white">
                                    <use xlink:href="#path-33"></use>
                                </mask>
                                <g id="path-23"></g>
                                <rect id="path-23" stroke="#DC3122" stroke-width="2" mask="url(#mask-34)" x="0" y="0" width="29" height="49" rx="0.648"></rect>
                            </g>
                        </g>
                    </g>
                </g>
            </g>
        </g>
    </g>
</svg>