<?xml version="1.0" encoding="UTF-8"?>
<svg width="156px" height="144px" viewBox="0 0 156 144" version="1.1" xmlns="http://www.w3.org/2000/svg" xmlns:xlink="http://www.w3.org/1999/xlink">
    <!-- Generator: Sketch 42 (36781) - http://www.bohemiancoding.com/sketch -->
    <title>intro-list-photo-01</title>
    <desc>Created with Sketch.</desc>
    <defs>
        <rect id="path-1" x="0" y="0" width="225" height="180"></rect>
    </defs>
    <g id="pc" stroke="none" stroke-width="1" fill="none" fill-rule="evenodd">
        <g id="1.0-首頁" transform="translate(-154.000000, -1642.000000)">
            <g id="3大优势" transform="translate(0.000000, 1490.000000)">
                <g id="Benefits_section">
                    <g id="Group-3" transform="translate(70.000000, 132.000000)">
                        <g id="intro-list-photo-01" transform="translate(48.000000, 0.000000)">
                            <mask id="mask-2" fill="white">
                                <use xlink:href="#path-1"></use>
                            </mask>
                            <g id="Rectangle"></g>
                            <g id="Page-1" mask="url(#mask-2)">
                                <g transform="translate(36.000000, 20.454545)">
                                    <path d="M130.262958,89.4252182 C160.676743,89.4252182 167.325579,38.6370014 123.280185,38.6370014 C132.054865,4.64449302 77.6451377,-16.6384943 59.346946,19.0466974 C49.0062145,12.792081 27.8037997,21.3654119 29.9830466,38.6370014 C-5.63053428,33.4557555 -10.1551235,89.4252182 23.4222152,89.4252182" id="Stroke-1" stroke="#CDCDCD"></path>
                                    <path d="M85.0909091,116.100227 L85.0909091,139.603045" id="Stroke-3" stroke="#CDCDCD"></path>
                                    <polyline id="Stroke-17" stroke="#CDCDCD" points="75.7138847 116.100227 75.7138847 127.784864 68.4058409 135.102682 23.3228486 135.102682"></polyline>
                                    <path d="M19.7130929,135.102209 C19.7130929,134.104755 20.5216876,133.295209 21.5179707,133.295209 C22.5154343,133.295209 23.3228486,134.104755 23.3228486,135.102209 C23.3228486,136.100845 22.5154343,136.909209 21.5179707,136.909209 C20.5216876,136.909209 19.7130929,136.100845 19.7130929,135.102209 Z" id="Stroke-19" stroke="#CDCDCD"></path>
                                    <path d="M84.0811285,140.7851 C84.0811285,139.787645 84.8897232,138.9781 85.8860063,138.9781 C86.8834699,138.9781 87.6908842,139.787645 87.6908842,140.7851 C87.6908842,141.783736 86.8834699,142.5921 85.8860063,142.5921 C84.8897232,142.5921 84.0811285,141.783736 84.0811285,140.7851 Z" id="Stroke-20" stroke="#CDCDCD"></path>
                                    <g id="Group-20" stroke="none" fill-rule="evenodd" transform="translate(33.545455, 46.636364)">
                                        <polygon id="Stroke-5" stroke="#E14523" points="0.792224844 19.0880909 84.9958563 19.0880909 84.9958563 0.179 0.792224844 0.179"></polygon>
                                        <path d="M7.0874594,9.63378182 C7.0874594,7.45805455 8.84984178,5.69478182 11.0218334,5.69478182 C13.1950056,5.69478182 14.9573879,7.45805455 14.9573879,9.63378182 C14.9573879,11.8095091 13.1950056,13.5727818 11.0218334,13.5727818 C8.84984178,13.5727818 7.0874594,11.8095091 7.0874594,9.63378182 Z" id="Stroke-7" stroke="#E14523"></path>
                                        <path d="M21.6468862,9 L77.521372,9" id="Stroke-8" stroke="#E14523"></path>
                                    </g>
                                    <g id="Group-17" stroke="none" fill-rule="evenodd" transform="translate(33.545455, 71.181818)">
                                        <polygon id="Stroke-9" stroke="#E14523" points="1 19.9090909 85.2036315 19.9090909 85.2036315 1 1 1"></polygon>
                                        <path d="M7.0874594,10.2599636 C7.0874594,8.08423636 8.84984178,6.32096364 11.0218334,6.32096364 C13.1950056,6.32096364 14.9573879,8.08423636 14.9573879,10.2599636 C14.9573879,12.4356909 13.1950056,14.1989636 11.0218334,14.1989636 C8.84984178,14.1989636 7.0874594,12.4356909 7.0874594,10.2599636 Z" id="Stroke-10" stroke="#E14523"></path>
                                        <path d="M21.6468862,9.81818182 L77.521372,9.81818182" id="Stroke-11" stroke="#E14523"></path>
                                    </g>
                                    <g id="Group-14" stroke="none" fill-rule="evenodd" transform="translate(33.545455, 96.545455)">
                                        <polygon id="Stroke-12" stroke="#E14523" points="0.792224844 19.5541818 84.9958563 19.5541818 84.9958563 0.645090909 0.792224844 0.645090909"></polygon>
                                        <path d="M7.0874594,10.1002273 C7.0874594,7.9245 8.84984178,6.16122727 11.0218334,6.16122727 C13.1950056,6.16122727 14.9573879,7.9245 14.9573879,10.1002273 C14.9573879,12.2759545 13.1950056,14.0392273 11.0218334,14.0392273 C8.84984178,14.0392273 7.0874594,12.2759545 7.0874594,10.1002273 Z" id="Stroke-13" stroke="#E14523"></path>
                                        <path d="M21.6468862,9.81818182 L77.521372,9.81818182" id="Stroke-14" stroke="#E14523"></path>
                                    </g>
                                    <path d="M76.8181818,66 L76.8181818,71.7272727" id="Stroke-15" stroke="#E14523"></path>
                                    <path d="M76.8181818,91 L76.8181818,96.7272727" id="Stroke-16" stroke="#E14523"></path>
                                    <path d="M126.652966,89.4252182 C126.652966,88.4277636 127.461561,87.6182182 128.457844,87.6182182 C129.455307,87.6182182 130.262722,88.4277636 130.262722,89.4252182 C130.262722,90.4238545 129.455307,91.2322182 128.457844,91.2322182 C127.461561,91.2322182 126.652966,90.4238545 126.652966,89.4252182 Z" id="Stroke-21" stroke="#CDCDCD"></path>
                                    <path d="M23.5620568,89.4252182 C23.5620568,88.4277636 24.3706516,87.6182182 25.3669347,87.6182182 C26.3643983,87.6182182 27.1718126,88.4277636 27.1718126,89.4252182 C27.1718126,90.4238545 26.3643983,91.2322182 25.3669347,91.2322182 C24.3706516,91.2322182 23.5620568,90.4238545 23.5620568,89.4252182 Z" id="Stroke-21" stroke="#CDCDCD"></path>
                                </g>
                            </g>
                        </g>
                    </g>
                </g>
            </g>
        </g>
    </g>
</svg>