<?xml version="1.0" encoding="UTF-8"?>
<svg width="124px" height="135px" viewBox="0 0 124 135" version="1.1" xmlns="http://www.w3.org/2000/svg" xmlns:xlink="http://www.w3.org/1999/xlink">
    <!-- Generator: Sketch 42 (36781) - http://www.bohemiancoding.com/sketch -->
    <title>intro-list-photo-02</title>
    <desc>Created with Sketch.</desc>
    <defs>
        <rect id="path-1" x="0" y="0" width="225" height="180"></rect>
        <polygon id="path-3" points="11.3604136 10.9089568 11.3604136 0.22671013 0.697138187 0.22671013 0.697138187 10.9089568 11.3604136 10.9089568"></polygon>
    </defs>
    <g id="pc" stroke="none" stroke-width="1" fill="none" fill-rule="evenodd">
        <g id="1.0-首頁" transform="translate(-581.000000, -1645.000000)">
            <g id="3大优势" transform="translate(0.000000, 1490.000000)">
                <g id="Benefits_section">
                    <g id="Group-3" transform="translate(70.000000, 132.000000)">
                        <g id="intro-list-photo-02" transform="translate(458.000000, 0.000000)">
                            <mask id="mask-2" fill="white">
                                <use xlink:href="#path-1"></use>
                            </mask>
                            <g id="Rectangle"></g>
                            <g id="Group-6" mask="url(#mask-2)">
                                <g transform="translate(34.000000, 23.000000)">
                                    <path d="M108.803156,67.4969559 C108.803156,104.20996 96.7074052,133.972173 81.7851558,133.972173 C66.8629064,133.972173 54.7671554,104.20996 54.7671554,67.4969559 C54.7671554,30.7839513 66.8629064,1.02173913 81.7851558,1.02173913 C96.7074052,1.02173913 108.803156,30.7839513 108.803156,67.4969559 Z" id="Stroke-1" stroke="#CDCDCD" stroke-width="1" fill="none"></path>
                                    <g id="Page-1" stroke="none" stroke-width="1" fill="none" fill-rule="evenodd" transform="translate(19.738416, 17.741107)">
                                        <g id="Group-7" transform="translate(113.125566, 0.759563)">
                                            <mask id="mask-4" fill="white">
                                                <use xlink:href="#path-3"></use>
                                            </mask>
                                            <g id="Clip-6"></g>
                                        </g>
                                        <path d="M45.1647908,32.1039678 C12.9159267,57.5038693 -6.0068544,87.2979891 2.9012901,98.6495857 C11.8078287,110.002791 45.1728205,98.6141874 77.4200788,73.215895 C109.670549,47.8159935 128.59333,18.0218737 119.685185,6.66866808 C110.778647,-4.68292857 77.415261,6.70567541 45.1647908,32.1039678 Z" id="Stroke-12" stroke="#E14523" stroke-linecap="round" stroke-linejoin="round" stroke-dasharray="1.02,4.08"></path>
                                        <g transform="translate(40.032845, 30.094862)" stroke="#CDCDCD">
                                            <polygon id="Stroke-1" points="21.6830548 0.264457933 0.0116762463 21.0535319 16.8188367 25.0343337 42.028914 20.610336"></polygon>
                                            <polyline id="Stroke-3" points="0.0116762463 21.0533992 21.0209586 41.3807002 42.028914 20.6102033"></polyline>
                                            <polyline id="Stroke-5" points="21.6830548 0.264457933 16.8188367 25.0343337 21.0209586 41.3808329"></polyline>
                                        </g>
                                        <path d="M77.4216847,32.1039678 C109.670549,57.5038693 128.59333,87.2979891 119.685185,98.6495857 C110.778647,110.002791 77.413655,98.6141874 45.1663968,73.215895 C12.9159267,47.8159935 -6.0068544,18.0218737 2.9012901,6.66866808 C11.8078287,-4.68292857 45.1712146,6.70567541 77.4216847,32.1039678 Z" id="Stroke-16" stroke="#E14523" stroke-linecap="round" stroke-linejoin="round" stroke-dasharray="1.02,4.08"></path>
                                    </g>
                                    <path d="M78.1196481,37.8047256 C78.1196481,36.4183704 79.2402964,35.2964427 80.6217009,35.2964427 C82.0031053,35.2964427 83.1237537,36.4183704 83.1237537,37.8047256 C83.1237537,39.1888142 82.0031053,40.312253 80.6217009,40.312253 C79.2402964,40.312253 78.1196481,39.1888142 78.1196481,37.8047256" id="Fill-18" stroke="#E14523" stroke-width="1.02" fill="#FEFEFE" fill-rule="evenodd"></path>
                                    <path d="M39.7548387,70.4074924 C39.7548387,69.0211372 40.8754871,67.8992095 42.2568915,67.8992095 C43.6382959,67.8992095 44.7589443,69.0211372 44.7589443,70.4074924 C44.7589443,71.791581 43.6382959,72.9150198 42.2568915,72.9150198 C40.8754871,72.9150198 39.7548387,71.791581 39.7548387,70.4074924" id="Fill-18-Copy" stroke="#E14523" stroke-width="1.02" fill="#FEFEFE" fill-rule="evenodd"></path>
                                    <path d="M118.152493,70.4074924 C118.152493,69.0211372 119.273141,67.8992095 120.654545,67.8992095 C122.03595,67.8992095 123.156598,69.0211372 123.156598,70.4074924 C123.156598,71.791581 122.03595,72.9150198 120.654545,72.9150198 C119.273141,72.9150198 118.152493,71.791581 118.152493,70.4074924" id="Fill-18-Copy-2" stroke="#E14523" stroke-width="1.02" fill="#FEFEFE" fill-rule="evenodd"></path>
                                    <path d="M20.572434,23.5932631 C20.572434,22.206908 21.6930824,21.0849802 23.0744868,21.0849802 C24.4558912,21.0849802 25.5765396,22.206908 25.5765396,23.5932631 C25.5765396,24.9773518 24.4558912,26.1007905 23.0744868,26.1007905 C21.6930824,26.1007905 20.572434,24.9773518 20.572434,23.5932631" id="Fill-3" stroke="none" fill="#E14523" fill-rule="evenodd"></path>
                                    <path d="M135.666862,22.7572947 C135.666862,21.3709396 136.787511,20.2490119 138.168915,20.2490119 C139.550319,20.2490119 140.670968,21.3709396 140.670968,22.7572947 C140.670968,24.1413834 139.550319,25.2648221 138.168915,25.2648221 C136.787511,25.2648221 135.666862,24.1413834 135.666862,22.7572947" id="Fill-5" stroke="none" fill="#E14523" fill-rule="evenodd"></path>
                                    <path d="M55.601173,26.1011683 C55.601173,24.7148131 56.7218214,23.5928854 58.1032258,23.5928854 C59.4846303,23.5928854 60.6052786,24.7148131 60.6052786,26.1011683 C60.6052786,27.4852569 59.4846303,28.6086957 58.1032258,28.6086957 C56.7218214,28.6086957 55.601173,27.4852569 55.601173,26.1011683" id="Fill-5-Copy" stroke="none" fill="#E14523" fill-rule="evenodd"></path>
                                    <path d="M56.4351906,113.877848 C56.4351906,112.491493 57.555839,111.369565 58.9372434,111.369565 C60.3186478,111.369565 61.4392962,112.491493 61.4392962,113.877848 C61.4392962,115.261937 60.3186478,116.385375 58.9372434,116.385375 C57.555839,116.385375 56.4351906,115.261937 56.4351906,113.877848" id="Fill-5-Copy-4" stroke="none" fill="#E14523" fill-rule="evenodd"></path>
                                    <path d="M98.970088,113.04188 C98.970088,111.655525 100.090736,110.533597 101.472141,110.533597 C102.853545,110.533597 103.974194,111.655525 103.974194,113.04188 C103.974194,114.425968 102.853545,115.549407 101.472141,115.549407 C100.090736,115.549407 98.970088,114.425968 98.970088,113.04188" id="Fill-5-Copy-2" stroke="none" fill="#E14523" fill-rule="evenodd"></path>
                                    <path d="M100.638123,26.9371366 C100.638123,25.5507815 101.758772,24.4288538 103.140176,24.4288538 C104.52158,24.4288538 105.642229,25.5507815 105.642229,26.9371366 C105.642229,28.3212253 104.52158,29.444664 103.140176,29.444664 C101.758772,29.444664 100.638123,28.3212253 100.638123,26.9371366" id="Fill-5-Copy-3" stroke="none" fill="#E14523" fill-rule="evenodd"></path>
                                    <path d="M135.629698,117.565922 C135.615032,116.180522 136.724007,115.0459 138.105133,115.031197 C139.48626,115.01731 140.618865,116.127426 140.633532,117.513642 C140.647384,118.897408 139.539223,120.032847 138.158097,120.046734 C136.776156,120.061437 135.644365,118.949687 135.629698,117.565922" id="Fill-8" stroke="none" fill="#E14523" fill-rule="evenodd"></path>
                                    <path d="M20.1399012,115.868986 C20.1399012,114.483285 21.260345,113.360672 22.6415466,113.360672 C24.023563,113.360672 25.1440068,114.483285 25.1440068,115.868986 C25.1440068,117.253052 24.023563,118.376482 22.6415466,118.376482 C21.260345,118.376482 20.1399012,117.253052 20.1399012,115.868986" id="Fill-10" stroke="none" fill="#E14523" fill-rule="evenodd"></path>
                                    <path d="M78.2023102,101.812218 C78.2023102,100.425862 79.3229585,99.3039347 80.704363,99.3039347 C82.0857674,99.3039347 83.2064158,100.425862 83.2064158,101.812218 C83.2064158,103.196306 82.0857674,104.319745 80.704363,104.319745 C79.3229585,104.319745 78.2023102,103.196306 78.2023102,101.812218 Z" id="Stroke-24" stroke="#E14523" stroke-width="1.02" fill="#FFFFFF" fill-rule="evenodd"></path>
                                </g>
                            </g>
                        </g>
                    </g>
                </g>
            </g>
        </g>
    </g>
</svg>