<?xml version="1.0" encoding="UTF-8"?>
<svg width="130px" height="56px" viewBox="0 0 130 56" version="1.1" xmlns="http://www.w3.org/2000/svg" xmlns:xlink="http://www.w3.org/1999/xlink">
    <!-- Generator: Sketch 42 (36781) - http://www.bohemiancoding.com/sketch -->
    <title>icon-vds-green</title>
    <desc>Created with Sketch.</desc>
    <defs></defs>
    <g id="pc" stroke="none" stroke-width="1" fill="none" fill-rule="evenodd">
        <g id="2.0-核心技術-" transform="translate(-575.000000, -1011.000000)" fill="#47C388">
            <g id="Group-12" transform="translate(0.000000, 790.000000)">
                <g id="Group-10" transform="translate(135.000000, 60.000000)">
                    <g id="Group-39" transform="translate(0.000000, 161.000000)">
                        <g id="icon-vds-green" transform="translate(440.000000, 0.000000)">
                            <path d="M24.7875507,55.6554666 C26.5095308,55.407555 27.8613186,55.0490884 28.8454268,54.577554 C29.8295351,54.1060195 30.5179921,53.3497219 30.9116353,52.3078235 L41.8314678,18.0583442 L43.0785633,14.1864018 C45.3449436,7.20551487 46.4781338,3.36791152 46.4781338,2.67359175 C46.4781338,1.88211747 46.1456308,1.23805004 45.4806249,0.743064533 C44.815619,0.248079029 44.0886352,0.000167507785 43.3005111,0.000167507785 L38.7292237,0.000167507785 C36.2241447,0.000167507785 34.7006614,0.838543971 34.1604488,2.51278428 L23.1384366,41.5353978 L12.1273124,2.69704284 C11.5410351,0.899684312 10.0485407,0.000167507785 7.65234189,0.000167507785 L3.10366799,0.000167507785 C2.36495866,0.000167507785 1.66310104,0.248916568 0.998095136,0.743902072 C0.332251691,1.23972512 -0.000251261677,1.88546763 -0.000251261677,2.67861699 C-0.000251261677,3.52201868 1.10865027,7.36548481 3.32561581,14.2106904 C3.64220552,15.2006614 4.25277139,17.1085751 5.15815097,19.9361065 C6.06269301,22.7628004 6.80140234,25.0718952 7.37427896,26.8625534 L15.5637346,52.2332825 C16.2036143,54.0683303 18.1718308,55.2098958 21.4667089,55.6554666 C22.0571738,55.7551337 23.1635628,55.7551337 24.7875507,55.6554666" id="Fill-1"></path>
                            <path d="M85.1426995,51.5217094 C87.457657,49.0183056 88.6151358,46.1036701 88.6151358,42.7794781 L88.6151358,12.4990959 C88.6151358,9.17657898 87.457657,6.26194352 85.1426995,3.75770214 C82.8260668,1.25262321 79.72131,-0.00033501557 75.8301042,-0.00033501557 L53.5842328,-0.00033501557 C52.8455235,-0.00033501557 52.1914056,0.223287877 51.6260668,0.669696124 C51.0590529,1.11526683 50.7768023,1.68646838 50.7768023,2.38078815 L50.7768023,52.899461 C50.7768023,53.5435284 51.0347643,54.1021669 51.5523634,54.5728637 C52.0699624,55.0443982 52.7458563,55.2789091 53.5842328,55.2789091 L75.8301042,55.2789091 C79.72131,55.2789091 82.8260668,54.0267884 85.1426995,51.5217094 M75.7564007,44.2677848 C75.3133426,44.863275 74.6717878,45.1606013 73.8350864,45.1606013 L62.9705315,45.1606013 L62.9705315,10.0442693 L73.8350864,10.0442693 C74.6717878,10.0442693 75.3133426,10.3415956 75.7564007,10.9370858 C76.1994588,11.532576 76.4214066,12.1766434 76.4214066,12.8709632 L76.4214066,42.3339074 C76.4214066,43.0282272 76.1994588,43.6731322 75.7564007,44.2677848" id="Fill-4"></path>
                            <path d="M126.271221,52.9358939 C128.24195,51.3738838 129.226896,49.1292795 129.226896,46.202081 L129.226896,38.2404359 C129.226896,37.0017159 129.177481,35.9598175 129.080326,35.1155782 C128.979822,34.2730141 128.733585,33.2562418 128.34078,32.0652615 C127.945461,30.8742811 127.256167,29.8214947 126.271221,28.903552 C125.2846,27.9856094 124.028292,27.2050231 122.501458,26.5592806 L105.429902,19.6412091 C105.083999,19.543217 104.912303,18.9234382 104.912303,17.7810351 L104.912303,11.3085343 C104.912303,10.5162225 105.181991,10.1183915 105.725554,10.1183915 L125.310564,10.1183915 C125.999858,10.1183915 126.628012,9.8947686 127.195026,9.44836036 C127.760365,9.00195211 128.045128,8.43242564 128.045128,7.73726833 L128.045128,2.45574788 C128.045128,1.81084291 127.786329,1.23964136 127.26873,0.744655857 C126.751131,0.248832814 126.09785,8.37538923e-05 125.310564,8.37538923e-05 L102.769041,8.37538923e-05 C100.156757,8.37538923e-05 97.8794889,0.793233115 95.9322109,2.38120692 C93.9857704,3.96834318 93.0133877,6.24979921 93.0133877,9.22641254 L93.0133877,17.7810351 C93.0133877,23.7334242 95.4523011,27.7025212 100.32929,29.6849758 L116.441864,36.4556405 C116.982914,36.7043896 117.254277,37.3987093 117.254277,38.5394373 L117.254277,44.267366 C117.254277,44.8628562 117.056618,45.1610201 116.662974,45.1610201 L96.2655514,45.1610201 C95.5260045,45.1610201 94.8727241,45.3838054 94.3065478,45.8310512 C93.739534,46.2766219 93.4564458,46.8478235 93.4564458,47.5421432 L93.4564458,52.8236637 C93.4564458,53.4694062 93.7160829,54.0397702 94.2328444,54.5347557 C94.7504435,55.0314163 95.4271749,55.2793278 96.2655514,55.2793278 L119.397539,55.2793278 C122.008985,55.2793278 124.299654,54.4987415 126.271221,52.9358939" id="Fill-7"></path>
                        </g>
                    </g>
                </g>
            </g>
        </g>
    </g>
</svg>