<?xml version="1.0" encoding="UTF-8"?>
<svg width="26px" height="26px" viewBox="0 0 26 26" version="1.1" xmlns="http://www.w3.org/2000/svg" xmlns:xlink="http://www.w3.org/1999/xlink">
    <!-- Generator: Sketch 42 (36781) - http://www.bohemiancoding.com/sketch -->
    <title>icon-wechat</title>
    <desc>Created with Sketch.</desc>
    <defs></defs>
    <g id="Symbols" stroke="none" stroke-width="1" fill="none" fill-rule="evenodd">
        <g id="footer" transform="translate(-97.000000, -242.000000)">
            <g id="Footer">
                <g>
                    <g id="soc" transform="translate(51.000000, 242.000000)">
                        <g id="icon-wechat" transform="translate(46.000000, 0.000000)">
                            <rect id="bound" fill="#000000" opacity="0.01" x="0" y="0" width="26" height="26"></rect>
                            <path d="M11.5695067,11.8167102 C10.0336914,13.3065516 9.33261044,15.1321719 9.52424278,17.3953899 C8.68266113,17.2910814 7.91613178,17.1763688 7.14524512,17.111365 C6.87900511,17.088956 6.56305629,17.1208799 6.33754371,17.2481309 C5.5889771,17.6705224 4.87135623,18.1474245 4.0207932,18.6790153 C4.17685574,17.9732214 4.27787399,17.3551071 4.4567012,16.7605577 C4.58822056,16.3235827 4.52730727,16.080463 4.12474597,15.7958156 C1.54006589,13.9709956 0.450562676,11.2400347 1.26591159,8.4284192 C2.02025829,5.82737701 3.87273388,4.24994496 6.38983133,3.42765993 C9.82543013,2.3054325 13.6864438,3.45015783 15.7755476,6.17782854 C16.5300721,7.16311222 16.9927464,8.26897754 17.1150176,9.57687937 C14.9618882,9.68936889 13.0895825,10.3420749 11.5695067,11.8167102 Z M19.9793386,22.1714013 C19.3160506,22.1021291 18.6187046,22.4848603 17.9248265,22.5557331 C15.8110018,22.7719975 13.9171763,22.1828726 12.3557507,20.7389162 C9.38584955,17.9919489 9.81028629,13.7802169 13.2461519,11.5290927 C16.2999088,9.52846886 20.7784144,10.1954028 22.9314548,12.9714484 C24.810341,15.3936634 24.5895414,18.6092629 22.2959113,20.6441227 C21.6320897,21.2330698 21.3933274,21.7177974 21.8191869,22.4941084 C21.8977073,22.6374547 21.9066887,22.8189497 21.9523959,23 C21.2706116,22.6964117 20.6451165,22.2409403 19.9793386,22.1714013 Z M14.9993877,14.7181038 C15.0168169,14.2641441 14.6516928,13.8835472 14.1972885,13.8815909 C13.7473305,13.8795456 13.3702905,14.2656559 13.3860301,14.7126794 C13.4007916,15.1399617 13.7606691,15.4855224 14.1915084,15.485967 C14.6256379,15.4864117 14.9830256,15.14672 14.9993877,14.7181038 Z M18.3983496,14.650699 C18.3801201,15.1057258 18.7337729,15.4793866 19.1840866,15.4805426 C19.6196389,15.4820544 19.9637768,15.152589 19.9796943,14.7191709 C19.99659,14.263166 19.6427593,13.8864817 19.1944908,13.8833693 C18.7734332,13.8804348 18.415512,14.2251952 18.3983496,14.650699 Z M6.2504866,7.7077749 C5.70858058,7.69185741 5.26289089,8.1059789 5.24706233,8.63997063 C5.23105591,9.18116526 5.64499955,9.61485014 6.19081825,9.62872237 C6.73192395,9.64241674 7.18552792,9.22776171 7.20553594,8.70079501 C7.22536611,8.18654451 6.77976534,7.72324776 6.2504866,7.7077749 Z M11.4049964,8.68594461 C11.4146891,9.22109237 11.8550434,9.63974901 12.4013067,9.63316859 C12.9489928,9.62658818 13.3643592,9.20348531 13.3592016,8.65704414 C13.3546665,8.12065144 12.9162686,7.69754858 12.3756964,7.7074192 C11.8444613,7.7172009 11.3955704,8.16964885 11.4049964,8.68594461 Z" id="Combined-Shape" fill="#FFFFFF"></path>
                        </g>
                    </g>
                </g>
            </g>
        </g>
    </g>
</svg>