<?xml version="1.0" encoding="UTF-8"?>
<svg width="74px" height="50px" viewBox="0 0 74 50" version="1.1" xmlns="http://www.w3.org/2000/svg" xmlns:xlink="http://www.w3.org/1999/xlink">
    <!-- Generator: Sketch 42 (36781) - http://www.bohemiancoding.com/sketch -->
    <title>icon-contact-03</title>
    <desc>Created with Sketch.</desc>
    <defs>
        <path d="M19.2437467,32.2991438 L18.2563056,36.0809846 C17.8854179,37.36169 16.1089637,38.9236075 14.6865347,39.1573315 L8.88589426,40.1104537 C4.60831913,40.8133161 0.945659521,44.9396562 0.704761905,49.3333333 L49.0893773,49.3333333 C47.8856798,45.1864729 43.4576739,41.180408 39.1976382,40.3852548 L32.9157544,39.2127153 C31.4964009,38.9477871 29.8174,37.5114371 29.3583464,36.0809846 L28.3709053,32.2991438 C30.4422651,30.9609147 32.2926734,27.8592111 32.8152029,24.9108562 C33.6390323,25.1062332 36.1864787,21.9960038 36.6369518,19.8485818 C37.0874248,17.7011598 34.7081084,16.2266358 34.4385953,16.2177912 L34.9241473,10.0024888 C34.9241473,-3.45821458 12.6905047,-3.20953169 12.6905047,10.0024888 L13.1757762,16.2136228 C12.9224173,16.2266358 10.549554,17.7011598 11.000027,19.8485818 C11.4505,21.9960038 13.9979465,25.1062332 14.7043828,24.9540837 C15.337206,27.8644202 16.7797649,30.5571104 19.2437467,32.2991438 Z" id="path-1"></path>
        <mask id="mask-2" maskContentUnits="userSpaceOnUse" maskUnits="objectBoundingBox" x="0" y="0" width="48.3846154" height="49.3333333" fill="white">
            <use xlink:href="#path-1"></use>
        </mask>
        <path d="M37.352381,49.3333333 L74,49.3333333 C73.0882918,46.192406 69.7344185,43.1581204 66.5077696,42.5558531 L61.7497266,41.6677448 C60.6746756,41.4670821 59.4029618,40.3791576 59.055264,39.2957 L58.3073534,36.4312469 C59.8762489,35.4176415 61.2777907,33.0683399 61.6735665,30.8351882 C62.2975538,30.9831712 64.2270483,28.627412 64.5682469,27.0009053 C64.9094455,25.3743985 63.1072966,24.2575602 62.9031612,24.2508611 L63.2709294,19.5432483 C63.2709294,9.34780236 46.4306579,9.5361605 46.4306579,19.5432483 L46.7982137,24.2477038 C46.6063138,24.2575602 44.8090526,25.3743985 45.1502512,27.0009053 C45.4914498,28.627412 47.4209443,30.9831712 47.9560154,30.8679297 C48.4353302,33.0722854 49.5279575,35.1117908 51.3942339,36.4312469 L51.3942339,36.4312469 L50.6463233,39.2957 C50.3654044,40.2657357 49.0198772,41.4487679 47.9424968,41.6257958 L43.5489585,42.3477125" id="path-3"></path>
        <mask id="mask-4" maskContentUnits="userSpaceOnUse" maskUnits="objectBoundingBox" x="0" y="0" width="36.647619" height="37.3661998" fill="white">
            <use xlink:href="#path-3"></use>
        </mask>
    </defs>
    <g id="pc" stroke="none" stroke-width="1" fill="none" fill-rule="evenodd" stroke-linejoin="round">
        <g id="5.0-關於我們" transform="translate(-986.000000, -4138.000000)" stroke="#FFFFFF" stroke-width="2">
            <g id="Group-13" transform="translate(0.000000, 3903.000000)">
                <g id="icon-contact-03" transform="translate(986.000000, 235.000000)">
                    <use id="Face-+-circle" mask="url(#mask-2)" xlink:href="#path-1"></use>
                    <use id="Face-+-circle" mask="url(#mask-4)" xlink:href="#path-3"></use>
                </g>
            </g>
        </g>
    </g>
</svg>