<?xml version="1.0" encoding="UTF-8"?>
<svg width="50px" height="50px" viewBox="0 0 50 50" version="1.1" xmlns="http://www.w3.org/2000/svg" xmlns:xlink="http://www.w3.org/1999/xlink">
    <!-- Generator: Sketch 42 (36781) - http://www.bohemiancoding.com/sketch -->
    <title>icon-contact-01</title>
    <desc>Created with Sketch.</desc>
    <defs></defs>
    <g id="pc" stroke="none" stroke-width="1" fill="none" fill-rule="evenodd">
        <g id="5.0-關於我們" transform="translate(-257.000000, -4136.000000)" stroke="#FFFFFF">
            <g id="Group-13" transform="translate(0.000000, 3903.000000)">
                <g id="icon-contact-01" transform="translate(258.000000, 234.000000)">
                    <path d="M0.151691925,24 C0.151691925,10.8274286 10.8300522,0.149068323 24.0026236,0.149068323 C37.175195,0.149068323 47.8535553,10.8274286 47.8535553,24 C47.8535553,37.1725714 37.175195,47.8509317 24.0026236,47.8509317 C10.8300522,47.8509317 0.151691925,37.1725714 0.151691925,24 Z" id="Stroke-1"></path>
                    <path d="M24,0.149068323 L24,47.8509317" id="Stroke-3"></path>
                    <path d="M0,24 L47.7018634,24" id="Stroke-5"></path>
                    <path d="M3.27950311,12 L44.7204969,12" id="Stroke-7"></path>
                    <path d="M3.27950311,36 L44.7204969,36" id="Stroke-9"></path>
                    <path d="M22.5119404,0.149068323 C10.5038907,4.33431056 6.06612671,32.330236 20.1760398,47.5441491" id="Stroke-11"></path>
                    <path d="M26.8908224,0.149068323 C38.898872,4.33431056 43.336636,32.330236 29.226723,47.5441491" id="Stroke-13"></path>
                </g>
            </g>
        </g>
    </g>
</svg>