<?xml version="1.0" encoding="UTF-8"?>
<svg width="57px" height="55px" viewBox="0 0 57 55" version="1.1" xmlns="http://www.w3.org/2000/svg" xmlns:xlink="http://www.w3.org/1999/xlink">
    <!-- Generator: Sketch 42 (36781) - http://www.bohemiancoding.com/sketch -->
    <title>icon-contact-02</title>
    <desc>Created with Sketch.</desc>
    <defs></defs>
    <g id="pc" stroke="none" stroke-width="1" fill="none" fill-rule="evenodd" stroke-linecap="round" stroke-linejoin="round">
        <g id="5.0-關於我們" transform="translate(-607.000000, -4137.000000)" stroke="#FFFFFF">
            <g id="Group-13" transform="translate(0.000000, 3903.000000)">
                <g id="icon-contact-02" transform="translate(608.000000, 235.000000)">
                    <path d="M37.7484472,15.4582654 L1.87888199,15.4582654 C0.93568323,15.4582654 0.170807453,16.2189513 0.170807453,17.1569833 L0.170807453,44.6762141 C0.170807453,45.6145859 0.93568323,46.3749321 1.87888199,46.3749321 L8.71118012,46.3749321 L8.71118012,51.9807013 C8.71118012,53.3396756 9.82142857,52.9999321 11.0170807,51.9807013 C12.2127329,50.9614705 17.9347826,46.3749321 17.9347826,46.3749321 L37.7484472,46.3749321 C38.6919876,46.3749321 39.4565217,45.6145859 39.4565217,44.6762141 L39.4565217,17.1569833 C39.4565217,16.2189513 38.6919876,15.4582654 37.7484472,15.4582654 Z" id="Stroke-1"></path>
                    <path d="M7.51552795,25 L32.4534161,25" id="Stroke-3"></path>
                    <path d="M7.51552795,32 L19.8136646,32" id="Stroke-5"></path>
                    <path d="M53.121118,0.169803846 L16.2267081,0.169803846 C15.2831677,0.169803846 14.5186335,0.930489744 14.5186335,1.86852179 L14.5186335,15.4582654 L37.7484472,15.4582654 C38.6919876,15.4582654 39.4565217,16.2189513 39.4565217,17.1569833 L39.4565217,31.3606436 C40.7034161,32.3611885 45.0128882,35.8228359 46.0326087,36.6922397 C47.2282609,37.7114705 48.3385093,38.0512141 48.3385093,36.6922397 L48.3385093,31.0864705 L53.121118,31.0864705 C54.0646584,31.0864705 54.8291925,30.3261244 54.8291925,29.3877526 L54.8291925,1.86852179 C54.8291925,0.930489744 54.0646584,0.169803846 53.121118,0.169803846 Z" id="Stroke-7"></path>
                </g>
            </g>
        </g>
    </g>
</svg>