<?xml version="1.0" encoding="UTF-8"?>
<svg width="218px" height="393px" viewBox="0 0 218 393" version="1.1" xmlns="http://www.w3.org/2000/svg" xmlns:xlink="http://www.w3.org/1999/xlink">
    <!-- Generator: Sketch 42 (36781) - http://www.bohemiancoding.com/sketch -->
    <title>banner</title>
    <desc>Created with Sketch.</desc>
    <defs>
        <path d="M109.217142,192.94653 C155.477924,192.94653 192.979698,155.451325 192.979698,109.198646 C192.979698,62.9459666 155.477924,25.4507616 109.217142,25.4507616 C62.9563593,25.4507616 25.4545853,62.9459666 25.4545853,109.198646 C25.4545853,155.451325 62.9563593,192.94653 109.217142,192.94653 Z M109.454717,202.757734 C57.9085807,202.757734 16.1212374,160.977711 16.1212374,109.438275 C16.1212374,57.8988393 57.9085807,16.1188157 109.454717,16.1188157 C161.000853,16.1188157 202.788197,57.8988393 202.788197,109.438275 C202.788197,160.977711 161.000853,202.757734 109.454717,202.757734 Z" id="path-1"></path>
        <path d="M53.7133485,94.8917361 C76.464553,94.8917361 94.9080484,76.4514714 94.9080484,53.7042521 C94.9080484,30.9570327 76.464553,12.516768 53.7133485,12.516768 C30.9621439,12.516768 12.5186485,30.9570327 12.5186485,53.7042521 C12.5186485,76.4514714 30.9621439,94.8917361 53.7133485,94.8917361 Z M53.8301887,99.7169184 C28.4796298,99.7169184 7.9284774,79.1693658 7.9284774,53.8221024 C7.9284774,28.474839 28.4796298,7.9272864 53.8301887,7.9272864 C79.1807475,7.9272864 99.7319,28.474839 99.7319,53.8221024 C99.7319,79.1693658 79.1807475,99.7169184 53.8301887,99.7169184 Z" id="path-3"></path>
        <path d="M66.4681911,117.424853 C94.6219267,117.424853 117.445039,94.6057387 117.445039,66.4569347 C117.445039,38.3081306 94.6219267,15.4890163 66.4681911,15.4890163 C38.3144555,15.4890163 15.4913433,38.3081306 15.4913433,66.4569347 C15.4913433,94.6057387 38.3144555,117.424853 66.4681911,117.424853 Z M66.6127763,123.39583 C35.2424404,123.39583 9.81118411,97.969028 9.81118411,66.6027699 C9.81118411,35.2365119 35.2424404,9.8097103 66.6127763,9.8097103 C97.9831123,9.8097103 123.414369,35.2365119 123.414369,66.6027699 C123.414369,97.969028 97.9831123,123.39583 66.6127763,123.39583 Z" id="path-5"></path>
        <path d="M53.6917564,94.8535908 C76.4338152,94.8535908 94.8698965,76.4207389 94.8698965,53.6826636 C94.8698965,30.9445884 76.4338152,12.5117364 53.6917564,12.5117364 C30.9496975,12.5117364 12.5136162,30.9445884 12.5136162,53.6826636 C12.5136162,76.4207389 30.9496975,94.8535908 53.6917564,94.8535908 Z M53.8085496,99.6768335 C28.4681814,99.6768335 7.92529025,79.1375407 7.92529025,53.8004666 C7.92529025,28.4633925 28.4681814,7.92409973 53.8085496,7.92409973 C79.1489178,7.92409973 99.691809,28.4633925 99.691809,53.8004666 C99.691809,79.1375407 79.1489178,99.6768335 53.8085496,99.6768335 Z" id="path-7"></path>
    </defs>
    <g id="mobile" stroke="none" stroke-width="1" fill="none" fill-rule="evenodd">
        <g id="mbi-1.0-首頁" transform="translate(-102.000000, -68.000000)">
            <g id="banner" transform="translate(-370.000000, 50.000000)">
                <g id="臉-circle" transform="translate(472.833019, 18.837736)">
                    <mask id="mask-2" fill="white">
                        <use xlink:href="#path-1"></use>
                    </mask>
                    <g id="Oval-6" fill-rule="nonzero"></g>
                    <g id="Group-26" opacity="0.395097373" mask="url(#mask-2)" stroke="#FFFFFF" stroke-width="0.742857143">
                        <g transform="translate(16.121237, 16.118816)">
                            <path d="M94.6807727,186.533937 L91.4326244,0.0142042963" id="Stroke-3"></path>
                            <path d="M97.9267941,186.420729 L88.186603,0.128051864" id="Stroke-7"></path>
                            <path d="M101.166833,186.194046 L84.946032,0.355214006" id="Stroke-11"></path>
                            <path d="M104.397035,185.854156 L81.7152982,0.695690721" id="Stroke-16"></path>
                            <path d="M107.613173,185.401324 L78.4986822,1.14894902" id="Stroke-18"></path>
                            <path d="M110.811683,184.836057 L75.2997997,1.71442925" id="Stroke-20"></path>
                            <path d="M113.988392,184.159421 L72.1224529,2.39133192" id="Stroke-22"></path>
                            <path d="M117.13963,183.371895 L68.9706828,3.17933724" id="Stroke-24"></path>
                            <path d="M120.262048,182.474546 L65.8483181,4.07684623" id="Stroke-26"></path>
                            <path d="M123.351259,181.468946 L62.7592139,5.08303274" id="Stroke-28"></path>
                            <path d="M126.403327,180.355841 L59.7066138,6.19677749" id="Stroke-30"></path>
                            <path d="M129.414877,179.136297 L56.6948516,7.41648149" id="Stroke-32"></path>
                            <path d="M132.381786,177.812392 L53.7275164,8.74102546" id="Stroke-34"></path>
                            <path d="M135.301185,176.3857 L50.8081177,10.1685173" id="Stroke-36"></path>
                            <path d="M138.168898,174.857526 L47.9399259,11.6973313" id="Stroke-38"></path>
                            <path d="M140.981576,173.229894 L45.1267694,13.3257619" id="Stroke-40"></path>
                            <path d="M143.736347,171.504965 L42.3724236,15.0511708" id="Stroke-42"></path>
                            <path d="M146.429091,169.684763 L39.6794143,16.872119" id="Stroke-44"></path>
                            <path d="M149.056882,167.771394 L37.0517296,18.7861812" id="Stroke-46"></path>
                            <path d="M151.616424,165.767469 L34.4919217,20.7906393" id="Stroke-48"></path>
                            <path d="M154.104553,163.67504 L32.0037396,22.8838142" id="Stroke-50"></path>
                            <path d="M156.518424,161.497012 L29.5899216,25.0624814" id="Stroke-52"></path>
                            <path d="M158.854927,159.235678 L27.253738,27.3246689" id="Stroke-54"></path>
                            <path d="M161.111189,156.894208 L24.9971031,29.6668854" id="Stroke-56"></path>
                            <path d="M163.284633,154.47516 L22.823553,32.0863594" id="Stroke-58"></path>
                            <path d="M165.372413,151.98144 L20.735826,34.5806658" id="Stroke-60"></path>
                            <path d="M167.372137,149.416405 L18.7360493,37.1465" id="Stroke-62"></path>
                            <path d="M169.281278,146.782667 L16.8270143,39.7808773" id="Stroke-64"></path>
                            <path d="M171.097471,144.083878 L15.0108748,42.4802532" id="Stroke-66"></path>
                            <path d="M172.818615,141.322861 L13.2897842,45.2413233" id="Stroke-68"></path>
                            <path d="M174.442662,138.503561 L11.6656835,48.0611026" id="Stroke-70"></path>
                            <path d="M175.967513,135.62923 L10.1407261,50.9361801" id="Stroke-72"></path>
                            <path d="M177.391652,132.703225 L8.71711878,53.8627182" id="Stroke-74"></path>
                            <path d="M178.712952,129.729197 L7.39619093,56.8371724" id="Stroke-76"></path>
                            <path d="M179.929898,126.710797 L6.17935166,59.8559985" id="Stroke-78"></path>
                            <path d="M181.040894,123.651677 L5.06872793,62.9156518" id="Stroke-80"></path>
                            <path d="M182.044903,120.555594 L4.06514394,66.0124283" id="Stroke-82"></path>
                            <path d="M182.940145,117.426091 L3.17000881,69.1421438" id="Stroke-84"></path>
                            <path d="M183.726352,114.267274 L2.38438602,72.3014404" id="Stroke-86"></path>
                            <path d="M184.401665,111.08298 L1.70933907,75.4861609" id="Stroke-88"></path>
                            <path d="M184.96587,107.876833 L1.14492111,78.6927342" id="Stroke-90"></path>
                            <path d="M185.418144,104.652831 L0.693232546,81.9168962" id="Stroke-92"></path>
                            <path d="M185.757768,101.415184 L0.353821382,85.1551293" id="Stroke-95"></path>
                            <path d="M185.984423,98.1676239 L0.127432062,88.4031695" id="Stroke-99"></path>
                            <path d="M186.097897,94.9140938 L0.0141177603,91.6569661" id="Stroke-103"></path>
                            <path d="M186.098163,91.6583518 L0.0143836315,94.9128146" id="Stroke-108"></path>
                            <path d="M185.985194,88.4047152 L0.127671346,98.1667711" id="Stroke-112"></path>
                            <path d="M185.758539,85.1570215 L0.354326538,101.414945" id="Stroke-116"></path>
                            <path d="M185.419181,81.9193746 L0.694269444,104.653178" id="Stroke-121"></path>
                            <path d="M184.967413,78.6955057 L1.14646317,107.877206" id="Stroke-123"></path>
                            <path d="M184.403739,75.4892256 L1.71088112,111.083646" id="Stroke-125"></path>
                            <path d="M183.728426,72.3047983 L2.38619395,114.268234" id="Stroke-127"></path>
                            <path d="M182.943016,69.1459813 L3.17234848,117.42753" id="Stroke-129"></path>
                            <path d="M182.048041,66.016479 L4.06774948,120.557512" id="Stroke-131"></path>
                            <path d="M181.04451,62.920129 L5.07207791,123.654022" id="Stroke-133"></path>
                            <path d="M179.93378,59.8610086 L6.18296751,126.713676" id="Stroke-135"></path>
                            <path d="M178.717366,56.8423691 L7.40007265,129.732262" id="Stroke-137"></path>
                            <path d="M177.396571,53.8683413 L8.72150565,132.706983" id="Stroke-139"></path>
                            <path d="M175.972964,50.9420697 L10.1456447,135.632988" id="Stroke-141"></path>
                            <path d="M174.448112,48.0673386 L11.670868,138.508198" id="Stroke-143"></path>
                            <path d="M172.824065,45.2477991 L13.2949687,141.327738" id="Stroke-145"></path>
                            <path d="M171.102921,42.4867824 L15.0163252,144.089074" id="Stroke-147"></path>
                            <path d="M169.286728,39.7877263 L16.8329964,146.78845" id="Stroke-149"></path>
                            <path d="M167.377587,37.1537221 L18.7425631,149.422028" id="Stroke-151"></path>
                            <path d="M165.378369,34.5881543 L20.7425791,151.987596" id="Stroke-153"></path>
                            <path d="M163.290881,32.0941677 L22.8305985,154.481902" id="Stroke-155"></path>
                            <path d="M161.117411,29.6746138 L25.004388,156.901136" id="Stroke-157"></path>
                            <path d="M158.861414,27.3327437 L27.2610229,159.243486" id="Stroke-159"></path>
                            <path d="M156.525177,25.0711692 L29.5980041,161.505434" id="Stroke-161"></path>
                            <path d="M154.111572,22.8926086 L32.0120879,163.683568" id="Stroke-163"></path>
                            <path d="M151.623682,20.7998068 L34.5007752,165.77637" id="Stroke-165"></path>
                            <path d="M149.064433,18.7953487 L37.0606097,167.780828" id="Stroke-167"></path>
                            <path d="M146.436854,16.8815796 L39.6882412,169.694757" id="Stroke-169"></path>
                            <path d="M143.744137,15.0610046 L42.381543,171.514799" id="Stroke-171"></path>
                            <path d="M140.989871,13.3356756 L45.136394,173.239808" id="Stroke-173"></path>
                            <path d="M138.177193,11.7078046 L47.9495504,174.867466" id="Stroke-175"></path>
                            <path d="M135.30948,10.179337 L50.8177423,176.39572" id="Stroke-177"></path>
                            <path d="M132.390613,8.75200514 L53.7374068,177.822306" id="Stroke-179"></path>
                            <path d="M129.423703,7.42756777 L56.7050078,179.146317" id="Stroke-181"></path>
                            <path d="M126.412154,6.20778382 L59.717036,180.366314" id="Stroke-183"></path>
                            <path d="M123.360086,5.09417232 L62.7691043,181.479553" id="Stroke-185"></path>
                            <path d="M120.271407,4.08790586 L65.8587403,182.485606" id="Stroke-187"></path>
                            <path d="M117.149494,3.19042352 L68.9810784,183.382715" id="Stroke-189"></path>
                            <path d="M113.998256,2.40265805 L72.1331143,184.170214" id="Stroke-191"></path>
                            <path d="M110.821281,1.72559548 L75.3104612,184.847223" id="Stroke-193"></path>
                            <path d="M107.622797,1.1600886 L78.5093702,185.412197" id="Stroke-195"></path>
                            <path d="M104.406633,0.706723702 L81.7259596,185.865189" id="Stroke-197"></path>
                            <path d="M101.176458,0.366326936 L84.9561883,186.205426" id="Stroke-200"></path>
                            <path d="M97.936658,0.138978246 L88.1964668,186.432455" id="Stroke-204"></path>
                            <path d="M94.6909024,0.0249974295 L91.4427541,186.546062" id="Stroke-208"></path>
                        </g>
                    </g>
                    <path d="M109.454717,209.544604 C54.1597708,209.544604 9.33334796,164.726033 9.33334796,109.438275 C9.33334796,54.1505167 54.1597708,9.33194592 109.454717,9.33194592 C164.749663,9.33194592 209.576086,54.1505167 209.576086,109.438275 C209.576086,164.726033 164.749663,209.544604 109.454717,209.544604 Z" id="Path" stroke="#FFFFFF" stroke-width="0.742857143" opacity="0.290930707"></path>
                    <g id="Group" fill="#FFFFFF" opacity="0.38134058">
                        <ellipse id="Oval-8" cx="109.87896" cy="2.1208968" rx="2.12121545" ry="2.1208968"></ellipse>
                        <ellipse id="Oval-8" cx="109.87896" cy="216.755653" rx="2.12121545" ry="2.1208968"></ellipse>
                        <ellipse id="Oval-8" cx="2.12121545" cy="109.862454" rx="2.12121545" ry="2.1208968"></ellipse>
                        <ellipse id="Oval-8" cx="216.788219" cy="109.862454" rx="2.12121545" ry="2.1208968"></ellipse>
                    </g>
                    <path d="M209.576086,109.438275 C209.576086,164.726033 164.749663,209.544604 109.454717,209.544604 L109.454717,209.544604 C54.1597708,209.544604 9.33334796,164.726033 9.33334796,109.438275 C9.33334796,54.1505167 54.1597708,9.33194592 109.454717,9.33194592" id="Path" stroke="#FFFFFF" stroke-width="0.742857143" opacity="0.662081069"></path>
                </g>
                <g id="鞋-line" opacity="0.511435688" transform="translate(532.943396, 79.836119)" stroke-width="0.742857143">
                    <polygon id="Path-56" stroke="#FFFFFF" stroke-linecap="round" stroke-linejoin="round" points="4.79425118 51.183558 8.9900971 48.2208895 17.0970427 52.3688005 8.07014759 54.9661725"></polygon>
                    <polygon id="Path-57" stroke="#FFFFFF" stroke-linecap="round" stroke-linejoin="round" points="36.2232311 46.8665768 32.7668494 52.0954852 51.4873839 51.1984501"></polygon>
                    <polygon id="Path-58" stroke="#FFFFFF" stroke-linecap="round" stroke-linejoin="round" points="51.6810114 51.2054582 90.8734891 44.688814 44.4694833 88.8931941"></polygon>
                    <polygon id="Path-59" stroke="#FFFFFF" stroke-linecap="round" stroke-linejoin="round" points="92.2963443 44.1272911 100.84837 36.9816712 109.576501 50.2269542 89.7327517 74.0868598"></polygon>
                    <polygon id="Path-60" stroke="#FFFFFF" stroke-linecap="round" stroke-linejoin="round" points="11.4774654 91.6701482 44.2960071 89.8059973 22.7998535 97.4439353"></polygon>
                    <polygon id="Path-61" stroke="#FFFFFF" stroke-linecap="round" stroke-linejoin="round" points="16.9130528 72.7561995 10.3516224 76.2243261 19.665016 81.0993261 32.3857274 76.0184636"></polygon>
                    <polyline id="Path-62" stroke="#FFFFFF" stroke-linecap="round" stroke-linejoin="round" points="10.2762741 75.9983154 18.3376603 52.7227089 17.2994316 72.4241914"></polyline>
                    <polyline id="Path-63" stroke="#FFFFFF" stroke-linecap="round" stroke-linejoin="round" points="89.9088563 74.5537736 81.7957777 97.9104111 51.5224296 115.781469 30.758731 121.267049 17.812851 116.178302 11.1322653 91.4923181 19.7684008 81.3183288"></polyline>
                    <polyline id="Path-64" stroke="#FFFFFF" stroke-linecap="round" stroke-linejoin="round" points="32.887757 51.8458221 27.3812021 55.1185984 32.9052799 75.5971024"></polyline>
                    <polygon id="Path-65" stroke="#FFFFFF" stroke-linecap="round" stroke-linejoin="round" points="27.7036225 44.7159704 39.2397894 39.487062 58.3309322 46.3725067 36.3423865 46.9384097"></polygon>
                    <polygon id="Path-65" stroke="#FFFFFF" stroke-linecap="round" stroke-linejoin="round" points="0.371484375 46.5652291 2.63193175 42.0555256 16.2725927 46.5652291 8.66066756 48.1490566"></polygon>
                    <polygon id="Path-66" stroke="#FFFFFF" stroke-linecap="round" stroke-linejoin="round" points="58.1373047 46.5880054 73.8430332 38.4262129 60.7131633 30.9161725 65.990169 0.338140162"></polygon>
                    <path d="M44.5851341,89.3390836 L81.9219423,97.3861186" id="Path-7" stroke="#FFFFFF" stroke-linecap="round"></path>
                    <path d="M91.2458496,44.3068733 L73.7133642,38.35" id="Path-11" stroke="#FFFFFF"></path>
                    <polyline id="Path-67" stroke="#FFFFFF" stroke-linecap="round" stroke-linejoin="round" points="16.3575785 46.2551213 18.667966 52.568531 27.7798469 45.0427224"></polyline>
                    <path d="" id="Path-12" stroke="#979797"></path>
                </g>
                <g id="墨鏡-line" opacity="0.511435688" transform="translate(666.621698, 215.288410)" stroke="#FFFFFF" stroke-width="0.742857143" stroke-linecap="round" stroke-linejoin="round">
                    <polygon id="Path-59" transform="translate(20.525388, 69.185142) scale(-1, 1) translate(-20.525388, -69.185142) " points="40.307807 63.5116577 30.315403 80.9504043 5.81670935 76.865566 0.74296875 57.4198787"></polygon>
                </g>
                <g id="領結-circle" transform="translate(602.501446, 220.365146) rotate(80.000000) translate(-602.501446, -220.365146) translate(548.161823, 166.025523)">
                    <mask id="mask-4" fill="white">
                        <use xlink:href="#path-3"></use>
                    </mask>
                    <g id="Oval-6" fill-rule="nonzero"></g>
                    <g id="Group-26" opacity="0.395097373" mask="url(#mask-4)" stroke="#FFFFFF" stroke-width="0.742857143">
                        <g transform="translate(7.928477, 7.927286)">
                            <path d="M46.5643145,91.7380017 L44.9668645,0.00698571948" id="Stroke-3"></path>
                            <path d="M49.7541804,91.5708425 L41.776737,0.174695413" id="Stroke-11"></path>
                            <path d="M52.9245113,91.1809791 L38.6059093,0.565056893" id="Stroke-18"></path>
                            <path d="M56.0598649,90.570207 L35.4700588,1.17606488" id="Stroke-22"></path>
                            <path d="M59.1452695,89.7415801 L32.3844188,2.00500634" id="Stroke-26"></path>
                            <path d="M62.1655706,88.6995938 L29.3639084,3.04759549" id="Stroke-30"></path>
                            <path d="M65.1057966,87.4487175 L26.4233687,4.29886498" id="Stroke-34"></path>
                            <path d="M67.9519172,85.9955044 L23.5770127,5.75278587" id="Stroke-38"></path>
                            <path d="M70.6900069,84.3467042 L20.8388969,7.40221516" id="Stroke-42"></path>
                            <path d="M73.3066632,82.5105216 L18.2221621,9.23910551" id="Stroke-46"></path>
                            <path d="M75.7891243,80.4959214 L15.7395441,11.2543349" id="Stroke-50"></path>
                            <path d="M78.1253737,78.3126284 L13.4034777,13.4383617" id="Stroke-54"></path>
                            <path d="M80.3039179,75.9713901 L11.2246982,15.7801767" id="Stroke-58"></path>
                            <path d="M82.3141656,73.4834779 L9.21445045,18.2687705" id="Stroke-62"></path>
                            <path d="M84.1462971,70.8609235 L7.38239745,20.8919278" id="Stroke-66"></path>
                            <path d="M85.7914732,68.1165056 L5.73722138,23.6366078" id="Stroke-70"></path>
                            <path d="M87.2417962,65.2638811 L4.28710759,26.4898614" id="Stroke-74"></path>
                            <path d="M88.4901137,62.3167856 L3.03902541,29.4373763" id="Stroke-78"></path>
                            <path d="M89.5302803,59.2896362 L1.99925112,32.4651287" id="Stroke-82"></path>
                            <path d="M90.3572225,56.1970201 L1.17264886,35.5580855" id="Stroke-86"></path>
                            <path d="M90.9668216,53.0541803 L0.563075958,38.7013447" id="Stroke-90"></path>
                            <path d="M91.3562793,49.8763202 L0.174010516,41.8795718" id="Stroke-95"></path>
                            <path d="M91.5235558,46.6790625 L0.0069431608,45.0771964" id="Stroke-103"></path>
                            <path d="M91.4681282,43.4777288 L0.0627891868,48.2787399" id="Stroke-112"></path>
                            <path d="M91.1897611,40.288217 L0.341443989,51.4687759" id="Stroke-121"></path>
                            <path d="M90.6903635,37.1258487 L0.841416945,54.6313015" id="Stroke-125"></path>
                            <path d="M89.9719751,34.0062203 L1.56017138,57.7512444" id="Stroke-129"></path>
                            <path d="M89.0382835,30.9443257 L2.49446454,60.8134536" id="Stroke-133"></path>
                            <path d="M87.8937864,27.9552635 L3.63937999,63.8027517" id="Stroke-137"></path>
                            <path d="M86.5440804,25.0534769 L4.98966132,66.704748" id="Stroke-141"></path>
                            <path d="M84.9954417,22.253016 L6.53850921,69.5054449" id="Stroke-145"></path>
                            <path d="M83.2557681,19.5677342 L8.27852284,72.1910412" id="Stroke-149"></path>
                            <path d="M81.333624,17.0105677 L10.2012684,74.747998" id="Stroke-153"></path>
                            <path d="M79.2380708,14.5940723 L12.29724,77.1644933" id="Stroke-157"></path>
                            <path d="M76.9795953,12.3300832 L14.5563955,79.4289019" id="Stroke-161"></path>
                            <path d="M74.569024,10.2294132 L16.9675944,81.5293622" id="Stroke-165"></path>
                            <path d="M72.018125,8.3024162 L19.5188072,83.4564378" id="Stroke-169"></path>
                            <path d="M69.339281,6.55852898 L22.1982265,85.1999056" id="Stroke-173"></path>
                            <path d="M66.545646,5.00623133 L24.9923323,86.7519936" id="Stroke-177"></path>
                            <path d="M63.6510017,3.65290218 L27.8877088,88.1047461" id="Stroke-181"></path>
                            <path d="M60.6688945,2.50533065 L30.8700513,89.2522389" id="Stroke-185"></path>
                            <path d="M57.6145053,1.56906075 L33.9251205,90.1882205" id="Stroke-189"></path>
                            <path d="M54.5022694,0.848653513 L37.0379317,90.9084705" id="Stroke-193"></path>
                            <path d="M51.3475246,0.347569034 L40.1930949,91.4091093" id="Stroke-197"></path>
                            <path d="M48.1655695,0.0683499571 L43.3753116,91.6880925" id="Stroke-204"></path>
                        </g>
                    </g>
                    <path d="M53.8301887,103.054723 C26.6359528,103.054723 4.59017113,81.0128032 4.59017113,53.8221024 C4.59017113,26.6314017 26.6359528,4.5894816 53.8301887,4.5894816 C81.0244245,4.5894816 103.070206,26.6314017 103.070206,53.8221024 C103.070206,81.0128032 81.0244245,103.054723 53.8301887,103.054723 Z" id="Path" stroke="#FFFFFF" stroke-width="0.742857143" opacity="0.290930707"></path>
                    <g id="Group" transform="translate(0.000000, -0.000000)" fill="#FFFFFF" opacity="0.38134058">
                        <ellipse id="Oval-8" cx="54.0388328" cy="1.043064" rx="1.04322071" ry="1.043064"></ellipse>
                        <ellipse id="Oval-8" cx="54.0388328" cy="106.601141" rx="1.04322071" ry="1.043064"></ellipse>
                        <ellipse id="Oval-8" cx="1.04322071" cy="54.0307152" rx="1.04322071" ry="1.043064"></ellipse>
                        <ellipse id="Oval-8" cx="106.617157" cy="54.0307152" rx="1.04322071" ry="1.043064"></ellipse>
                    </g>
                    <path d="M103.070206,53.8221024 C103.070206,81.0128032 81.0244245,103.054723 53.8301887,103.054723 L53.8301887,103.054723 C26.6359528,103.054723 4.59017113,81.0128032 4.59017113,53.8221024 C4.59017113,26.6314017 26.6359528,4.5894816 53.8301887,4.5894816" id="Path" stroke="#FFFFFF" stroke-width="0.742857143" opacity="0.662081069"></path>
                </g>
                <g id="墨鏡-circle" transform="translate(708.958308, 260.173947) rotate(200.000000) translate(-708.958308, -260.173947) translate(641.939440, 193.155079)">
                    <mask id="mask-6" fill="white">
                        <use xlink:href="#path-5"></use>
                    </mask>
                    <g id="Oval-6" fill-rule="nonzero"></g>
                    <g id="Group-26" opacity="0.395097373" mask="url(#mask-6)" stroke="#FFFFFF" stroke-width="0.742857143">
                        <g transform="translate(9.811184, 9.809710)">
                            <path d="M57.6215381,113.522229 L55.6447555,0.00864455766" id="Stroke-3"></path>
                            <path d="M61.5688737,113.315376 L51.6970962,0.216178816" id="Stroke-11"></path>
                            <path d="M65.4920356,112.832935 L47.7733194,0.699236049" id="Stroke-18"></path>
                            <path d="M69.3719144,112.077128 L43.8928258,1.4553348" id="Stroke-22"></path>
                            <path d="M73.1899833,111.051734 L40.0744656,2.4811178" id="Stroke-26"></path>
                            <path d="M76.9274891,109.762316 L36.3367009,3.77128153" id="Stroke-30"></path>
                            <path d="M80.565905,108.214405 L32.6978967,5.31967913" id="Stroke-34"></path>
                            <path d="M84.0878691,106.41611 L29.1756413,7.11884999" id="Stroke-38"></path>
                            <path d="M87.4761493,104.375784 L25.7873288,9.15995494" id="Stroke-42"></path>
                            <path d="M90.7141603,102.103579 L22.5492207,11.4330357" id="Stroke-46"></path>
                            <path d="M93.7861099,99.6105891 L19.477077,13.9268041" id="Stroke-50"></path>
                            <path d="M96.6771281,96.9088486 L16.5862852,16.6294528" id="Stroke-54"></path>
                            <path d="M99.3729923,94.0116567 L13.8901298,19.5273583" id="Stroke-58"></path>
                            <path d="M101.860596,90.9329616 L11.402526,22.6068969" id="Stroke-62"></path>
                            <path d="M104.127788,87.6876519 L9.13543129,25.8529526" id="Stroke-66"></path>
                            <path d="M106.16363,84.2915409 L7.09958954,29.2493879" id="Stroke-70"></path>
                            <path d="M107.958348,80.7615285 L5.30512982,32.7801788" id="Stroke-74"></path>
                            <path d="M109.503093,77.1146118 L3.76067639,36.4276145" id="Stroke-78"></path>
                            <path d="M110.790259,73.3686314 L2.47399593,40.174341" id="Stroke-82"></path>
                            <path d="M111.813568,69.5416387 L1.45110761,44.0017554" id="Stroke-86"></path>
                            <path d="M112.567923,65.652496 L0.696784718,47.8914171" id="Stroke-90"></path>
                            <path d="M113.049862,61.720017 L0.215331283,51.8243502" id="Stroke-95"></path>
                            <path d="M113.25686,57.7635343 L0.00859189293,55.781287" id="Stroke-103"></path>
                            <path d="M113.188271,53.8020077 L0.07769919,59.7430732" id="Stroke-112"></path>
                            <path d="M112.843802,49.8551102 L0.422523729,63.6906193" id="Stroke-121"></path>
                            <path d="M112.225817,45.9418017 L1.04122092,67.6041225" id="Stroke-125"></path>
                            <path d="M111.336839,42.0813823 L1.93065174,71.4649312" id="Stroke-129"></path>
                            <path d="M110.181432,38.2924062 L3.08680339,75.2542965" id="Stroke-133"></path>
                            <path d="M108.765161,34.5935573 L4.50359197,78.9534374" id="Stroke-137"></path>
                            <path d="M107.094952,31.0027086 L6.17451289,82.5445456" id="Stroke-141"></path>
                            <path d="M105.178572,27.5372465 L8.09115224,86.0102996" id="Stroke-145"></path>
                            <path d="M103.025793,24.2143142 L10.2443518,89.3336211" id="Stroke-149"></path>
                            <path d="M100.647214,21.0499196 L12.6236751,92.4977563" id="Stroke-153"></path>
                            <path d="M98.0540477,18.0596 L15.2173588,95.4880758" id="Stroke-157"></path>
                            <path d="M95.2592716,15.2580011 L18.0129763,98.2901938" id="Stroke-161"></path>
                            <path d="M92.2762829,12.6585031 L20.9967417,100.889432" id="Stroke-165"></path>
                            <path d="M89.1196441,10.2739189 L24.1537689,103.274114" id="Stroke-169"></path>
                            <path d="M85.8046782,8.11592593 L27.4694467,105.431588" id="Stroke-173"></path>
                            <path d="M82.3476629,6.19501763 L30.9270445,107.352237" id="Stroke-177"></path>
                            <path d="M78.7656526,4.52032516 L34.5099609,109.026215" id="Stroke-181"></path>
                            <path d="M75.0754103,3.10024977 L38.2004945,110.446193" id="Stroke-185"></path>
                            <path d="M71.2957217,1.94165199 L41.9810244,111.604434" id="Stroke-189"></path>
                            <path d="M67.4444502,1.0501759 L45.8330079,112.495716" id="Stroke-193"></path>
                            <path d="M63.5405756,0.430103235 L49.7374003,113.115237" id="Stroke-197"></path>
                            <path d="M59.6030292,0.0845804281 L53.6752703,113.460468" id="Stroke-204"></path>
                        </g>
                    </g>
                    <path d="M66.6127763,127.526234 C32.9609614,127.526234 5.68015922,100.25021 5.68015922,66.6027699 C5.68015922,32.9553295 32.9609614,5.67930596 66.6127763,5.67930596 C100.264591,5.67930596 127.545393,32.9553295 127.545393,66.6027699 C127.545393,100.25021 100.264591,127.526234 66.6127763,127.526234 Z" id="Path" stroke="#FFFFFF" stroke-width="0.742857143" opacity="0.290930707"></path>
                    <g id="Group" transform="translate(-0.000000, -0.000000)" fill="#FFFFFF" opacity="0.38134058">
                        <ellipse id="Oval-8" cx="66.8709654" cy="1.29075136" rx="1.29094528" ry="1.29075136"></ellipse>
                        <ellipse id="Oval-8" cx="131.934607" cy="66.8609202" rx="1.29094528" ry="1.29075136"></ellipse>
                    </g>
                    <path d="M127.545393,66.6027699 C127.545393,100.25021 100.264591,127.526234 66.6127763,127.526234 L66.6127763,127.526234 C32.9609614,127.526234 5.68015922,100.25021 5.68015922,66.6027699 C5.68015922,32.9553295 32.9609614,5.67930596 66.6127763,5.67930596" id="Path" stroke="#FFFFFF" stroke-width="0.742857143" opacity="0.662081069"></path>
                </g>
                <g id="錶-circle" transform="translate(521.442896, 360.380103) rotate(150.000000) translate(-521.442896, -360.380103) translate(467.103274, 306.040481)">
                    <mask id="mask-8" fill="white">
                        <use xlink:href="#path-7"></use>
                    </mask>
                    <g id="Oval-6" fill-rule="nonzero"></g>
                    <g id="Group-26" opacity="0.395097373" mask="url(#mask-8)" stroke="#FFFFFF" stroke-width="0.742857143">
                        <g transform="translate(7.925290, 7.924100)">
                            <path d="M46.5455962,91.7011242 L44.9487883,0.00698291131" id="Stroke-3"></path>
                            <path d="M49.7341798,91.5340322 L41.7599433,0.174625187" id="Stroke-11"></path>
                            <path d="M52.9032363,91.1443254 L38.5903902,0.564829747" id="Stroke-18"></path>
                            <path d="M56.0373295,90.5337989 L35.4558003,1.17559212" id="Stroke-22"></path>
                            <path d="M59.1214939,89.7055051 L32.3714006,2.00420036" id="Stroke-26"></path>
                            <path d="M62.1405808,88.6639377 L29.3521045,3.04637039" id="Stroke-30"></path>
                            <path d="M65.0796248,87.4135642 L26.4127468,4.29713689" id="Stroke-34"></path>
                            <path d="M67.9246013,85.9609353 L23.5675351,5.75047332" id="Stroke-38"></path>
                            <path d="M70.6615904,84.3127979 L20.8305199,7.39923956" id="Stroke-42"></path>
                            <path d="M73.2771949,82.4773534 L18.214837,9.2353915" id="Stroke-46"></path>
                            <path d="M75.758658,80.463563 L15.733217,11.2498108" id="Stroke-50"></path>
                            <path d="M78.0939683,78.2811477 L13.3980897,13.4329597" id="Stroke-54"></path>
                            <path d="M80.2716367,75.9408506 L11.220186,15.7738333" id="Stroke-58"></path>
                            <path d="M82.2810764,73.4539384 L9.21074636,18.2614267" id="Stroke-62"></path>
                            <path d="M84.1124713,70.8324383 L7.37942981,20.8835295" id="Stroke-66"></path>
                            <path d="M85.7569861,68.0891236 L5.73491509,23.6271062" id="Stroke-70"></path>
                            <path d="M87.206726,65.2376459 L4.28538423,26.4792128" id="Stroke-74"></path>
                            <path d="M88.4545418,62.2917351 L3.03780376,29.4255428" id="Stroke-78"></path>
                            <path d="M89.4942902,59.2658025 L1.99844744,32.4520781" id="Stroke-82"></path>
                            <path d="M90.3209,56.1744296 L1.17217747,35.5437915" id="Stroke-86"></path>
                            <path d="M90.930254,53.0328532 L0.562849608,38.6857872" id="Stroke-90"></path>
                            <path d="M91.3195552,49.8562705 L0.173940566,41.8627367" id="Stroke-95"></path>
                            <path d="M91.4867645,46.6602981 L0.00694036974,45.0590759" id="Stroke-103"></path>
                            <path d="M91.4313592,43.4602513 L0.0627639463,48.2593324" id="Stroke-112"></path>
                            <path d="M91.1531039,40.2720217 L0.341306733,51.4480861" id="Stroke-121"></path>
                            <path d="M90.653907,37.1109245 L0.841078706,54.6093404" id="Stroke-125"></path>
                            <path d="M89.9358075,33.9925502 L1.55954421,57.7280291" id="Stroke-129"></path>
                            <path d="M89.0024912,30.9318865 L2.4934618,60.7890073" id="Stroke-133"></path>
                            <path d="M87.8584542,27.9440258 L3.63791701,63.7771038" id="Stroke-137"></path>
                            <path d="M86.5092908,25.0434057 L4.98765554,66.6779335" id="Stroke-141"></path>
                            <path d="M84.9612746,22.2440705 L6.53588081,69.4775045" id="Stroke-145"></path>
                            <path d="M83.2223003,19.5598682 L8.27519497,72.1620212" id="Stroke-149"></path>
                            <path d="M81.3009289,17.0037297 L10.1971676,74.7179502" id="Stroke-153"></path>
                            <path d="M79.2062181,14.5882057 L12.2922967,77.1334742" id="Stroke-157"></path>
                            <path d="M76.9486504,12.3251267 L14.550544,79.3969724" id="Stroke-161"></path>
                            <path d="M74.5390482,10.2253011 L16.9607736,81.4965884" id="Stroke-165"></path>
                            <path d="M71.9891746,8.29907873 L19.5109609,83.4228894" id="Stroke-169"></path>
                            <path d="M69.3114075,6.55589253 L22.1893031,85.1656563" id="Stroke-173"></path>
                            <path d="M66.5188955,5.00421889 L24.9822857,86.7171204" id="Stroke-177"></path>
                            <path d="M63.6254148,3.65143376 L27.8764983,88.069329" id="Stroke-181"></path>
                            <path d="M60.6445064,2.50432354 L30.8576419,89.2163607" id="Stroke-185"></path>
                            <path d="M57.5913449,1.56843001 L33.911483,90.151966" id="Stroke-189"></path>
                            <path d="M54.4803601,0.848312365 L37.0230429,90.8719264" id="Stroke-193"></path>
                            <path d="M51.3268836,0.347429315 L40.1769378,91.372364" id="Stroke-197"></path>
                            <path d="M48.1462075,0.0683224812 L43.3578752,91.651235" id="Stroke-204"></path>
                        </g>
                    </g>
                    <path d="M53.8085496,103.013297 C26.6252455,103.013297 4.58832594,80.980237 4.58832594,53.8004666 C4.58832594,26.6206962 26.6252455,4.58763669 53.8085496,4.58763669 C80.9918537,4.58763669 103.028773,26.6206962 103.028773,53.8004666 C103.028773,80.980237 80.9918537,103.013297 53.8085496,103.013297 Z" id="Path" stroke="#FFFFFF" stroke-width="0.742857143" opacity="0.290930707"></path>
                    <g id="Group" transform="translate(0.000000, -0.000000)" fill="#FFFFFF" opacity="0.38134058">
                        <ellipse id="Oval-8" cx="54.0171099" cy="1.0426447" rx="1.04280135" ry="1.0426447"></ellipse>
                        <ellipse id="Oval-8" cx="54.0171099" cy="106.558289" rx="1.04280135" ry="1.0426447"></ellipse>
                        <ellipse id="Oval-8" cx="1.04280135" cy="54.0089955" rx="1.04280135" ry="1.0426447"></ellipse>
                        <ellipse id="Oval-8" cx="106.574298" cy="54.0089955" rx="1.04280135" ry="1.0426447"></ellipse>
                    </g>
                    <path d="M103.028773,53.8004666 C103.028773,80.980237 80.9918537,103.013297 53.8085496,103.013297 L53.8085496,103.013297 C26.6252455,103.013297 4.58832594,80.980237 4.58832594,53.8004666 C4.58832594,26.6206962 26.6252455,4.58763669 53.8085496,4.58763669" id="Path" stroke="#FFFFFF" stroke-width="0.742857143" opacity="0.662081069"></path>
                </g>
                <g id="領結-line" opacity="0.511435688" transform="translate(569.727358, 206.318059)" stroke="#FFFFFF" stroke-width="0.742857143">
                    <polygon id="Path-56" stroke-linecap="round" stroke-linejoin="round" points="0 0.476549865 28.7558695 9.84986523 28.7558695 18.4119946 0 26.4800539"></polygon>
                    <polygon id="Path-56" stroke-linecap="round" stroke-linejoin="round" transform="translate(52.782322, 14.970586) scale(-1, 1) translate(-52.782322, -14.970586) " points="37.6811321 1.07924528 67.8835127 9.84986523 67.8835127 18.4119946 39.1276432 28.8619272"></polygon>
                    <path d="M28.839103,9.75219003 L37.7284438,9.66984501" id="Path-13"></path>
                    <path d="M28.7396609,18.4768194 L37.7306341,18.4768194" id="Path-13"></path>
                </g>
            </g>
        </g>
    </g>
</svg>