<?xml version="1.0" encoding="UTF-8"?>
<svg width="154px" height="36px" viewBox="0 0 154 36" version="1.1" xmlns="http://www.w3.org/2000/svg" xmlns:xlink="http://www.w3.org/1999/xlink">
    <!-- Generator: Sketch 42 (36781) - http://www.bohemiancoding.com/sketch -->
    <title>logo-white</title>
    <desc>Created with Sketch.</desc>
    <defs>
        <polygon id="path-1" points="0.0541414566 35.6490872 128.864851 35.6490872 128.864851 0.58602096 64.4594961 0.58602096 0.0541414566 0.58602096 0.0541414566 35.6490872"></polygon>
    </defs>
    <g id="Symbols" stroke="none" stroke-width="1" fill="none" fill-rule="evenodd">
        <g id="footer" transform="translate(-54.000000, -60.000000)">
            <g id="Footer">
                <g>
                    <g id="logo2" transform="translate(54.000000, 60.000000)">
                        <g id="logo">
                            <polygon id="Fill-1" fill="#FFFFFF" points="11.8243053 20.7893594 5.22786127 1.34246957 6.29551816e-05 2.0936021 9.15689419 26.7352519 13.3383774 26.7352519 23.3255875 1.87908215 18.8545104 1.34246957"></polygon>
                            <g id="Group-12" transform="translate(25.182073, 0.039714)">
                                <mask id="mask-2" fill="white">
                                    <use xlink:href="#path-1"></use>
                                </mask>
                                <g id="Clip-3"></g>
                                <path d="M0.414245098,26.6955375 L5.17365686,26.6955375 L5.17365686,8.78781271 L0.414245098,8.78781271 L0.414245098,26.6955375 Z M5.4972465,3.27158553 C5.4972465,4.01208587 5.23346429,4.65064233 4.70527031,5.18788032 C4.17581723,5.72574375 3.53808123,5.99342461 2.79395098,5.99342461 C2.04856162,5.99342461 1.40578922,5.73700135 0.865004202,5.22415483 C0.324219188,4.71068289 0.0541414566,4.09526707 0.0541414566,3.37978364 C0.0541414566,2.54421907 0.305962185,1.8693881 0.810862745,1.35591616 C1.31513375,0.842444219 1.9887542,0.58602096 2.82920588,0.58602096 C3.59914776,0.58602096 4.2362542,0.842444219 4.74052521,1.35591616 C5.24542577,1.8693881 5.4972465,2.50794456 5.4972465,3.27158553 L5.4972465,3.27158553 Z" id="Fill-2" fill="#FFFFFF" mask="url(#mask-2)"></path>
                                <path d="M21.2513401,21.7529479 C21.2513401,23.3283874 20.6136041,24.6180088 19.3406504,25.6205612 C18.0658079,26.6243644 16.4434529,27.1247025 14.4735852,27.1247025 C12.2613401,27.1247025 10.26692,26.4336105 8.48906562,25.0476741 L10.0396518,22.540355 C11.4574025,23.7342867 12.7429473,24.3321907 13.8969158,24.3321907 C14.6655985,24.3321907 15.284448,24.1351826 15.7534641,23.7411663 C16.2218506,23.3465247 16.4566735,22.8155409 16.4566735,22.1463387 C16.4566735,21.5734517 16.2640306,21.0606051 15.8793744,20.6065483 C15.4940887,20.153117 14.653637,19.4613996 13.3555012,18.5288945 C12.0579949,17.5976403 11.1803996,16.8821569 10.723345,16.3799425 C9.90618676,15.4493137 9.49886674,14.4229953 9.49886674,13.3003617 C9.49886674,11.844378 10.0755362,10.6554496 11.2288751,9.73670385 C12.3828436,8.81795808 13.8597722,8.35764706 15.6640677,8.35764706 C17.5376139,8.35764706 19.25692,8.84797836 20.8182085,9.82613928 L19.4199739,12.0832894 C18.4630551,11.4147126 17.4595495,11.0794861 16.4088275,11.0794861 C15.7629074,11.0794861 15.2303065,11.2470994 14.8122841,11.5810751 C14.3936321,11.9156761 14.1846209,12.332833 14.1846209,12.8344219 C14.1846209,13.5505308 15.0093338,14.5180595 16.6600187,15.7357573 C18.5014578,17.0973022 19.7271952,18.165524 20.3366013,18.9416734 C20.9460075,19.7171974 21.2513401,20.6547059 21.2513401,21.7529479" id="Fill-4" fill="#FFFFFF" mask="url(#mask-2)"></path>
                                <path d="M39.1699588,25.4059787 C37.2951535,26.5523783 35.2151143,27.1252654 32.9323594,27.1252654 C30.1925499,27.1252654 27.9217564,26.2603059 26.11872,24.5278854 C24.3163132,22.7973411 23.414795,20.5595791 23.414795,17.8133485 C23.414795,15.0915095 24.3578636,12.8343594 26.2452599,11.0443999 C28.1313972,9.25381508 30.5287305,8.35758452 33.4372599,8.35758452 C35.4801556,8.35758452 37.3064854,8.84791582 38.9181381,9.82607674 L37.5161262,12.3333959 C36.342012,11.7842748 35.1924504,11.5097143 34.0668118,11.5097143 C32.3903153,11.5097143 31.0430744,12.0644642 30.0244595,13.1752147 C29.0071038,14.2853398 28.4984259,15.7600862 28.4984259,17.5982032 C28.4984259,19.5088692 29.0133993,21.0486596 30.0427165,22.2181998 C31.0720338,23.3883654 32.4261997,23.973761 34.1033258,23.973761 C35.2535169,23.973761 36.5101024,23.6041362 37.8762298,22.8630105 L39.1699588,25.4059787 Z" id="Fill-5" fill="#FFFFFF" mask="url(#mask-2)"></path>
                                <path d="M54.3117504,17.6342901 C54.3117504,15.5334956 53.9138736,13.8980156 53.1206383,12.7272245 C52.327403,11.5576842 51.2225396,10.9722887 49.8047889,10.9722887 C48.4581775,10.9722887 47.3822735,11.5758215 46.5770767,12.7810108 C45.7725095,13.9868256 45.3702258,15.6047938 45.3702258,17.6342901 C45.3702258,19.7826166 45.7668435,21.4656288 46.5600788,22.6833266 C47.3533141,23.9016498 48.4581775,24.5114368 49.8759282,24.5114368 C51.2703855,24.5114368 52.3576215,23.9016498 53.1395249,22.6833266 C53.9195396,21.4656288 54.3117504,19.7826166 54.3117504,17.6342901 M59.2499548,17.5980156 C59.2499548,20.3686376 58.37173,22.6483029 56.6177987,24.4388878 C54.8638673,26.2294726 52.6169968,27.1250778 49.8759282,27.1250778 C47.1115662,27.1250778 44.8476978,26.2426065 43.0805459,24.4751623 C41.3140235,22.7083435 40.4307623,20.4280527 40.4307623,17.6342901 C40.4307623,14.9118256 41.3190599,12.6859466 43.0988029,10.9541515 C44.8766572,9.22360717 47.1606712,8.35739689 49.9483267,8.35739689 C52.6169968,8.35739689 54.8342784,9.24174442 56.6001712,11.0085632 C58.3660641,12.775382 59.2499548,14.9724915 59.2499548,17.5980156" id="Fill-6" fill="#FFFFFF" mask="url(#mask-2)"></path>
                                <polygon id="Fill-7" fill="#FFFFFF" mask="url(#mask-2)" points="78.3939332 9.1813286 70.6422616 26.6956626 67.3616671 26.6956626 60.150151 9.32455037 64.8730487 8.46521974 69.560062 21.0005646 74.5354101 8.46521974"></polygon>
                                <path d="M91.8401528,15.8068678 C91.8401528,15.5929733 91.8281913,15.3065297 91.8036388,14.9475372 C91.6103664,12.2500896 90.4438069,10.9004277 88.3102557,10.9004277 C85.7857529,10.9004277 84.4504735,12.5365331 84.3050471,15.8068678 L91.8401528,15.8068678 Z M96.094664,17.5980781 C96.094664,17.6462356 95.9385352,17.7412999 95.626907,17.8845216 C95.3133902,18.0277434 95.1572613,18.1359415 95.1572613,18.2072397 L84.3050471,18.2072397 C84.32897,20.022216 84.851498,21.4544337 85.8732606,22.5038928 C86.8956528,23.5558536 88.2233776,24.0805832 89.8583237,24.0805832 C91.3956892,24.0805832 92.9582368,23.6040112 94.5434483,22.6483654 L95.8780982,25.1194101 C93.4983923,26.457189 91.1545709,27.1251403 88.847893,27.1251403 C86.2037754,27.1251403 84.0173419,26.3139672 82.2867039,24.6891193 C80.2910246,22.8272363 79.2938146,20.4168577 79.2938146,17.4548563 C79.2938146,14.7330172 80.1827417,12.5121416 81.9624847,10.792855 C83.6440176,9.16988337 85.7838643,8.35745943 88.3788769,8.35745943 C91.6475099,8.35745943 93.8824189,9.67084686 95.0848629,12.2969963 C95.7345604,13.7066988 96.0701115,15.4735176 96.094664,17.5980781 L96.094664,17.5980781 Z" id="Fill-8" fill="#FFFFFF" opacity="0.900000036" mask="url(#mask-2)"></path>
                                <path d="M111.524098,10.0055105 L109.756316,13.4078093 C108.699299,12.9062204 107.941948,12.6560514 107.486152,12.6560514 C106.139541,12.6560514 105.202768,13.3715348 104.673944,14.8050034 C104.361687,15.664334 104.206187,17.0846687 104.206187,19.0666329 L104.206187,26.6955375 L99.4455165,26.6955375 L99.4455165,8.78781271 L104.206187,8.78781271 L104.206187,11.9393171 L104.889251,10.7929175 C105.850577,9.16994591 106.945367,8.35752197 108.171734,8.35752197 C109.20357,8.35752197 110.321654,8.90726842 111.524098,10.0055105" id="Fill-9" fill="#FFFFFF" mask="url(#mask-2)"></path>
                                <path d="M128.865103,9.21766565 L120.10426,28.950999 C118.974844,31.5064757 117.904605,33.2013709 116.896063,34.0375609 C115.598557,35.1120368 113.723122,35.6492748 111.271647,35.6492748 L110.153563,35.6492748 L110.153563,32.4614959 L111.090966,32.4614959 C112.196459,32.4614959 113.062093,32.3120199 113.687238,32.0143188 C114.311753,31.7153668 114.895348,31.1543627 115.435503,30.3306812 C115.976918,29.5069997 116.738675,27.9009145 117.724554,25.513051 L110.730862,9.36088742 L115.417876,8.46528229 L120.032491,21.0725507 L125.115492,8.46528229 L128.865103,9.21766565 Z" id="Fill-10" fill="#FFFFFF" mask="url(#mask-2)"></path>
                                <path d="M59.0019744,23.1305663 C58.317022,24.2657082 57.3846557,25.2369895 56.2716081,25.9618543 L62.7182188,32.366807 C63.3553252,32.9991092 64.3959744,32.9991092 65.0324513,32.3649307 L65.509022,31.8933621 C66.1448693,31.2616853 66.1448693,30.2266109 65.509022,29.5936832 L59.0019744,23.1305663 Z" id="Fill-11" fill="#FFFFFF" mask="url(#mask-2)"></path>
                            </g>
                        </g>
                    </g>
                </g>
            </g>
        </g>
    </g>
</svg>