<?xml version="1.0" encoding="UTF-8"?>
<svg width="179px" height="42px" viewBox="0 0 179 42" version="1.1" xmlns="http://www.w3.org/2000/svg" xmlns:xlink="http://www.w3.org/1999/xlink">
    <!-- Generator: Sketch 42 (36781) - http://www.bohemiancoding.com/sketch -->
    <title>logo</title>
    <desc>Created with Sketch.</desc>
    <defs>
        <polygon id="path-1" points="0.0628739496 41.4300203 149.649504 41.4300203 149.649504 0.681051386 74.8561891 0.681051386 0.0628739496 0.681051386 0.0628739496 41.4300203"></polygon>
    </defs>
    <g id="pc" stroke="none" stroke-width="1" fill="none" fill-rule="evenodd">
        <g id="5.0-關於我們" transform="translate(-54.000000, -23.000000)">
            <g id="nav">
                <g id="logo" transform="translate(54.000000, 23.000000)">
                    <g>
                        <polygon id="Fill-1" fill="#F02314" points="13.7314513 24.1606068 6.07106471 1.56016734 7.31092436e-05 2.43310514 10.6338126 31.0706981 15.4897286 31.0706981 27.087779 2.18379817 21.8955605 1.56016734"></polygon>
                        <g id="Group-12" transform="translate(29.243697, 0.046154)">
                            <mask id="mask-2" fill="white">
                                <use xlink:href="#path-1"></use>
                            </mask>
                            <g id="Clip-3"></g>
                            <path d="M0.481058824,31.0245436 L6.00811765,31.0245436 L6.00811765,10.2128634 L0.481058824,10.2128634 L0.481058824,31.0245436 Z M6.38389916,3.80211291 C6.38389916,4.66269439 6.07757143,5.40480054 5.46418487,6.02915822 C4.84933613,6.65424273 4.1087395,6.9653313 3.24458824,6.9653313 C2.37897479,6.9653313 1.63252941,6.6673259 1.00452101,6.07131508 C0.376512605,5.47457742 0.0628739496,4.75936444 0.0628739496,3.92785666 C0.0628739496,2.95679513 0.355310924,2.17253212 0.941647059,1.57579446 C1.5272521,0.979056795 2.30952101,0.681051386 3.28552941,0.681051386 C4.17965546,0.681051386 4.91952101,0.979056795 5.50512605,1.57579446 C6.09146218,2.17253212 6.38389916,2.91463827 6.38389916,3.80211291 L6.38389916,3.80211291 Z" id="Fill-2" fill="#F02314" mask="url(#mask-2)"></path>
                            <path d="M24.6789756,25.280453 C24.6789756,27.1113692 23.938379,28.6101183 22.4601101,29.7752468 C20.9796479,30.9418289 19.0956227,31.5233029 16.8080345,31.5233029 C14.2389756,31.5233029 11.9228748,30.720142 9.85826975,29.1094591 L11.6589504,26.1955477 C13.3053706,27.5830899 14.7982613,28.2779513 16.1383538,28.2779513 C17.0310176,28.2779513 17.7496815,28.0489959 18.2943454,27.5910852 C18.8382782,27.1324476 19.1109756,26.5153584 19.1109756,25.7376369 C19.1109756,25.0718492 18.8872613,24.4758384 18.4405639,23.9481508 C17.9931353,23.42119 17.0171269,22.6173022 15.5096143,21.5335801 C14.0028328,20.4513117 12.9836899,19.6198039 12.4529168,19.0361494 C11.5039588,17.9546078 11.030942,16.7618594 11.030942,15.4571771 C11.030942,13.7650879 11.7006227,12.3833604 13.039984,11.3156288 C14.3800765,10.2478972 16.0952193,9.71294118 18.1905303,9.71294118 C20.3662613,9.71294118 22.3628748,10.2827857 24.175984,11.4195673 L22.5522277,14.0427417 C21.4409672,13.2657471 20.2756059,12.8761596 19.0554126,12.8761596 C18.3053118,12.8761596 17.6868076,13.0709533 17.2013622,13.4590872 C16.7151857,13.8479479 16.472463,14.3327519 16.472463,14.9156795 C16.472463,15.7479141 17.4301941,16.8723394 19.3471185,18.2875017 C21.4855639,19.8698377 22.9090008,21.1112847 23.6166983,22.0132961 C24.3243958,22.9145808 24.6789756,24.0041176 24.6789756,25.280453" id="Fill-4" fill="#F02314" mask="url(#mask-2)"></path>
                            <path d="M45.4876941,29.5258671 C43.3105008,30.8581694 40.8949714,31.5239571 38.2440303,31.5239571 C35.062316,31.5239571 32.4252655,30.5187339 30.3314168,28.5053803 C28.2382992,26.4942072 27.1913748,23.8935649 27.1913748,20.7019997 C27.1913748,17.5387813 28.2865513,14.9156068 30.4783664,12.8353837 C32.6687193,10.7544337 35.4527193,9.71286849 38.8303664,9.71286849 C41.2027613,9.71286849 43.3236605,10.282713 45.1952571,11.4194946 L43.5671143,14.333406 C42.2036269,13.6952383 40.8686521,13.3761545 39.5614588,13.3761545 C37.6145597,13.3761545 36.0500218,14.0208638 34.8671143,15.311736 C33.6856689,16.6018813 33.0949462,18.3157759 33.0949462,20.4519659 C33.0949462,22.6724696 33.6929798,24.4619557 34.888316,25.8211511 C36.0836521,27.1810734 37.6562319,27.8613979 39.6038622,27.8613979 C40.9395681,27.8613979 42.3988286,27.431834 43.9852992,26.5705257 L45.4876941,29.5258671 Z" id="Fill-5" fill="#F02314" mask="url(#mask-2)"></path>
                            <path d="M63.0717101,20.4939047 C63.0717101,18.0524408 62.6096597,16.1517478 61.6884832,14.7910987 C60.7673067,13.4319033 59.4842395,12.7515788 57.8378193,12.7515788 C56.2740126,12.7515788 55.0245756,13.4529817 54.0895084,14.8536072 C53.1551723,16.2549594 52.6880042,18.1353009 52.6880042,20.4939047 C52.6880042,22.9906085 53.1485924,24.9465416 54.0697689,26.3617039 C54.9909454,27.777593 56.2740126,28.4862644 57.9204328,28.4862644 C59.5398025,28.4862644 60.8023992,27.777593 61.710416,26.3617039 C62.6162395,24.9465416 63.0717101,22.9906085 63.0717101,20.4939047 M68.8063992,20.4517478 C68.8063992,23.6716599 67.7865252,26.3210007 65.7497017,28.4019506 C63.7128782,30.4829006 61.1036092,31.523739 57.9204328,31.523739 C54.7102059,31.523739 52.0811975,30.4981643 50.029021,28.4441075 C47.9775756,26.3907776 46.9518529,23.7407099 46.9518529,20.4939047 C46.9518529,17.3299594 47.9834244,14.7431271 50.0502227,12.7305003 C52.1148277,10.7193272 54.7672311,9.71265044 58.0045084,9.71265044 C61.1036092,9.71265044 63.6785168,10.7404057 65.7292311,12.7937356 C67.7799454,14.8470656 68.8063992,17.4004632 68.8063992,20.4517478" id="Fill-6" fill="#F02314" mask="url(#mask-2)"></path>
                            <polygon id="Fill-7" fill="#F02314" mask="url(#mask-2)" points="91.038116 10.6701927 82.0361748 31.024689 78.2264521 31.024689 69.8517882 10.8366396 75.3364437 9.83795808 80.7794269 24.4060615 86.5572504 9.83795808"></polygon>
                            <path d="M106.653081,18.3701437 C106.653081,18.1215636 106.63919,17.7886697 106.610677,17.3714621 C106.386232,14.2365906 105.031518,12.6680646 102.553845,12.6680646 C99.6221647,12.6680646 98.0715176,14.5694844 97.9026353,18.3701437 L106.653081,18.3701437 Z M111.593803,20.4518205 C111.593803,20.5077874 111.412492,20.6182674 111.050602,20.7847143 C110.686518,20.9511613 110.505207,21.076905 110.505207,21.159765 L97.9026353,21.159765 C97.9304168,23.2690619 98.5372235,24.9335311 99.7237866,26.1531728 C100.911081,27.3757218 102.452955,27.9855426 104.351602,27.9855426 C106.136929,27.9855426 107.951501,27.4316886 109.792392,26.3210734 L111.342308,29.1928279 C108.578778,30.7475439 105.856921,31.5238117 103.178198,31.5238117 C100.10761,31.5238117 97.5685261,30.581097 95.5587529,28.6927603 C93.2411899,26.5289503 92.0831395,23.7276995 92.0831395,20.2853736 C92.0831395,17.1221552 93.115442,14.5411376 95.1822403,12.5430477 C97.1349882,10.6568915 99.6199714,9.71272312 102.633534,9.71272312 C106.429366,9.71272312 109.024745,11.2390923 110.421131,14.2911038 C111.175618,15.9294067 111.565291,17.9827366 111.593803,20.4518205 L111.593803,20.4518205 Z" id="Fill-8" fill="#F02314" mask="url(#mask-2)"></path>
                            <path d="M129.511855,11.6280257 L127.458948,15.5820487 C126.231444,14.999121 125.351939,14.708384 124.822629,14.708384 C123.258822,14.708384 122.170956,15.5398918 121.556839,17.2058147 C121.194217,18.2044963 121.013637,19.8551555 121.013637,22.1585193 L121.013637,31.0245436 L115.485116,31.0245436 L115.485116,10.2128634 L121.013637,10.2128634 L121.013637,13.8754226 L121.806872,12.5431204 C122.92325,10.6569642 124.19462,9.71279581 125.618788,9.71279581 C126.817049,9.71279581 128.115469,10.3516903 129.511855,11.6280257" id="Fill-9" fill="#F02314" mask="url(#mask-2)"></path>
                            <path d="M149.649797,10.7124222 L139.475914,33.6457556 C138.164334,36.6156339 136.921477,38.5853769 135.750267,39.5571653 C134.243486,40.8058807 132.065561,41.4302383 129.218687,41.4302383 L127.920267,41.4302383 L127.920267,37.7255223 L129.008864,37.7255223 C130.292662,37.7255223 131.297914,37.551807 132.023889,37.20583 C132.749133,36.8583993 133.426855,36.2064216 134.054133,35.24917 C134.682872,34.2919185 135.567494,32.4253871 136.712385,29.6503026 L128.590679,10.8788692 L134.033662,9.83803076 L139.39257,24.4897211 L145.29541,9.83803076 L149.649797,10.7124222 Z" id="Fill-10" fill="#F02314" mask="url(#mask-2)"></path>
                            <path d="M68.5184218,26.8814689 C67.7229933,28.200688 66.6402454,29.3294743 65.3476739,30.1718847 L72.8340605,37.6154784 C73.5739261,38.3503161 74.7824218,38.3503161 75.5215563,37.6132978 L76.0749933,37.0652586 C76.8133966,36.3311477 76.8133966,35.1282235 76.0749933,34.3926589 L68.5184218,26.8814689 Z" id="Fill-11" fill="#F02314" mask="url(#mask-2)"></path>
                        </g>
                    </g>
                </g>
            </g>
        </g>
    </g>
</svg>